<?xml version="1.0" encoding="UTF-8"?><svg id="a" xmlns="http://www.w3.org/2000/svg" viewBox="0 0 82.75 58.31"><defs><style>.b{fill:#f6f3f8;}.c{fill:#f7f6f9;}.d{fill:#f9f7fa;}.e{fill:#f9f8fb;}.f{fill:#f8f7fa;}.g{fill:#f4f2f7;}.h{fill:#ece6f1;}.i{fill:#592b86;}.j{fill:#542282;}</style></defs><path class="j" d="M41.37,58.31c-13.56,0-27.12,0-40.68,0-.77,0-.67,.05-.67-.67C0,38.6,.01,19.56,0,.53,0,.07,.16,0,.56,0,5.45,.01,10.34,.01,15.23,.01c22.19,0,44.37,0,66.56,0,1.12,0,.96-.18,.96,.95,.01,6.36,0,12.71,0,19.07,0,7.03,0,14.07,0,21.1,0,5.51,.01,11.01,.02,16.52,0,.65,0,.65-.66,.65-13.58,0-27.15,0-40.73,0Zm-16.33-16.87h0c1.99,0,3.98,0,5.97,0,.48,0,.96,0,1.43,0,.58,0,.64-.08,.65-.64,0-.66,0-1.33,0-1.99,0-.77-.05-.82-.81-.82-2.68,0-5.37,0-8.05,0-.45,0-.6-.15-.59-.59,.03-.91,.01-1.82,0-2.73,0-.39,.09-.75,.28-1.11,.77-1.46,1.52-2.92,2.26-4.39,1.64-3.22,3.27-6.45,4.91-9.67,.3-.6,.25-.68-.42-.68-3.64,0-7.28,0-10.92,0-.8,0-1.6,0-2.41,0-.16,0-.38-.06-.43,.16-.05,.23,.16,.26,.32,.32,.1,.04,.2,.09,.29,.14,2.01,1.15,3.06,2.89,3.16,5.19,.03,.69-.01,1.38-.24,2.05-.37,1.1-1.02,2-1.92,2.72-.26,.21-.41,.41-.03,.69,1.97,1.44,2.76,3.4,2.47,5.81-.27,2.32-1.42,4.03-3.54,5.06-.15,.07-.39,.08-.34,.3,.04,.2,.27,.16,.43,.18,.06,0,.12,0,.18,0,2.44,0,4.88,0,7.31,0Zm20.06-16.71h0c0,1.77,0,3.55,0,5.32,0,.42,.14,.63,.59,.61,.43-.03,.86-.01,1.3,0,.24,0,.41-.09,.51-.32,.06-.14,.14-.28,.22-.4,.63-.93,1.59-1.29,2.64-1.41,1.39-.15,2.66,.1,3.49,1.37,.47,.72,.66,1.55,.73,2.4,.08,1.08,.08,2.16,0,3.24-.06,.81-.27,1.58-.7,2.27-.87,1.38-2.75,1.78-4.33,1.39-.81-.2-1.47-.62-1.89-1.37-.21-.38-.4-.75-.46-1.2-.09-.69-.27-.82-.98-.81-.37,0-.74,0-1.11,0-.36,0-.49,.17-.48,.52,.02,.48,.13,.94,.27,1.4,.45,1.4,1.28,2.45,2.61,3.13,1.28,.65,2.62,.55,3.97,.56,1,0,1.92-.21,2.76-.75,1.5-.96,2.38-2.32,2.66-4.08,.35-2.14,.37-4.27-.23-6.36-.53-1.84-1.64-3.16-3.54-3.67-1.84-.49-3.63-.39-5.27,.7-.12,.08-.24,.25-.4,.15-.15-.09-.08-.28-.08-.43,0-1.8,0-3.61,0-5.41q0-.64,.64-.64c2.67,0,5.34,0,8.01,0,.58,0,.63-.06,.63-.64,0-.29-.02-.59,0-.88,.03-.45-.17-.59-.6-.59-3.44,.01-6.88,0-10.32,0-.56,0-.64,.08-.64,.64,0,1.76,0,3.52,0,5.28Zm-6.28,1.78h0c0-2.38,0-4.75,0-7.13,0-.52-.1-.63-.62-.63-.57,0-1.14,.03-1.71-.01-.49-.04-.74,.21-.93,.59-1.05,2.08-2.09,4.15-3.15,6.22-1.38,2.7-2.76,5.4-4.14,8.1-.21,.42-.14,.54,.34,.54,1.3,0,2.59,0,3.89,0,.52,0,.63-.12,.63-.63,0-1.05,.01-2.1,0-3.15,0-.4,.14-.54,.54-.53,.93,.02,1.85,.02,2.78,0,.37,0,.49,.14,.49,.49-.01,.86,0,1.73,0,2.59,.01,1.29-.2,1.24,1.26,1.23,.55,0,.63-.09,.63-.66,0-2.34,0-4.69,0-7.03Zm27.2,3.59c0-3.56,0-7.12,0-10.69,0-.44-.14-.62-.59-.6-.51,.02-1.02,0-1.53,0-.27,0-.51,.06-.72,.25-1.19,1.03-2.38,2.06-3.56,3.09-.17,.14-.3,.31-.3,.55,0,.65,0,1.3,0,1.94,0,.3,.17,.35,.39,.22,.17-.1,.31-.25,.46-.38,.97-.85,1.94-1.71,2.92-2.56,.09-.08,.18-.19,.32-.14,.15,.06,.1,.21,.1,.33,0,.39,0,.77,0,1.16,0,5.81,0,11.63,0,17.44,0,.64,.11,.74,.76,.73,.34,0,.68-.02,1.02-.01,.66,.02,.72-.03,.72-.68,0-3.55,0-7.09,0-10.64Zm-55.41,4.77c-.24,1.98,1.6,3.31,3.14,3.28,1.86-.03,3.32-1.42,3.32-3.25,0-1.82-1.47-3.32-3.27-3.32-1.87,0-3.19,1.36-3.19,3.29Zm3.14-6.76c1.75,.02,2.99-1.26,2.98-3.01,0-1.74-1.2-2.99-2.95-3.01-1.7-.02-2.99,1.31-2.99,3.03,0,1.71,1.28,3,2.96,3Zm59.28-6.97c.07-1.57-1.05-2.4-2.32-2.36-1.47,.04-2.5,1.01-2.49,2.38,.02,1.32,1.15,2.42,2.48,2.41,1.07-.01,2.42-.79,2.33-2.42Zm-34.29,16.84h0c-.45,0-.89,0-1.34,0-.31,0-.46,.15-.46,.45,0,.86,0,1.73,0,2.59,0,.26,.14,.4,.4,.4,.91,0,1.82,0,2.73,0,.3,0,.44-.16,.43-.47,0-.82,0-1.63,0-2.45,0-.37-.14-.54-.52-.53-.42,.01-.83,0-1.25,0Z"/><path class="e" d="M25.03,41.44c-2.44,0-4.88,0-7.31,0-.06,0-.12,0-.18,0-.16-.02-.39,.01-.43-.18-.05-.23,.19-.23,.34-.3,2.11-1.03,3.26-2.74,3.54-5.06,.29-2.41-.51-4.36-2.47-5.81-.38-.28-.23-.48,.03-.69,.9-.72,1.55-1.61,1.92-2.72,.22-.67,.27-1.36,.24-2.05-.1-2.31-1.15-4.05-3.16-5.19-.09-.05-.19-.1-.29-.14-.16-.06-.37-.09-.32-.32,.05-.22,.27-.16,.43-.16,.8,0,1.6,0,2.41,0,3.64,0,7.28,0,10.92,0,.67,0,.72,.09,.42,.68-1.64,3.22-3.27,6.45-4.91,9.67-.75,1.47-1.5,2.93-2.26,4.39-.19,.35-.28,.71-.28,1.11,0,.91,.02,1.82,0,2.73-.01,.45,.14,.59,.59,.59,2.68-.01,5.37,0,8.05,0,.76,0,.81,.05,.81,.82,0,.66,0,1.33,0,1.99,0,.56-.07,.63-.65,.64-.48,0-.96,0-1.43,0-1.99,0-3.98,0-5.97,0h0Z"/><path class="b" d="M45.09,24.73c0-1.76,0-3.52,0-5.28,0-.56,.08-.64,.64-.64,3.44,0,6.88,0,10.32,0,.44,0,.63,.15,.6,.59-.02,.29,0,.59,0,.88,0,.59-.06,.64-.63,.64-2.67,0-5.34,0-8.01,0q-.64,0-.64,.64c0,1.8,0,3.61,0,5.41,0,.15-.07,.34,.08,.43,.16,.1,.28-.07,.4-.15,1.65-1.09,3.43-1.19,5.27-.7,1.9,.51,3.02,1.83,3.54,3.67,.6,2.1,.58,4.22,.23,6.36-.29,1.76-1.16,3.12-2.66,4.08-.84,.54-1.76,.76-2.76,.75-1.35-.01-2.7,.09-3.97-.56-1.33-.68-2.17-1.74-2.61-3.13-.15-.45-.26-.92-.27-1.4-.01-.34,.12-.53,.48-.52,.37,0,.74,0,1.11,0,.71,0,.89,.12,.98,.81,.06,.45,.25,.82,.46,1.2,.42,.75,1.08,1.17,1.89,1.37,1.58,.39,3.46-.01,4.33-1.39,.44-.69,.65-1.46,.7-2.27,.07-1.08,.08-2.16,0-3.24-.07-.85-.26-1.68-.73-2.4-.83-1.27-2.1-1.53-3.49-1.37-1.05,.12-2.01,.48-2.64,1.41-.09,.13-.16,.26-.22,.4-.1,.23-.27,.32-.51,.32-.43,0-.87-.02-1.3,0-.45,.03-.6-.19-.59-.61,0-1.77,0-3.55,0-5.32h0Z"/><path class="f" d="M38.81,26.52c0,2.34,0,4.69,0,7.03,0,.57-.07,.65-.63,.66-1.46,0-1.25,.06-1.26-1.23,0-.86-.01-1.73,0-2.59,0-.35-.12-.5-.49-.49-.93,.02-1.85,.02-2.78,0-.4,0-.55,.13-.54,.53,.02,1.05,0,2.1,0,3.15,0,.51-.11,.63-.63,.63-1.3,0-2.59,0-3.89,0-.48,0-.55-.13-.34-.54,1.38-2.7,2.76-5.4,4.14-8.1,1.05-2.07,2.1-4.15,3.15-6.22,.19-.38,.44-.63,.93-.59,.57,.05,1.14,0,1.71,.01,.52,0,.62,.11,.62,.63,0,2.38,0,4.75,0,7.13h0Z"/><path class="c" d="M66.01,30.1c0,3.55,0,7.09,0,10.64,0,.65-.06,.7-.72,.68-.34,0-.68,0-1.02,.01-.65,.01-.76-.09-.76-.73,0-5.81,0-11.63,0-17.44,0-.39,0-.77,0-1.16,0-.12,.04-.26-.1-.33-.14-.06-.23,.06-.32,.14-.97,.85-1.94,1.71-2.92,2.56-.15,.13-.29,.28-.46,.38-.23,.13-.39,.08-.39-.22,0-.65,0-1.3,0-1.94,0-.24,.13-.4,.3-.55,1.19-1.03,2.38-2.06,3.56-3.09,.21-.18,.45-.25,.72-.25,.51,0,1.02,.02,1.53,0,.45-.02,.59,.17,.59,.6-.01,3.56,0,7.12,0,10.69Z"/><path class="d" d="M10.59,34.87c0-1.93,1.32-3.29,3.19-3.29,1.79,0,3.27,1.5,3.27,3.32,0,1.83-1.47,3.22-3.32,3.25-1.53,.03-3.37-1.3-3.14-3.28Z"/><path class="d" d="M13.73,28.11c-1.68,0-2.96-1.29-2.96-3,0-1.72,1.3-3.04,2.99-3.03,1.75,.02,2.95,1.27,2.95,3.01,0,1.76-1.24,3.03-2.98,3.01Z"/><path class="h" d="M73.01,21.14c.09,1.64-1.26,2.41-2.33,2.42-1.33,.01-2.46-1.09-2.48-2.41-.02-1.37,1.02-2.34,2.49-2.38,1.27-.03,2.39,.79,2.32,2.36Zm-.94,0c0-.84-.59-1.44-1.41-1.43-.81,0-1.39,.59-1.4,1.4,0,.86,.56,1.42,1.42,1.42,.84,0,1.39-.55,1.39-1.39Z"/><path class="g" d="M38.72,37.98c.42,0,.83,.01,1.25,0,.38-.01,.53,.16,.52,.53-.01,.82-.01,1.63,0,2.45,0,.31-.14,.47-.43,.47-.91,0-1.82,0-2.73,0-.26,0-.4-.15-.4-.4,0-.86,0-1.73,0-2.59,0-.3,.15-.45,.46-.45,.45,0,.89,0,1.34,0h0Z"/><path class="i" d="M72.07,21.14c0,.84-.55,1.39-1.39,1.39-.86,0-1.42-.56-1.42-1.42,0-.81,.58-1.39,1.4-1.4,.82,0,1.41,.59,1.41,1.43Z"/></svg>