<svg id="Layer_1" data-name="Layer 1" xmlns="http://www.w3.org/2000/svg" viewBox="0 0 94.05 96.2"><defs><style>.cls-1{fill:#fff;}</style></defs><path d="M0,47.93C1.17,27.62,10.19,12.29,29.11,3.83c19.62-8.77,42.94-2,55.62,15.61,7.62,10.61,10.71,22.48,8.75,35.39-2.71,17.82-12.42,30.59-29,37.71a42.73,42.73,0,0,1-33.43.51C14.09,86.38,4.16,73.74.86,55.89.38,53.31.28,50.66,0,47.93Zm2.47,1c.33,2.43.59,5.75,1.25,9A44.73,44.73,0,0,0,40,92.93a41.94,41.94,0,0,0,29.81-5.78A45.71,45.71,0,0,0,91,40.71,45.05,45.05,0,0,0,55.7,3.44,41.12,41.12,0,0,0,26,8C10.66,16.85,3.25,30.51,2.47,48.93Z"/><path class="cls-1" d="M2.47,48.93C3.25,30.51,10.66,16.85,26,8A41.12,41.12,0,0,1,55.7,3.44,45.05,45.05,0,0,1,91,40.71,45.71,45.71,0,0,1,69.78,87.15,41.94,41.94,0,0,1,40,92.93a44.73,44.73,0,0,1-36.25-35C3.06,54.68,2.8,51.36,2.47,48.93Zm2.62.61c1,15.31,7.56,27.62,21,35.52,14.32,8.44,29.06,8.21,43.14-.61,12.74-8,19-20.07,19.94-35.07-.51-.07-.85-.13-1.2-.16a31.13,31.13,0,0,1-11.6-3.17C62.63,39.17,55,27.82,52.18,13c-.47-2.49-.61-5-.93-7.75-2.36,0-4.74,0-7.13,0-1.15,0-1.45.39-1.5,1.5a46.71,46.71,0,0,1-6,21.49c-5.52,9.69-13.37,16.63-24.19,19.86C10.1,48.77,7.67,49,5.09,49.54ZM60,27.58c.82,1.24,1.54,2.27,2.18,3.35a1.8,1.8,0,0,0,1.77.91c6.91,0,13.81,0,20.72,0,.34,0,.68-.05,1.2-.09-.5-1.14-1-2.14-1.39-3.16a1.49,1.49,0,0,0-1.61-1c-7.19,0-14.37,0-21.56,0ZM8.21,31.82H30.67a1,1,0,0,0,.75-.24c.9-1.24,1.74-2.52,2.74-4-8,0-15.68,0-23.35,0a1.09,1.09,0,0,0-.82.47C9.38,29.23,8.86,30.43,8.21,31.82Zm48.65-11c.48,1.16.91,2.05,1.22,3a1.63,1.63,0,0,0,1.85,1.25c7-.05,14.08,0,21.12,0,.4,0,.81,0,1.42-.07-.84-1.22-1.56-2.23-2.24-3.26a1.87,1.87,0,0,0-1.79-.9c-6.76,0-13.51,0-20.27,0ZM37.23,21a3.49,3.49,0,0,0-.54-.12q-10.66,0-21.34,0c-.27,0-.65,0-.78.19-1,1.23-1.85,2.5-2.8,3.81a2.16,2.16,0,0,0,.48.18q11.27,0,22.54,0c.28,0,.71-.15.8-.35C36.17,23.47,36.68,22.23,37.23,21ZM65,34.36c1.3,1.32,2.33,2.47,3.48,3.49a3,3,0,0,0,1.78.69c5.47.06,10.94,0,16.41,0h1.34c-.33-1.21-.65-2.23-.87-3.27-.17-.78-.6-1-1.35-.95-5.23,0-10.46,0-15.69,0ZM29,34.7c-.15-.23-.17-.29-.19-.29-7,0-13.92,0-20.87,0a.91.91,0,0,0-.71.45c-.38,1.19-.68,2.4-1,3.73H24.38a1.05,1.05,0,0,0,.67-.17C26.39,37.17,27.7,35.92,29,34.7Zm47.9-16.46.13-.31c-1.08-1-2.17-2-3.23-3a3,3,0,0,0-2.25-.86c-5,0-10.08,0-15.12,0H54.93c.27,1.12.56,2.07.72,3s.6,1.12,1.47,1.12c6,0,11.91,0,17.87,0Zm-59.7-.33.16.33h1.28c5.27,0,10.54,0,15.81,0,1.23,0,2.84.37,3.58-.26s.78-2.32,1.12-3.55c0-.06,0-.14-.06-.23a2.05,2.05,0,0,0-.34-.07c-5.55,0-11.1,0-16.65,0a1.59,1.59,0,0,0-1,.31C19.77,15.56,18.49,16.74,17.18,17.91ZM89.1,46.7c-.15-1.58-.33-3-.41-4.42,0-.93-.43-1.19-1.34-1.18-4.39,0-8.79,0-13.19,0-.32,0-.64.06-1.29.12A32.8,32.8,0,0,0,89.1,46.7ZM21,41.21H5.61l-.49,5.47A30.44,30.44,0,0,0,21,41.21ZM68.46,11.43A36.37,36.37,0,0,0,53.89,5.71l.54,5.72Zm-42.76,0h14c.17-1.88.34-3.73.53-5.71A37.5,37.5,0,0,0,25.7,11.41Z"/><path d="M5.09,49.54c2.58-.5,5-.77,7.33-1.46,10.82-3.23,18.67-10.17,24.19-19.86a46.71,46.71,0,0,0,6-21.49c.05-1.11.35-1.54,1.5-1.5,2.39.07,4.77,0,7.13,0,.32,2.7.46,5.26.93,7.75C55,27.82,62.63,39.17,76.32,46.05a31.13,31.13,0,0,0,11.6,3.17c.35,0,.69.09,1.2.16-1,15-7.2,27.08-19.94,35.07-14.08,8.82-28.82,9-43.14.61C12.65,77.16,6.13,64.85,5.09,49.54ZM63.82,62.88a14.77,14.77,0,0,0-.52-3.3A89.57,89.57,0,0,0,59.1,50c-2.91-5.37-6-10.63-8.19-16.37-.75-2-1.4-4-2.1-6-.29-.85-.58-1.73-1.68-1.77s-1.5.88-1.81,1.76a.56.56,0,0,0,0,.12c-1.85,4.5-3.52,9.09-5.6,13.48-2.17,4.58-4.78,8.94-7.1,13.45a17.23,17.23,0,0,0-1.85,10.91,14.67,14.67,0,0,0,5.36,9.08c1.38,1.16,2.27,2.43,2,4.31a3.26,3.26,0,0,0,.22,1.41c.25.71,2.08,1.82,2.65,1.48.39-.23.46-1,.65-1.55s-.45-1.48.59-1.81a7.4,7.4,0,0,1,.54,1.88c.06,2.39-.15,2.27,2.25,2.52l.23,0c.83.15,1.22-.19,1.18-1a3.89,3.89,0,0,1,0-1.08c.15-.59.39-1.16.59-1.74a6.24,6.24,0,0,1,.61,1.74c.08,2.28,0,2.28,2.29,2h.12a1.19,1.19,0,0,0,1.29-1.46,9.47,9.47,0,0,1,0-1.92,2.81,2.81,0,0,1,.54-.92,3,3,0,0,1,.49.89A13.09,13.09,0,0,0,52.51,81c.1.33.58.81.88.8A2.55,2.55,0,0,0,56,79a5,5,0,0,1,2.11-4.42A14.8,14.8,0,0,0,63.82,62.88Z"/><path d="M60,27.58h1.31c7.19,0,14.37,0,21.56,0a1.49,1.49,0,0,1,1.61,1c.41,1,.89,2,1.39,3.16-.52,0-.86.09-1.2.09-6.91,0-13.81,0-20.72,0a1.8,1.8,0,0,1-1.77-.91C61.56,29.85,60.84,28.82,60,27.58Z"/><path d="M8.21,31.82c.65-1.39,1.17-2.59,1.78-3.75a1.09,1.09,0,0,1,.82-.47c7.67,0,15.34,0,23.35,0-1,1.47-1.84,2.75-2.74,4a1,1,0,0,1-.75.24Z"/><path d="M56.86,20.83h1.31c6.76,0,13.51,0,20.27,0a1.87,1.87,0,0,1,1.79.9c.68,1,1.4,2,2.24,3.26-.61,0-1,.07-1.42.07-7,0-14.08,0-21.12,0a1.63,1.63,0,0,1-1.85-1.25C57.77,22.88,57.34,22,56.86,20.83Z"/><path d="M37.23,21c-.55,1.27-1.06,2.51-1.64,3.72-.09.2-.52.35-.8.35q-11.26,0-22.54,0a2.16,2.16,0,0,1-.48-.18c1-1.31,1.85-2.58,2.8-3.81.13-.17.51-.19.78-.19q10.67,0,21.34,0A3.49,3.49,0,0,1,37.23,21Z"/><path d="M65,34.36h5.1c5.23,0,10.46,0,15.69,0,.75,0,1.18.17,1.35.95.22,1,.54,2.06.87,3.27H86.71c-5.47,0-10.94,0-16.41,0a3,3,0,0,1-1.78-.69C67.37,36.83,66.34,35.68,65,34.36Z"/><path d="M29,34.7c-1.28,1.22-2.59,2.47-3.93,3.7a1.05,1.05,0,0,1-.67.17H6.17c.36-1.33.66-2.54,1-3.73a.91.91,0,0,1,.71-.45c7,0,13.91,0,20.87,0C28.81,34.41,28.83,34.47,29,34.7Z"/><path d="M76.88,18.24H75c-6,0-11.92,0-17.87,0-.87,0-1.32-.22-1.47-1.12s-.45-1.92-.72-3h1.48c5,0,10.08,0,15.12,0a3,3,0,0,1,2.25.86c1.06,1,2.15,2,3.23,3Z"/><path d="M17.18,17.91c1.31-1.17,2.59-2.35,3.92-3.48a1.59,1.59,0,0,1,1-.31c5.55,0,11.1,0,16.65,0a2.05,2.05,0,0,1,.34.07c0,.09.07.17.06.23-.34,1.23-.32,2.87-1.12,3.55s-2.35.26-3.58.26c-5.27,0-10.54,0-15.81,0H17.34Z"/><path d="M89.1,46.7a32.8,32.8,0,0,1-16.23-5.46c.65-.06,1-.12,1.29-.12,4.4,0,8.8,0,13.19,0,.91,0,1.29.25,1.34,1.18C88.77,43.7,89,45.12,89.1,46.7Z"/><path d="M21,41.21A30.44,30.44,0,0,1,5.12,46.68l.49-5.47Z"/><path d="M68.46,11.43h-14l-.54-5.72A36.37,36.37,0,0,1,68.46,11.43Z"/><path d="M25.7,11.41A37.5,37.5,0,0,1,40.25,5.7c-.19,2-.36,3.83-.53,5.71Z"/><path class="cls-1" d="M63.82,62.88a14.8,14.8,0,0,1-5.7,11.7A5,5,0,0,0,56,79a2.55,2.55,0,0,1-2.62,2.82c-.3,0-.78-.47-.88-.8a13.09,13.09,0,0,1-.07-1.67,3,3,0,0,0-.49-.89,2.81,2.81,0,0,0-.54.92,9.47,9.47,0,0,0,0,1.92,1.19,1.19,0,0,1-1.29,1.46H50c-2.25.3-2.21.3-2.29-2a6.24,6.24,0,0,0-.61-1.74c-.2.58-.44,1.15-.59,1.74a3.89,3.89,0,0,0,0,1.08c0,.84-.35,1.18-1.18,1l-.23,0c-2.4-.25-2.19-.13-2.25-2.52a7.4,7.4,0,0,0-.54-1.88c-1,.33-.38,1.21-.59,1.81s-.26,1.32-.65,1.55c-.57.34-2.4-.77-2.65-1.48a3.26,3.26,0,0,1-.22-1.41c.22-1.88-.67-3.15-2-4.31a14.67,14.67,0,0,1-5.36-9.08,17.23,17.23,0,0,1,1.85-10.91c2.32-4.51,4.93-8.87,7.1-13.45,2.08-4.39,3.75-9,5.6-13.48a.56.56,0,0,1,0-.12c.31-.88.63-1.79,1.81-1.76s1.39.92,1.68,1.77c.7,2,1.35,4,2.1,6,2.16,5.74,5.28,11,8.19,16.37a89.57,89.57,0,0,1,4.2,9.63A14.77,14.77,0,0,1,63.82,62.88Zm-19.27,2a5.29,5.29,0,0,0-5.25-5.38,5.4,5.4,0,1,0,5.25,5.38Zm10.34,5.42a5.4,5.4,0,1,0-5.26-5.43A5.37,5.37,0,0,0,54.89,70.29ZM47.25,72l1.56,1.67L50,72.58a19.12,19.12,0,0,0-1.57-1.43C48.29,71.1,47.82,71.57,47.25,72Zm-.71-.32c-.16-.12-.43-.51-.73-.54-.71-.07-1.69.91-1.48,1.53a1.57,1.57,0,0,0,1.07,1C46.45,73.67,46.4,72.74,46.54,71.7Z"/><path d="M44.55,64.87a5.31,5.31,0,0,1-5.21,5.42,5.4,5.4,0,0,1,0-10.8A5.29,5.29,0,0,1,44.55,64.87Z"/><path d="M54.89,70.29a5.4,5.4,0,1,1,5.32-5.37A5.39,5.39,0,0,1,54.89,70.29Z"/><path d="M47.25,72c.57-.45,1-.92,1.13-.87A19.12,19.12,0,0,1,50,72.58l-1.14,1.11Z"/><path d="M46.54,71.7c-.14,1-.09,2-1.14,1.94a1.57,1.57,0,0,1-1.07-1c-.21-.62.77-1.6,1.48-1.53C46.11,71.19,46.38,71.58,46.54,71.7Z"/></svg>