<?xml version="1.0" encoding="UTF-8"?><svg id="a" xmlns="http://www.w3.org/2000/svg" viewBox="0 0 94.85628 96.20295"><defs><style>.b{fill:none;stroke:#000;stroke-miterlimit:10;}</style></defs><polygon class="b" points="27.41933 94.64486 33.4378 94.64486 67.38347 94.64486 67.38347 28.88296 27.41933 28.88296 27.41933 94.64486"/><polygon class="b" points="33.4378 94.64486 33.4378 35.34215 61.1159 35.34215 61.1159 94.64486 38.54952 94.64486 33.4378 94.64486"/><line class="b" x1="38.54952" y1="94.64486" x2="38.54952" y2="40.45387"/><line class="b" x1="43.53656" y1="94.64486" x2="43.53656" y2="35.34215"/><line class="b" x1="51.01713" y1="94.64486" x2="51.01713" y2="35.34215"/><line class="b" x1="56.00418" y1="94.64486" x2="56.00418" y2="40.45387"/><line class="b" x1="38.54952" y1="28.88296" x2="38.54952" y2="35.34215"/><line class="b" x1="56.00418" y1="28.88296" x2="56.00418" y2="35.34215"/><polyline class="b" points="65.06413 28.88296 65.06413 20.46464 29.5989 20.46464 29.5989 28.88296"/><line class="b" x1="36.39537" y1="28.88296" x2="36.39537" y2="20.46464"/><line class="b" x1="58.02051" y1="28.88296" x2="58.02051" y2="20.46464"/><path class="b" d="M34.41822,20.46464c.94557-10.24182,4.84363-17.00175,12.85863-18.90655,8.07454,1.93944,11.92746,8.72525,12.8226,18.90655"/><path class="b" d="M36.93395,20.46464c1.17321-6.47399,4.28197-10.76577,10.3429-11.72916,5.69272,1.14087,9.10548,5.05059,10.23825,11.72916"/><path class="b" d="M39.52237,20.46464c1.80978-3.03795,4.37716-4.44341,7.70215-4.21641,3.41808-.19457,6.00881,1.29174,7.89155,4.21641"/><line class="b" x1="41.17648" y1="18.3446" x2="36.1714" y2="12.02411"/><line class="b" x1="44.51469" y1="16.46888" x2="41.45491" y2="4.30315"/><line class="b" x1="49.85828" y1="16.46888" x2="53.09547" y2="4.30315"/><line class="b" x1="53.35248" y1="18.3446" x2="58.37652" y2="12.02411"/></svg>