<?xml version="1.0" encoding="UTF-8"?><svg id="a" xmlns="http://www.w3.org/2000/svg" viewBox="0 0 94.85628 96.20295"><defs><style>.b{fill:none;stroke:#000;stroke-miterlimit:10;}</style></defs><path class="b" d="M4.79557,66.90607H90.00723v-18.58968h-7.30693v-5.91001h-6.87711c-7.6239-8.24083-16.95515-12.90921-28.4218-13.10949-12.5239,.75653-21.78573,5.01665-28.20689,13.21694h-6.98456v5.58765H4.79557v18.80459Z"/><path class="b" d="M20.11859,66.90606c1.8123-16.15457,10.34135-25.61303,27.28281-26.68492,16.97743,1.61213,26.02683,10.50711,27.14824,26.68492"/><line class="b" x1="28.39314" y1="66.90607" x2="28.39314" y2="47.60923"/><line class="b" x1="36.02125" y1="66.90606" x2="36.02125" y2="42.66398"/><circle class="b" cx="47.7613" cy="48.10147" r="4.467"/><line class="b" x1="43.63104" y1="66.90607" x2="43.63104" y2="50.09249"/><line class="b" x1="43.63104" y1="40.61922" x2="43.63104" y2="46.39912"/><line class="b" x1="51.49289" y1="66.90607" x2="51.49289" y2="50.5539"/><line class="b" x1="51.49289" y1="40.77916" x2="51.49289" y2="45.65008"/><line class="b" x1="59.12575" y1="66.90607" x2="59.12575" y2="42.99534"/><line class="b" x1="66.75862" y1="66.90607" x2="66.75862" y2="48.10147"/></svg>