<svg id="Layer_3" data-name="Layer 3" xmlns="http://www.w3.org/2000/svg" viewBox="0 0 94.86 96.2"><path d="M79.35,78.17c-2.6-.36-5.24-.4-7.66-1.16a11.16,11.16,0,0,0-4.83-.85A7.24,7.24,0,0,1,61,73.82,5,5,0,0,1,60,72c-.57-1.62-1-3.26-1.6-4.88a1.59,1.59,0,0,0-.63-.84c-1.39-.7-2.79-1.38-4.23-2-.35-.13-.88.16-1.31.32-3.32,1.24-6.57,2.72-10,3.71C37.24,69.84,32,69.51,26.83,69l-1.28-.14a8.71,8.71,0,0,0,.51,5.31,13.19,13.19,0,0,0,3.52,5.47c2.4,2.08,1.73,5.52-1.14,6.88-2.2,1-4.22,1.11-6.08-.64a.64.64,0,0,0-.3-.2c-2.43-.34-2.94-2.27-3.48-4.19-.25-.88-.55-1.74-.88-2.82-2.4,3.27-6.86,2.94-8.52-.33a2.59,2.59,0,0,1-.1-.94,6.9,6.9,0,0,0-.18-1.89,4.14,4.14,0,0,1,.91-4.23c.63-.79.46-1.37-.11-2.11-1.85-2.4-3.78-4.75-5.39-7.29-2-3.24-2-6.9-1-10.44.5-1.78-.36-2.64-1.34-3.65-.22-.23-.5-.4-.74-.61A3.08,3.08,0,0,1,.08,44.09a3,3,0,0,1,2.39-2.27,2.34,2.34,0,0,0,1-.59c2.22-2.19,4.72-2.39,7.2-.59,7.65-4.6,16.31-6,24.82-8-3.49-3.1-3.72-3.88-2-6.56-4.29-3.32-4.6-6.19-1.06-8.59a18.16,18.16,0,0,1-1.86-3.16A3.94,3.94,0,0,1,35.21,9c1.64.32,3.22,1.06,4.86,1.24,4.37.48,8.74,1,13.13,1.07,6,.14,8.55,3.13,7.47,9.26-.39,2.24-1,4.47-.36,6.76,0,.12,0,.24.07.35.77,3.49,1.09,3.67,4.59,4.3s6.86,1.47,10.37,2.23l5.89-6.52L82.05,31l5.1-5.41c0,.66,0,1,0,1.37,0,3.44.13,6.88,0,10.31a20.64,20.64,0,0,1-.65,5c-1,3.92,1.91,8.3,5.9,8.53.75,0,1.51.13,2.41.21-.52,1.75-1,3.42-1.5,5.09-.33,1.08-.39,2.63-1.14,3.13A14.77,14.77,0,0,1,87.36,61a17.31,17.31,0,0,1-3.82.18c-1.32,0-2.64-.11-4-.08s-2.54.16-3.78.24A29.63,29.63,0,0,1,77,65c.4,2.07.53,4.19.9,6.26S78.8,75.59,79.35,78.17ZM53.51,33.45a3.43,3.43,0,0,1-.49.09,136.29,136.29,0,0,0-28.25,4.37c-6,1.7-12,3.4-16.35,8.42A1.73,1.73,0,0,1,6,46.48c1.59-.37,3.26-.47,3.39-2.42a1.68,1.68,0,0,0-1.41-1.84,2.11,2.11,0,0,0-1.49.14,26.57,26.57,0,0,0-2.31,2.4l-1.37-.18-.12.35a14.46,14.46,0,0,1,1.87,1.4C5.3,47.11,6,48,6.69,48.9a53.91,53.91,0,0,0-1.23,5.67,8.58,8.58,0,0,0,2.43,7.59,2.74,2.74,0,0,1,.38.45c1.35,1.82,2.67,3.66,4.05,5.45.76,1,.93,3.29.12,4.19a3.06,3.06,0,0,0-.84,3.27,5.6,5.6,0,0,1,.16,1.18,2.6,2.6,0,0,0,2.14,1.78c1,.06,1-.74,1.22-1.36.29-1,.5-1.93.75-2.94,2.81,1.86,5.22,3.79,5.49,7.3a.86.86,0,0,0,.06.23c.26.94.69,1.57,1.73.89,1.7,2.26,2.25,2.45,4.17,1.48,1.22-.61,1.33-1.61.38-2.58a17.63,17.63,0,0,1-2.44-2.89c-2.12-3.43-3.29-7.09-2.19-11.18.41-1.53.41-1.51,2.05-1.3a48.2,48.2,0,0,0,14.34.13,42.76,42.76,0,0,0,12.79-4.63,1.9,1.9,0,0,1,1.89-.06c1.74.8,3.52,1.5,5.25,2.3a1.72,1.72,0,0,1,.79.83c.76,1.83,1.58,3.66,2.16,5.56a4.52,4.52,0,0,0,4.83,3.26,2.65,2.65,0,0,0,1.53-1.11c.15-.23-.26-1-.57-1.33a14.3,14.3,0,0,1-3-6.08c.87.17,1.53.26,2.17.42,2.91.76,3.13,1.12,2.68,4.06A4.74,4.74,0,0,0,75.57,75c-.13-1.68-.26-3.35-.4-5-.31-3.6-1-7-3.87-9.61A19.23,19.23,0,0,1,69.36,58a7.37,7.37,0,0,1,2.38,0c2,.19,4,.47,6,.55A55.86,55.86,0,0,0,84,58.49a52.3,52.3,0,0,0,5.41-.81,1.16,1.16,0,0,0,.82-.59c.4-1.19.69-2.42,1-3.67C86.87,52.67,85,49.68,84,45.81a9,9,0,0,1,.12-5.05c.85-2.61.32-5.32.16-8.36l-3.59,4.35-1-3.66-3.48,4.75a43.68,43.68,0,0,0-12.16-3.27c-4.48-.69-4.59-.74-6-5.08-.08-.23-.13-.46-.2-.69-1-3-.31-6,.16-9,.65-4.29-.56-5.66-4.87-5.7a67.5,67.5,0,0,1-14.53-1.36c-1.35-.32-2.68-.81-4-1s-2.18.76-1.39,2.06a7.31,7.31,0,0,0,2.43,2.36A25.35,25.35,0,0,0,44.72,19c.39.06.78.14,1.16.21l0,.29c-1.63.17-3.25.42-4.88.47-2.23.08-4.47,0-6.71,0-1.4,0-2.05,1-1.21,2.12a5.41,5.41,0,0,0,2.33,1.7,10.06,10.06,0,0,0,3.54.51c2.93-.06,5.86-.28,8.88-.45a18.48,18.48,0,0,1-3.36,1.81c-2.55.78-5.18,1.29-7.75,2a6.56,6.56,0,0,0-1.54.91,6.64,6.64,0,0,0,1.1,1.3,6.66,6.66,0,0,0,4.86.77c2-.26,4.06-.67,6.48-1.09-1.29,1-2.35,1.85-3.37,2.72a3.06,3.06,0,0,0-.52.88,3.49,3.49,0,0,0,.9.46A6.41,6.41,0,0,0,50,32c2.07-1.84,3.1-1.53,3.61,1.22C53.58,33.26,53.55,33.29,53.51,33.45Z"/><path d="M5.78,45.13c.21-1.08.68-1.75,1.73-1.71.22,0,.65.54.6.68C7.69,45.16,6.75,45.07,5.78,45.13Z"/></svg>