<?xml version="1.0" encoding="UTF-8"?><svg id="a" xmlns="http://www.w3.org/2000/svg" viewBox="0 0 99.60572 96.20295"><defs><style>.b{fill:#fdfdfd;}.c{fill:#606060;}</style></defs><path d="M57.67828,13.96477c1.63404,.47561,3.33997,.42784,5.00569,.68568,10.27991,1.59126,19.65187,5.20864,27.38649,12.3777,4.9085,4.54957,8.20959,10.03677,9.23133,16.76011,.9564,6.29336-.38735,12.16061-3.42574,17.64441-5.0775,9.16405-12.97227,14.93287-22.79332,18.06936-11.25627,3.59487-22.62704,3.68374-33.94103,.17792-6.84339-2.12054-12.39436-6.31258-17.35675-11.35608-4.50995-4.58366-8.6004-9.5708-13.37436-13.90055-2.77697-2.51858-5.55462-5.0364-8.41059-7.62586,7.2277-3.6694,11.97569-9.94615,17.27807-15.65085,7.77766-8.36779,17.07465-14.19698,28.45885-16.35945,1.57826-.29979,3.21157-.27358,4.74467-.8224h7.1967Zm30.31424,38.27044c-.33459-.55887-.77128-1.01166-1.35907-1.30745-.85233-.30564-1.73414-.09306-2.60091-.14556-.34341-.02081-.52083,.16207-.49789,.5047,.08171,1.22038-.20459,2.45741,.16563,3.6645,.88439,1.76968,2.50632,1.43991,4.03719,1.47699,.42268,.01024,.20973-.72303,.86534-.42402,1.31363,.59912,2.73068,.79313,3.9838-.24428,1.09656-.9078,2.30237-1.69209,3.22674-2.79765,.04308-.05151,.02744-.15379,.03529-.23281,.13653-1.37398-.01041-2.62517-1.44158-3.31853-1.60895-1.68775-3.22068-3.36772-5.90126-2.81594-.11108,.02287-.23645-.0236-.35516-.03776-.00115-.99343,.56068-1.39113,1.48613-1.40157,.58876-.00664,1.17755-.01036,1.76633-.0154l-.0286-.01423c.88591,1.63104,2.40539,1.5647,3.93644,1.47041,.25001-.0154,.4256-.07226,.52742-.35906,.54223-1.52739-.17346-4.10523-1.442-5.10499-.86377-.24527-1.76045,.0173-2.61262-.14319-.46927-.08838-.3588,.56337-.83199,.40351-2.3181-.78314-4.49431-.74724-6.27053,1.25351-.18348,.20666-.43134,.35477-.63801,.54252-.70808,.64329-.77656,3.19406-.06411,3.81471,.9008,.78473,1.84712,1.51724,2.7738,2.27228,1.09722,1.67859,2.76479,1.68253,4.48654,1.52738,.19342,1.07262-.3918,1.45056-1.33946,1.46764-.63539,.01146-1.27161-.02223-1.90746-.03571Zm-20.32915,2.5753c.5745,1.12677,1.40871,1.73407,2.75741,1.58768,.90548-.09828,1.84694-.13122,2.74341,.00158,3.18733,.47216,5.82032-.44994,8.0017-2.82978,.43238-.47172,.73578-.84877,.71981-1.51587-.04095-1.71145-.11981-3.43316,.01862-5.13433,.11918-1.46467-.43255-2.4361-1.60319-3.17202-.61962-.558-1.27222-1.08408-1.85087-1.68172-.80301-.82938-1.72295-1.12363-2.88325-1.07322-1.99173,.08653-3.98996,.02392-5.98546,.02392-2.37508,0-2.55882,.25151-1.9488,2.6674,.4868,.62064,.82237,1.42547,1.7858,1.4656,.01649,1.93939-.01578,3.88094,.0698,5.81729,.0436,.98653-.14498,1.51863-1.26585,1.32229-.31407-.05501-.79593-.13102-.75071,.44714,.05409,.69171-.2312,1.41722,.19158,2.07405Zm-14.3837-9.68482c.01634,2.03008-.00343,4.06142,.06653,6.08965,.02858,.82849-.2046,1.15334-1.05848,1.07902-.35676-.03105-1.00366-.28831-1.01739,.42293-.01337,.69231-.23611,1.42213,.16809,2.08713,.47272,.7268,.89037,1.56211,1.91628,1.56699,3.86071,.01837,7.72155,.00802,11.58234,.00526,.31487-.00022,.61024,.01638,.76291-.39417,.57368-1.54279-.15627-4.0091-1.53225-5.06571-.78275-.31437-1.62275,.02938-2.41233-.2096,.03562-1.49032,.29887-3.06507-1.44552-3.89508-.75582-.44919-1.60075-.06125-2.3839-.25364-.17044-1.08306,.19866-1.59246,1.37672-1.41974,.61108,.08959,1.24706,.00938,1.87179,.00588l-.0264-.01199c.99337,1.38603,2.44062,1.90267,4.05619,1.46143,.20502-.056,.40815-.10782,.41053-.34687,.0119-1.19767,.11894-2.41-.03397-3.58779-.09015-.69436-.81868-1.1289-1.40854-1.54-4.1081-.23224-8.2197-.04136-12.32919-.10323-.36905-.00556-.64033,.09371-.59459,.53097,.07348,.7024-.202,1.43638,.18991,2.10968,.5044,.62665,.8349,1.47118,1.84126,1.46888Zm-17.71965,.01683c.01366,1.98308-.01224,3.96759,.05897,5.94861,.03188,.88704-.14859,1.34431-1.1468,1.20085-.38078-.05472-.96948-.19177-.92724,.53508,.03828,.65878-.18621,1.34284,.16733,1.9748,.60035,1.09838,1.42682,1.70857,2.77896,1.60028,1.30601-.1046,2.62696-.02264,3.94135-.02266,1.88171-.00003,2.35302-.56616,1.84222-2.38241-.2087-.74209-.86801-1.20005-1.4908-1.63089l-.58954-.14681c-.15221-1.17522,.26799-1.77433,1.53619-1.54244,.1486,.02717,.31046-.01824,.46617-.03,.79278,1.3793,1.09236,2.99543,2.06103,4.29024,.71479,1.38304,1.93512,1.51331,3.32132,1.46179,2.03504-.07563,2.3233-.33406,1.92777-2.31823-.15752-.79021-.82726-1.21369-1.46094-1.62523l-.94901-.24254c-.07446-.18357-.12048-.38606-.22798-.54767-.70729-1.06332-.66143-1.913,.5295-2.64548,.45718-.28119,1.06875-.55001,1.12768-1.28003,.12881-1.59576,.07894-3.10371-1.55219-4.01055-.92733-.80646-1.85937-1.60761-2.77896-2.42279-.25868-.2293-.54535-.29199-.87491-.29154-3.02081,.00412-6.04163,.00337-9.06245,.00123-.3759-.00027-.75684-.00536-.7167,.52929,.05278,.7031-.17667,1.43002,.17339,2.10834,.49419,.64623,.8901,1.41425,1.84565,1.48876Zm57.91419-8.1497c-.05241-.14922-.08637-.30827-.15992-.44623-2.20043-4.12801-5.28297-7.49617-8.99468-10.29574-6.34565-4.78621-13.55984-7.54283-21.3369-8.8708-7.29874-1.2463-14.55005-1.14854-21.68937,1.0942-9.70934,3.05007-17.50473,8.85939-24.06614,16.50572-3.48312,4.05905-6.9025,8.19335-11.24584,11.41089-.2297,.17016-.46274,.35707-.18584,.67494,.43028,1.3799,1.00123,2.60467,2.21241,3.5731,2.05715,1.64484,3.9337,3.5057,5.69391,5.47855,4.04226,4.53058,8.05298,9.09259,12.60007,13.14041,4.35188,3.87405,9.19385,6.91929,14.84479,8.48793,9.26689,2.57239,18.61888,2.77563,27.92619,.35755,9.95235-2.58568,18.20497-7.82256,24.14117-16.38916,1.08748-1.56936,1.05554-1.91679-.11412-3.57556-4.43347-.02309-8.86701-.0396-13.30034-.07846-.49713-.00436-.81206,.27027-1.16468,.52504-1.97418,1.42638-4.00399,2.76785-6.17621,3.87529-10.49217,5.34909-21.17891,6.13417-32.00843,1.12859-4.39278-2.03041-7.98371-5.0531-10.14704-9.52567,.14153-.64233,.02182-1.26894-.1111-1.89555-.86364-4.07129-.11091-7.84027,2.11651-11.33591,2.28946-3.59301,5.34008-6.38583,9.17782-8.18753,9.48602-4.45339,19.13657-4.42999,28.79057-.59307,3.67189,1.45937,6.95307,3.59633,9.33296,6.86968,.363,.49928,.82029,.40845,1.28225,.40918,3.75586,.00589,7.51175,.00332,11.26763,.00332q2.51813,0,1.31435-2.34072Z"/><path class="b" d="M30.30322,54.06341c2.16334,4.47257,5.75426,7.49525,10.14704,9.52567,10.82953,5.00558,21.51627,4.2205,32.00843-1.12859,2.17222-1.10743,4.20203-2.4489,6.17621-3.87529,.35262-.25477,.66755-.5294,1.16468-.52504,4.43334,.03886,8.86687,.05536,13.30029,.07837-3.48618,5.72957-8.27969,10.10188-14.0886,13.36383-9.45184,5.30761-19.63404,6.79403-30.30683,5.64961-8.20656-.87998-15.47655-3.89226-21.74131-9.30606-3.48343-3.01026-6.63904-6.34291-9.72681-9.74129-3.00629-3.30871-5.82082-6.80205-9.33764-9.60902-.65849-.52558-1.17868-1.28511-2.10318-1.42979-.2769-.31787-.04386-.50478,.18584-.67494,4.34334-3.21754,7.76272-7.35184,11.24584-11.41089,6.56141-7.64633,14.3568-13.45565,24.06614-16.50572,7.13933-2.24273,14.39063-2.34049,21.68937-1.0942,7.77706,1.32797,14.99125,4.08459,21.3369,8.8708,3.71172,2.79956,6.79425,6.16772,8.99468,10.29574,.07355,.13796,.10751,.29701,.1598,.44631-4.39716,.01281-8.79422,.02339-13.19123,.04208-.37538,.0016-.67624-.04602-.92266-.39406-1.89992-2.68337-4.52928-4.47959-7.41805-5.90733-7.62439-3.76824-15.64282-4.55393-23.91266-2.88095-6.68518,1.3524-12.32793,4.49112-16.38703,10.12976-3.66235,5.08749-4.14873,10.44964-1.33923,16.08101Z"/><path class="c" d="M5.79551,47.06581c.9245,.14468,1.4447,.90422,2.10318,1.42979,3.51683,2.80698,6.33135,6.30031,9.33764,9.60902,3.08777,3.39838,6.24338,6.73103,9.72681,9.74129,6.26476,5.41379,13.53475,8.42608,21.74131,9.30606,10.67279,1.14442,20.85499-.342,30.30683-5.64961,5.8089-3.26195,10.60242-7.63426,14.0886-13.36383,1.16972,1.65886,1.20166,2.00629,.11418,3.57565-5.9362,8.5666-14.18882,13.80348-24.14117,16.38916-9.30731,2.41809-18.6593,2.21484-27.92619-.35755-5.65094-1.56863-10.49291-4.61388-14.84479-8.48793-4.54708-4.04782-8.55781-8.60982-12.60007-13.14041-1.76021-1.97285-3.63677-3.83371-5.69391-5.47855-1.21118-.96843-1.78213-2.1932-2.21241-3.5731Z"/><path class="c" d="M30.30322,54.06341c-2.8095-5.63137-2.32312-10.99352,1.33923-16.08101,4.0591-5.63864,9.70185-8.77736,16.38703-10.12976,8.26984-1.67298,16.28828-.88729,23.91266,2.88095,2.88877,1.42774,5.51813,3.22396,7.41805,5.90733,.24641,.34803,.54728,.39565,.92266,.39406,4.39702-.01869,8.79407-.02927,13.19123-.04208q1.20389,2.34064-1.31423,2.34064c-3.75588,0-7.51176,.00257-11.26763-.00332-.46195-.00072-.91924,.0901-1.28225-.40918-2.37989-3.27335-5.66107-5.41031-9.33296-6.86968-9.654-3.83693-19.30455-3.86032-28.79057,.59307-3.83774,1.8017-6.88837,4.59452-9.17782,8.18753-2.22741,3.49563-2.98015,7.26462-2.11651,11.33591,.13292,.6266,.25263,1.25322,.1111,1.89555Z"/><path class="b" d="M33.71227,54.80186c-.35354-.63196-.12905-1.31602-.16733-1.9748-.04223-.72685,.54647-.5898,.92724-.53508,.99821,.14346,1.17868-.31382,1.1468-1.20085-.07121-1.98102-.04531-3.96552-.05896-5.94866,.08173-1.89632,.16477-1.47368-1.37958-1.52336-.15483-.00498-.3107,.02234-.46609,.03466-.35006-.67832-.12062-1.40524-.17339-2.10834-.04014-.53465,.3408-.52956,.7167-.52929,3.02082,.00214,6.04164,.00289,9.06245-.00123,.32956-.00045,.61623,.06224,.87491,.29154,.91959,.81518,1.85164,1.61633,2.77895,2.42286,.16577,1.8492-.019,3.54442-1.94332,4.49332-.23553,.11615-.34403,.31743-.22759,.58986,.45008,1.05308,.88331,2.11377,1.35564,3.15676,.18871,.41671,.58393,.31729,.93829,.24371,.31634,.08085,.63267,.16169,.94897,.24284l-.05032,.56243c-.10107,.49932-.11443,.99793,.01209,1.49542-.21095,.50088-.65739,.33713-1.02922,.35133-.90645,.03462-1.81367,.0494-2.72057,.07217-.96875-1.29479-1.26833-2.91092-2.06111-4.29023-.49611-1.26339-1.92181-1.89003-3.19535-1.39893-.10165,.0392-.26624,.1202-.26736,.18412-.01529,.87601-.16293,1.7938,.05443,2.61316,.12919,.48699,.91083,.18438,1.40591,.17409,.19651,.04894,.39302,.09788,.58942,.14658-.00983,.43695-.075,.88157-.01764,1.30979,.11695,.87317-.15812,1.16372-1.0867,1.12858-1.98628-.07515-3.97786-.01008-5.96727-.00245Zm10.03297-9.65506c.18837-.97269-.2619-1.43418-1.20398-1.45209-1.03583-.01969-2.07234-.0084-3.1085-.00157-.22852,.00151-.62056-.07741-.63881,.15626-.06762,.86568-.19148,1.77849,.01532,2.59526,.12937,.51097,.90193,.18887,1.39105,.20032,.69736,.24819,1.41847,.10075,2.12608,.10375,1.2265,.00521,1.46805-.29741,1.41884-1.60194Z"/><path class="b" d="M61.75566,50.70706c.78929,.23912,1.62929-.10464,2.41203,.20962-.00635,.95265-.0773,1.9107,.00003,2.85663,.07057,.86336-.24489,1.03162-1.05464,1.02429-3.89121-.03524-7.78305-.00206-11.67466,.00683-.4042-.665-.18146-1.39482-.16809-2.08713,.01373-.71124,.66062-.45398,1.01739-.42293,.85388,.07432,1.08706-.25053,1.05848-1.07902-.06996-2.02824-.05019-4.05957-.06653-6.08967q.09106-1.53159-1.38112-1.50696c-.15355,.00267-.30677,.02493-.46015,.0381-.39191-.6733-.11644-1.40728-.18991-2.10968-.04574-.43726,.22554-.53652,.59459-.53097,4.10949,.06187,8.22109-.12901,12.32914,.10293-.00788,.279-.01753,.55826-.02321,.8376-.02029,.99481,.32681,2.2643-.15791,2.90999-.52193,.69526-1.86963,.0891-2.84304,.26593l.0264,.01199c.03627-1.42042-.73455-1.73746-1.9931-1.54585-.66367,.10104-1.35549,.01045-2.03432,.02247-.22376,.00396-.60761-.09534-.62901,.16306-.07198,.86885-.20411,1.78513,.00164,2.60421,.11664,.46433,.91225,.16526,1.40629,.16998,.78315,.19239,1.62808-.19555,2.3839,.25366q-.14317,2.42059-2.5673,2.42245c-.23933,.00018-.47972,.01491-.71775-.00255-.38896-.02853-.61817,.09376-.58217,.52753,.06848,.825-.15663,1.6673,.14593,2.47865l.00746,.0023,1.31832-.03155c.585,.02133,1.17962-.01663,1.75301,.07632,1.19189,.19322,1.54355-.33981,1.35646-1.42292l.73185-.15531Z"/><path class="b" d="M67.63275,43.68414c-.61003-2.41589-.42628-2.6674,1.9488-2.6674,1.9955,0,3.99373,.06261,5.98546-.02392,1.1603-.0504,2.08024,.24385,2.88325,1.07322,.57865,.59765,1.23124,1.12373,1.85087,1.68167-.01116,2.0301-.14429,4.06915,.00338,6.08768,.12829,1.75371-.36264,2.96869-1.84103,3.98937-.89695,.61926-1.69233,1.0024-2.79691,.97728-2.66629-.06065-5.33529-.00206-8.00319,.00845-.42278-.65683-.13749-1.38235-.19158-2.07405-.04522-.57816,.43664-.50215,.75071-.44714,1.12087,.19635,1.30945-.33576,1.26585-1.32229-.08559-1.93634-.05331-3.87789-.0698-5.81733q.10889-1.58752-1.44584-1.52604c-.11395,.00458-.22668,.03961-.33997,.06048Zm9.49373,1.46335c.23491-1.0575-.31456-1.48465-1.27223-1.52426-.79712-.03298-1.60112,.04538-2.39391-.02176-.7873-.06668-.91759,.27248-.90359,.96852,.04173,2.07476,.01484,4.15091,.015,6.22651q.00012,1.54553,1.55885,1.40617c.62999,.02353,1.26203,.08958,1.88943,.05938,.71804-.03456,1.18001-.39198,1.16981-1.1896-.02524-1.97493-.04275-3.94996-.06336-5.92495Z"/><path class="b" d="M83.70029,54.95139c-.37022-1.20709-.08393-2.44412-.16563-3.6645-.02294-.34263,.15448-.52551,.49789-.5047,.86677,.0525,1.74858-.16007,2.60092,.1456-.10469,1.01534,.44297,1.35279,1.35906,1.30742,.63585,.01349,1.27206,.04717,1.90746,.03571,.94766-.01708,1.53288-.39503,1.3394-1.46715,.22222-1.07722-.31467-1.54578-1.3171-1.56362-1.05592-.0188-2.11288,.02135-3.16939,.03575-.92668-.75504-1.873-1.48755-2.7738-2.27228-.71245-.62064-.64397-3.17141,.06411-3.81471,.20666-.18775,.45453-.33586,.63801-.54252,1.77622-2.00075,3.95244-2.03665,6.27053-1.25351,.47319,.15986,.36272-.49189,.83199-.40351,.85217,.16048,1.74886-.10208,2.61257,.14283-.00975,.27771-.02248,.55571-.02862,.83385-.02188,.99061,.32234,2.25366-.16042,2.89821-.52266,.69784-1.86202,.10084-2.83276,.26193l.0286,.01423c-.10221-1.16708-.74261-1.64704-1.89714-1.532-.47008,.04684-.94871,.01062-1.42343,.00753-1.04586-.0068-1.45506,.51156-1.44418,1.54996,.0112,1.06965,.43402,1.55034,1.5123,1.39148,.11871,.01416,.24408,.06062,.35516,.03776,2.68058-.55178,4.29231,1.12819,5.90123,2.81623,.29224,2.03428-.41804,3.54445-2.16589,4.69871-.73606,.48608-1.38497,.89017-2.26671,.75951-1.02786-.1523-2.19953-.31122-3.07382-.26401-.9908,.05351-2.15992,.03064-3.20033,.34579Z"/><path class="c" d="M67.66337,54.81051c2.6679-.01051,5.33691-.06911,8.00319-.00845,1.10458,.02512,1.89996-.35802,2.79691-.97728,1.4784-1.02069,1.96933-2.23566,1.84103-3.98937-.14767-2.01853-.01455-4.05758-.00338-6.08768,1.17064,.73596,1.72238,1.70739,1.60319,3.17206-.13843,1.70117-.05957,3.42288-.01862,5.13433,.01597,.6671-.28743,1.04415-.71981,1.51587-2.18139,2.37984-4.81437,3.30194-8.0017,2.82978-.89647-.1328-1.83793-.09986-2.74341-.00158-1.3487,.14639-2.1829-.46091-2.75741-1.58768Z"/><path class="c" d="M51.43842,54.80442c3.89161-.00889,7.78345-.04206,11.67466-.00683,.80975,.00733,1.12522-.16093,1.05464-1.02429-.07733-.94593-.00638-1.90398-.00003-2.85663,1.37598,1.05673,2.10594,3.52304,1.53226,5.06583-.15267,.41054-.44804,.39394-.76291,.39417-3.86079,.00277-7.72163,.01311-11.58234-.00526-1.02591-.00488-1.44356-.8402-1.91628-1.56699Z"/><path class="c" d="M83.70029,54.95139c1.04041-.31515,2.20954-.29228,3.20033-.34579,.87429-.04722,2.04596,.1117,3.07382,.26401,.88173,.13066,1.53064-.27343,2.26671-.75951,1.74785-1.15426,2.45813-2.66443,2.16589-4.69871,1.43121,.69307,1.57814,1.94425,1.44162,3.31823-.00786,.07902,.00778,.1813-.03529,.23281-.92437,1.10556-2.13018,1.88985-3.22674,2.79765-1.25312,1.03742-2.67017,.8434-3.9838,.24428-.65561-.29901-.44266,.43425-.86534,.42402-1.53087-.03708-3.1528,.29269-4.03719-1.47699Z"/><path class="c" d="M33.71227,54.80186c1.98941-.00763,3.98099-.0727,5.96727,.00245,.92858,.03514,1.20366-.25542,1.0867-1.12858-.05736-.42821,.00782-.87283,.01764-1.30979,.62291,.43108,1.28222,.88904,1.49092,1.63113,.51079,1.81625,.03948,2.38238-1.84222,2.38241-1.31439,.00003-2.63534-.08194-3.94135,.02266-1.35214,.10829-2.17861-.50191-2.77896-1.60028Z"/><path class="c" d="M47.09699,52.21297c-.35435,.07359-.74957,.173-.93829-.24371-.47233-1.04299-.90555-2.10368-1.35564-3.15676-.11644-.27244-.00794-.47372,.22759-.58986,1.92432-.9489,2.10909-2.64412,1.94332-4.49332,1.63114,.90677,1.68101,2.41472,1.5522,4.01048-.05893,.73002-.6705,.99884-1.12768,1.28003-1.19092,.73248-1.23679,1.58215-.5295,2.64548,.1075,.16161,.15352,.36409,.22798,.54767Z"/><path class="c" d="M56.58857,52.23822c-.30256-.81135-.07745-1.65365-.14593-2.47865-.036-.43377,.19321-.55606,.58217-.52753,.23803,.01746,.47842,.00273,.71775,.00255q2.42413-.00186,2.5673-2.42245c1.74438,.82999,1.48114,2.40474,1.44566,3.89499l-.73168,.15522c-.53036-.24262-1.09802-.03025-1.63444-.12742-1.22623-.22213-1.6578,.30822-1.47505,1.47404-.43944,.01051-.87888,.02103-1.31818,.03162l.01938-.03197-.02699,.0296Z"/><path class="c" d="M61.14806,45.13262c.97341-.17683,2.32111,.42933,2.84304-.26593,.48472-.64569,.13762-1.91518,.15791-2.90999,.00569-.27934,.01534-.5586,.02321-.8376,.58991,.4114,1.31844,.84594,1.40858,1.5403,.15291,1.17778,.04587,2.39012,.03397,3.58779-.00238,.23905-.20551,.29087-.41053,.34687-1.61557,.44125-3.06281-.0754-4.05619-1.46143Z"/><path class="c" d="M91.3745,45.1262c.97075-.16109,2.3101,.4359,2.83276-.26193,.48276-.64455,.13854-1.9076,.16042-2.89821,.00614-.27815,.01887-.55614,.02862-.83385,1.26859,1.00011,1.98428,3.57795,1.44205,5.10534-.10182,.2868-.2774,.34366-.52742,.35906-1.53105,.09429-3.05053,.16063-3.93644-1.47041Z"/><path class="c" d="M47.99564,53.01823l.05032-.56243c.63373,.41124,1.30346,.83472,1.46099,1.62493,.39552,1.98416,.10727,2.2426-1.92777,2.31823-1.3862,.05152-2.60653-.07874-3.32128-1.4618,.90694-.02278,1.81415-.03756,2.72061-.07218,.37183-.0142,.81827,.14955,1.02926-.34853l-.01212-1.49822Z"/><path class="c" d="M57.92596,46.55847c-.49404-.00471-1.28965,.29435-1.40629-.16998-.20575-.81907-.07362-1.73535-.00164-2.60421,.02141-.25841,.40525-.1591,.62901-.16306,.67883-.01201,1.37065,.07858,2.03432-.02247,1.25855-.19161,2.02938,.12543,1.9931,1.54585-.62473,.0035-1.26071,.08371-1.87179-.00588-1.17806-.17272-1.54716,.33668-1.37672,1.41974Z"/><path class="c" d="M88.15065,46.5574c-1.07828,.15886-1.5011-.32183-1.5123-1.39148-.01089-1.03839,.39832-1.55676,1.44418-1.54996,.47472,.00309,.95335,.03931,1.42343-.00753,1.15454-.11504,1.79493,.36492,1.89714,1.532-.58877,.00503-1.17757,.00875-1.76633,.01539-.92544,.01044-1.48728,.40814-1.48613,1.40157Z"/><path class="c" d="M40.19446,52.21937c-.49508,.01029-1.27672,.3129-1.40591-.17409-.21736-.81936-.06971-1.73715-.05443-2.61316,.00112-.06392,.1657-.14492,.26736-.18412,1.27353-.4911,2.69924,.13554,3.19535,1.39893-.15571,.01177-.31758,.05717-.46617,.03001-1.26821-.2319-1.6884,.36722-1.53619,1.54244Z"/><path class="c" d="M86.75289,49.2759c1.05651-.0144,2.11347-.05454,3.16939-.03575,1.00243,.01784,1.53931,.4864,1.3171,1.56362-1.7217,.15466-3.38926,.15072-4.48649-1.52787Z"/><path class="c" d="M51.43841,43.65681c.15337-.01317,.30659-.03543,.46015-.0381q1.47216-.02557,1.38112,1.50696c-1.00637,.00231-1.33687-.84222-1.84126-1.46887Z"/><path class="c" d="M33.71436,43.65377c.15539-.01233,.31126-.03964,.46609-.03466,1.54434,.04968,1.4613-.37295,1.37958,1.52336-.95557-.07444-1.35147-.84246-1.84566-1.4887Z"/><path class="c" d="M67.63275,43.68414c.11329-.02087,.22602-.0559,.33997-.06048q1.55469-.06252,1.44584,1.52604c-.96343-.04009-1.29901-.84491-1.78581-1.46556Z"/><path class="c" d="M87.99252,52.23521c-.91609,.04537-1.46375-.29208-1.35906-1.30742,.58778,.29576,1.02447,.74855,1.35906,1.30742Z"/><path class="c" d="M40.20031,46.64499c-.48912-.01145-1.26168,.31065-1.39105-.20032-.2068-.81677-.08294-1.72958-.01532-2.59526,.01825-.23367,.4103-.15476,.63881-.15626,1.03616-.00682,2.07267-.01812,3.1085,.00157,.94208,.01791,1.39234,.4794,1.20398,1.45205-.66457,.00275-1.33853,.07762-1.9917-.00729-1.20441-.15657-1.75211,.2638-1.55323,1.50551Z"/><path d="M40.20031,46.64499c-.19888-1.24172,.34882-1.66209,1.55323-1.50551,.65317,.08491,1.32713,.01004,1.9917,.00729,.0492,1.30457-.19235,1.60719-1.41885,1.60198-.70761-.003-1.42873,.14444-2.12608-.10375Z"/><path d="M47.99564,53.01823l.01212,1.49822c-.12656-.50029-.1132-.9989-.01212-1.49822Z"/><path d="M57.91435,52.20897c-.18275-1.16582,.24882-1.69616,1.47505-1.47404,.53642,.09717,1.10408-.1152,1.63444,.12742,.18707,1.08313-.16459,1.61616-1.35648,1.42294-.57338-.09295-1.168-.05499-1.75301-.07632Z"/><polygon points="56.58857 52.23822 56.61555 52.20861 56.59617 52.24059 56.58857 52.23822"/><path d="M77.12648,45.14749c.02061,1.97499,.03811,3.95002,.06335,5.92495,.0102,.79762-.45177,1.15504-1.16981,1.1896-.6274,.0302-1.25944-.03585-1.88896-.05952,.0122-1.35337,.03174-2.70658,.03409-4.05983q.00515-2.96535,2.96132-2.99521Z"/><path class="c" d="M77.12647,45.14749q-2.95972,.02985-2.96132,2.99521c-.00235,1.35324-.02189,2.70646-.03409,4.05983q-1.55903,.13949-1.55932-1.40603c-.00016-2.0756,.02673-4.15175-.015-6.22651-.014-.69604,.11629-1.0352,.90359-.96852,.7928,.06715,1.5968-.01122,2.39391,.02176,.95766,.03962,1.50714,.46676,1.27223,1.52426Z"/></svg>