<?xml version="1.0" encoding="UTF-8"?><svg id="a" xmlns="http://www.w3.org/2000/svg" viewBox="0 0 94.85628 96.20295"><defs><style>.b{fill:#040404;}.c{fill:#fdfdfd;}.d{fill:#cfd0d2;}</style></defs><path class="b" d="M43.50087,56.65356c1.62719-1.517,3.23599-3.05447,4.89078-4.54073,.64547-.57973,1.03479-1.19159,.81418-2.16161-.49503,.21345-.72938,.67097-1.04461,1.02646-.79867,.90067-1.62775,1.7648-2.71584,2.32065-1.98738,1.01524-3.76415,.25323-4.40214-1.8771-.05598-.18695-.10841-.37497-.12569-.43486-.68669,.60974-1.38052,1.23788-2.08724,1.85117-2.40321,2.08549-4.80296,1.31683-5.50714-1.77895-.28406-1.24879-.341-2.52923-.39852-3.80617-.02626-.58295,.01806-1.17909-.29678-1.88778-1.25191,1.78751-1.61797,3.71424-1.84732,5.68404-.11069,.95067-.2304,1.90268-.27903,2.85749-.04499,.88342-.51177,.98576-1.2041,.7587-1.36009-.44605-1.96021-1.56949-1.55969-3.04837,1.17545-4.34025,2.07848-8.76487,3.94041-12.89623,.05872-.1303,.04141-.29488,.062-.4636-1.58787,.34917-1.56223,.3514-1.69952,1.92617-.26192,3.00436-1.47448,5.63852-3.4083,7.89731-4.40276,5.14263-9.91446,8.45424-16.60765,9.6796-1.92677,.35274-3.83673,.14783-5.6089-.73685-2.53521-1.2656-3.17359-3.37926-1.83607-5.86301,2.84145-5.27654,7.45563-8.39791,12.85095-10.56445,2.85392-1.14602,5.80256-1.99179,8.80998-2.61053,.88731-.18255,.76522-.43288,.27424-.92525-.89032-.89284-1.98471-1.46311-3.10389-1.99753-1.65671-.7911-3.32629-1.55577-4.66342-2.8721-2.35497-2.31834-2.41706-5.22584-.15945-7.64504,1.0027-1.07447,2.22363-1.84529,3.56714-2.36304,4.05729-1.56357,8.26009-2.12491,12.57741-1.49839,1.68209,.24411,3.11227,.96584,3.87023,2.64837,.3202,.71079,.33972,1.35436-.02007,2.05374-.45843,.89113-.96963,1.74769-1.61998,2.50389-.46292,.53826-1.06409,.87723-1.81052,.55836-.81767-.34929-1.38342-.9669-1.59239-1.82571-.10403-.42754,.27889-.70653,.58873-.96918,.80255-.68031,.73935-1.18547-.25225-1.61957-1.15616-.50614-2.40913-.57576-3.64252-.58373-3.21899-.02082-6.11481,.99538-8.68788,2.91612-1.06266,.79325-1.11593,1.51985-.20655,2.50151,1.04468,1.12769,2.35317,1.9002,3.67689,2.64707,1.42262,.80266,2.90351,1.51157,4.20828,2.50668,.53677,.40937,1.21726,.80462,1.47542,1.36944,.57499,1.25795,1.33588,1.03559,2.36754,.71644,1.52217-.47091,2.40565-1.25043,2.88552-2.89852,1.29786-4.45747,3.8738-8.19209,7.19396-11.41523,.51545-.50038,1.07917-.94902,1.73879-1.2598,1.79606-.84621,3.31563,.02694,3.44314,2.02859,.11284,1.77142-.4874,3.38489-1.3195,4.90364-1.94101,3.54277-4.9395,6.04614-8.32233,8.08464-1.25106,.75389-1.70613,1.75084-1.90912,3.2185,.87218-.41172,1.61964-.80029,2.39493-1.12173,1.02286-.4241,2.10822-.71534,3.0447,.11448,.89961,.79714,.94791,1.9064,.7043,3.00027-.5465,2.45392-2.02147,4.2477-4.22954,5.34963-.89153,.44492-1.13407,.95075-.99387,1.84362,.08632,.54972,.05326,1.11717,.10099,1.67433,.03369,.39324,.04728,.84734,.47761,1.0228,.42733,.17423,.75463-.1126,1.05523-.39008,.82888-.76515,1.46706-1.68003,2.08861-2.61243,1.50472-2.25728,2.67069-4.72212,4.27444-6.92078,.47504-.65125,1.02861-.93434,1.82088-.89534,1.73776,.08555,2.05863,.61259,1.38087,2.19049-1.00612,2.34236-1.97339,4.70157-2.93824,7.06136-.18844,.46088-.56326,1.04759-.02801,1.42217,.61375,.42952,1.01362-.21663,1.3874-.5783,2.45692-2.37727,3.99712-5.34771,5.36741-8.42002,.31457-.70529,.69159-1.2702,1.57709-1.18716,1.05693,.09911,1.66784,.83601,1.44254,1.90679-.29432,1.39877-.36944,2.84065-.83319,4.20678-.05563,.16387-.0451,.44757,.05737,.54042,.1031,.09342,.37397,.06349,.54567,.00809,.57205-.18456,.69583-.65487,.81322-1.1996,1.14615-5.31854,2.69715-10.49449,5.4875-15.2228,1.26372-2.14141,2.71375-4.14552,4.47649-5.9004,.93664-.93246,1.99248-1.95199,3.44807-1.31886,1.5,.65245,1.5224,2.13928,1.43629,3.51465-.14238,2.27427-1.04293,4.32486-2.08126,6.31205-2.57005,4.91858-5.92596,9.28492-9.67358,13.33825-1.11037,1.20094-.8602,2.57804-1.13491,3.89639-.09297,.44618,.31886,.64541,.72406,.46844,.43251-.18889,.87262-.42076,1.2207-.73281,2.37112-2.12558,4.45662-4.49787,5.60588-7.50968,.43981-1.15257,1.12227-.77603,1.79345-.57309,.86047,.26018,.87275,.90736,.56845,1.63913-.3972,.95518-.77705,1.91793-1.14203,2.88585-.08369,.22194-.3446,.52042,.10121,.68505-.06574-.06742,.02679-.31651-.21197-.18522l.21614,.18081c1.72073-1.71613,3.60101-3.23832,5.69493-4.46908,1.2098-.7111,2.08404-.36047,2.54038,.98643,.17671,.52158,.35373,.36267,.66385,.21941,.79393-.36677,1.61185-.68389,2.3937-1.0739,.80767-.40288,1.42331-.19438,2.04232,.40138,.67746,.65202,1.10806,1.34541,.87024,2.32444-.13587,.5593-.46073,1.00683-.77894,1.46702-.77199,1.11644-1.53411,2.24468-1.94223,3.55518-.12716,.40833-.20706,.86523,.21853,1.21087,.40308,.32736,.76576,.07826,1.11459-.07962,.97463-.4411,1.57075-1.04746,1.80744-2.24732,.63482-3.2181,2.48594-5.58004,5.64087-6.74332,1.14525-.42227,2.39237-.69661,3.36058,.33432,.95894,1.02107,.82674,2.24742,.3293,3.47202-.97425,2.39841-2.79715,4.02923-4.84423,5.48192-.42198,.29945-1.28899,.40217-1.1658,.97749,.15895,.74242,.90926,1.19213,1.6626,1.40638,1.81424,.516,3.38436-.15468,4.83953-1.14351,.62119-.42211,1.14323-.99075,1.70705-1.49645,.60111-.53915,1.03563-.4531,1.37139,.30328,.50236,1.13168,.31819,2.10153-.63408,3.03921-2.80206,2.75912-9.38807,3.46299-11.79618-.75891-.32137-.56341-.64737-.38982-1.08308-.22339-1.27792,.48812-2.5574,.59475-3.80834-.11254-1.5052-.85106-2.00578-2.07979-1.49174-3.73902,.32133-1.03722,.89156-1.95212,1.44517-2.87708,.21444-.35828,.60881-.65691,.50463-1.24662-.43417-.04182-.69508,.23778-.93719,.51961-1.7435,2.02945-3.47266,4.06738-4.76084,6.43768-.27369,.50361-.37999,1.46968-1.23226,1.13105-.82013-.32585-1.64721-.87079-1.68493-1.97005-.03555-1.03608,.47466-1.92106,.79567-2.85854,.15073-.4402,.51347-.81342,.4184-1.4794-1.58794,1.12246-2.81228,2.48621-3.97353,3.91337-.40292,.49519-.77374,1.01664-1.15574,1.52869-.36774,.49292-.74752,.98986-1.46879,.75768-.72994-.23497-1.08191-.78458-1.1179-1.53552-.01862-.38884-.00327-.77931-.00327-1.24926-.70485,.64296-1.33925,1.24823-2.00215,1.82049-1.15769,.99939-2.42859,1.53851-3.95917,.86937-1.41525-.61873-1.41177-1.87885-1.38368-3.17933-1.29889,.57862-1.92053,1.59172-2.26889,2.87183-.26034,.95666-.65415,1.877-.98853,2.81351l-6.58179,.03149Zm-34.99474-1.90711c.23019-.04209,.54722-.08212,.85503-.15902,5.06183-1.26471,9.48467-3.66994,13.13864-7.42103,1.48533-1.52481,2.6926-3.24634,3.47475-5.24373,.20305-.51853,.53166-1.08663,.11606-1.5765-.42694-.50323-1.05048-.24595-1.5719-.08742-4.50331,1.36914-8.9028,2.98909-12.86742,5.59195-2.12359,1.39418-3.92761,3.13272-5.29457,5.2867-.47788,.75303-.82977,1.58702-.31329,2.47106,.52548,.89944,1.43252,1.06407,2.4627,1.138Zm49.79581-13.35103c4.07262-4.1736,7.11379-8.64277,8.30903-14.19702,.07116-.33068,.34719-.76592-.03555-.95964-.37982-.19225-.6148,.27116-.82765,.5328-2.42168,2.97679-4.43793,6.20497-5.95187,9.73621-.63945,1.49148-1.20646,3.00926-1.49395,4.88764Zm-20.39901-9.80391c2.74671-1.76237,4.58113-4.2364,5.7445-7.22922,.10436-.26848,.25282-.65384-.11403-.84116-.28132-.14364-.53468,.09927-.7245,.29752-2.15711,2.25292-3.85008,4.80419-4.90597,7.77287Zm-5.24199,13.89634c1.66619-.54592,3.16417-1.31942,4.4183-2.50042,.67201-.63282,1.19684-1.37026,1.48702-2.26232,.09024-.27746,.18043-.54529-.07863-.76257-.25275-.21199-.53292-.12461-.77234,.03066-2.14887,1.39358-3.92199,3.13924-5.05435,5.49466Zm50.00716,3.85826c1.73967-.70469,2.83918-1.79886,3.81031-3.05143,.17512-.22585,.30354-.48825,.04617-.74089-.2133-.20938-.45877-.09058-.65811,.02149-1.43534,.80692-2.73014,1.74441-3.19837,3.77083Z"/><path class="d" d="M43.50087,56.65356c2.19393-.0105,4.38786-.02099,6.58179-.03148,7.87358,.01191,15.74801,.09574,23.62035,.00236,3.41992-.04057,6.0201,2.87812,6.09313,5.74344,.07933,3.11235-2.72646,6.07441-6.07248,6.05862-9.19223-.04337-18.3848-.01737-27.57723-.01883l-3.52554,.02475c-1.54214-.00851-3.08427-.01701-4.6264-.02551l-2.39769,.01283c-4.70917-.00257-9.4184-.01993-14.1275-.00225-2.88935,.01085-5.69675-1.89847-6.11123-5.19963-.42949-3.42067,2.21507-6.54932,5.75463-6.55609,7.4627-.01427,14.92545-.00678,22.38818-.00821Zm-5.00224,4.8191q-1.70566-.00002-1.50961-1.52446c.02017-.15768,.03384-.31918,.02349-.47714-.02101-.32048,.46345-.84036-.29884-.88165-.52999-.02871-1.09288-.18307-1.18456,.71967-.17188,1.69257-.49714,3.369-.71626,5.05764-.08385,.64619-.83207,1.61453,.37797,1.82954,1.27053,.22574,.84443-1.01511,1.0872-1.66109,.01323-.03521,.00375-.07909,.00414-.11894,.01799-1.80244,.43655-1.58732,2.45263-1.47402,1.25126,.07033,.48971,1.13643,.58265,1.76965,.0103,.0702-.06832,.1502-.06848,.22572-.00104,.49268-.45062,1.1517,.48522,1.30271,.8749,.14118,1.00197-.4932,1.06835-1.0869,.22028-1.96986,.45064-3.9382,.88682-5.87287,.13268-.58852-.1152-.65502-.5961-.71649-1.29433-.16543-1.09683,.95073-1.11203,1.51182-.03368,1.24324-.51503,1.65015-1.48259,1.39682Zm-13.13786,3.35044c-2.35032,.0059-3.0648-.88688-2.52644-3.04968,.41889-1.68281,1.36543-2.19621,3.62509-2.00569,.34395,.02901,.89856,.49804,.95082-.35993,.04159-.68285-.18029-1.03743-.92541-1.07027-1.18296-.05214-2.30701,.07581-3.34466,.69523-1.58796,.94792-2.42893,3.46695-1.79668,5.4138,.4695,1.44571,2.01315,2.23838,3.90962,2.02625,.74299-.0831,1.40639-.36321,1.35119-1.18667-.06298-.93951-.90769-.21693-1.24353-.46304Zm36.60024,1.41802c.51883,0,1.0377,.00439,1.55647-.00111,.64532-.00685,.79452-.46317,.79621-.97057,.00183-.55244-.4522-.43921-.79342-.45086-.27898-.00951-.55867,.00444-.83802,.0028-1.26955-.00746-1.34614-.12913-1.11586-1.39693,.23377-1.28693,.43549-2.5806,.6095-3.87693,.05406-.40272,.17179-.91319-.53093-.97184-.58061-.04846-.87009,.12921-.94801,.75149-.19196,1.53312-.42197,3.06238-.67643,4.58657-.38968,2.33423-.40386,2.33186,1.94048,2.32738Zm-11.69243-.00158c.54199,.02175,.81236-.19675,.89019-.7438,.28348-1.99242,.60757-3.97903,.90445-5.9696,.06338-.42499,.1932-.91732-.51211-.94633-.55387-.02278-1.04507,.00887-1.10026,.74572-.15359,2.05082-.5214,4.07203-.90426,6.08866-.12768,.67251,.1264,.8843,.72198,.82535Zm21.71274-.0048c.54699,.1173,.71265-.17528,.79067-.78176,.25672-1.99529,.60359-3.97886,.90034-5.96924,.05664-.3799,.16798-.84447-.44977-.89325-.43571-.03442-.90289-.09872-1.00501,.53108-.03778,.23293-.13757,.45613-.17196,.68925-.27663,1.87495-.49068,3.76134-.84157,5.62203-.13813,.73252,.10041,.84945,.77731,.8019Z"/><path class="b" d="M35.59679,68.41974l2.39769-.01283c-.05875,.91109-.14999,1.82169-.16412,2.73348-.00854,.55102,.02243,1.16031,.60284,1.4662,.62578,.32981,1.17012-.01196,1.64676-.36658,1.29378-.96256,1.98355-2.34469,2.54093-3.8076l3.52554-.02475c-.9455,2.38826-2.22588,4.56607-4.09977,6.34876-2.14038,2.0362-5.12026,1.35237-6.26865-1.40993-.67429-1.62193-.53761-3.26923-.18121-4.92676Z"/><path class="b" d="M69.16303,37.34183c-.11158,.8499-.4508,1.50759-1.30238,1.51653-.8975,.00942-1.35921-.61238-1.34911-1.48208,.01007-.86592,.46077-1.46342,1.38024-1.43567,.88582,.02673,1.1444,.71317,1.27125,1.40122Z"/><path class="c" d="M8.50612,54.74645c-1.03019-.07393-1.93722-.23856-2.4627-1.138-.51648-.88404-.16459-1.71803,.31329-2.47106,1.36696-2.15397,3.17098-3.89251,5.29457-5.2867,3.96462-2.60286,8.3641-4.22281,12.86742-5.59195,.52142-.15853,1.14496-.41581,1.5719,.08742,.4156,.48987,.08699,1.05797-.11606,1.5765-.78215,1.99739-1.98942,3.71892-3.47475,5.24373-3.65396,3.7511-8.0768,6.15632-13.13864,7.42103-.30781,.07691-.62484,.11693-.85503,.15902Z"/><path class="c" d="M58.30193,41.39542c.28749-1.87838,.85451-3.39616,1.49395-4.88764,1.51394-3.53124,3.53019-6.75942,5.95187-9.73621,.21286-.26164,.44783-.72505,.82765-.5328,.38274,.19372,.10671,.62896,.03555,.95964-1.19524,5.55425-4.23641,10.02342-8.30903,14.19702Z"/><path class="c" d="M37.90293,31.5915c1.05589-2.96868,2.74886-5.51995,4.90597-7.77287,.18981-.19824,.44318-.44116,.7245-.29752,.36685,.18732,.21839,.57268,.11403,.84116-1.16337,2.99282-2.99779,5.46685-5.7445,7.22922Z"/><path class="c" d="M32.66094,45.48785c1.13235-2.35542,2.90548-4.10107,5.05435-5.49466,.23942-.15527,.51959-.24264,.77234-.03066,.25907,.21728,.16888,.48512,.07863,.76257-.29018,.89207-.81501,1.6295-1.48702,2.26232-1.25413,1.181-2.75211,1.9545-4.4183,2.50042Z"/><path class="c" d="M82.66809,49.34611c.46823-2.02642,1.76303-2.96391,3.19837-3.77083,.19934-.11207,.44481-.23086,.65811-.02149,.25737,.25264,.12894,.51504-.04617,.74089-.97113,1.25257-2.07064,2.34674-3.81031,3.05143Z"/><path class="c" d="M65.14296,47.26233l-.21614-.18081c.23876-.13129,.14623,.1178,.21197,.18522l.00417-.00441Z"/><path class="c" d="M38.49863,61.47266c.96757,.25333,1.44891-.15358,1.48259-1.39682,.0152-.56109-.1823-1.67725,1.11203-1.51182,.4809,.06147,.72878,.12796,.5961,.71649-.43617,1.93467-.66654,3.90301-.88682,5.87287-.06639,.5937-.19345,1.22808-1.06835,1.0869-.93585-.15101-.48626-.81004-.48522-1.30271,.00016-.07552,.07878-.15552,.06848-.22572-.09294-.63321,.66862-1.69932-.58265-1.76965-2.01607-.1133-2.43464-.32842-2.45263,1.47402-.0004,.03986,.00909,.08374-.00414,.11894-.24278,.64598,.18333,1.88683-1.0872,1.66109-1.21004-.21501-.46182-1.18335-.37797-1.82954,.21912-1.68863,.54438-3.36506,.71626-5.05764,.09168-.90274,.65457-.74838,1.18456-.71967,.76229,.04129,.27783,.56117,.29884,.88165,.01035,.15796-.00332,.31946-.02349,.47714q-.19499,1.52457,1.50961,1.52446Z"/><path class="c" d="M25.36077,64.82311c.33583,.24611,1.18055-.47647,1.24353,.46304,.0552,.82346-.60819,1.10357-1.35119,1.18667-1.89647,.21212-3.44012-.58054-3.90962-2.02625-.63224-1.94685,.20872-4.46588,1.79668-5.4138,1.03765-.61942,2.1617-.74736,3.34466-.69523,.74511,.03284,.967,.38742,.92541,1.07027-.05225,.85797-.60686,.38894-.95082,.35993-2.25966-.19052-3.2062,.32287-3.62509,2.00569-.53837,2.1628,.17612,3.05558,2.52644,3.04968Z"/><path class="c" d="M61.961,66.24113c-2.34434,.00448-2.33016,.00685-1.94048-2.32738,.25446-1.52418,.48447-3.05344,.67643-4.58657,.07792-.62228,.36739-.79995,.94801-.75149,.70272,.05865,.58498,.56913,.53093,.97184-.17401,1.29633-.37573,2.59-.6095,3.87693-.23028,1.26779-.15369,1.38947,1.11586,1.39693,.27935,.00165,.55904-.01231,.83802-.0028,.34122,.01165,.79525-.10158,.79342,.45086-.00168,.5074-.15088,.96372-.79621,.97057-.51877,.00551-1.03764,.00111-1.55647,.00111Z"/><path class="c" d="M42.62089,68.43242c-.55738,1.46291-1.24715,2.84504-2.54093,3.8076-.47665,.35462-1.02099,.69639-1.64676,.36658-.5804-.3059-.61138-.91519-.60284-1.4662,.01413-.91179,.10537-1.82239,.16412-2.73348,1.54214,.0085,3.08427,.017,4.6264,.02551Z"/><path class="c" d="M50.26857,66.23955c-.59558,.05895-.84967-.15284-.72198-.82535,.38286-2.01663,.75067-4.03784,.90426-6.08866,.05519-.73684,.54639-.76849,1.10026-.74572,.70531,.02901,.57549,.52134,.51211,.94633-.29688,1.99057-.62097,3.97718-.90445,5.9696-.07784,.54706-.3482,.76556-.89019,.7438Z"/><path class="c" d="M71.98131,66.23475c-.6769,.04755-.91544-.06939-.77731-.8019,.35089-1.86069,.56494-3.74708,.84157-5.62203,.03439-.23311,.13419-.45631,.17196-.68925,.10213-.62979,.5693-.56549,1.00501-.53108,.61775,.04879,.50642,.51336,.44977,.89325-.29675,1.99037-.64362,3.97394-.90034,5.96924-.07803,.60648-.24368,.89906-.79067,.78176Z"/></svg>