<?xml version="1.0" encoding="UTF-8"?><svg id="a" xmlns="http://www.w3.org/2000/svg" viewBox="0 0 48.163 48.15792"><defs><style>.b{fill:#0095de;}.c{fill:#f4fbfa;}.d{fill:#b0e3f1;}.e{fill:#1197d9;}.f{fill:#4ca8d4;}</style></defs><path class="b" d="M.0118,24.05506C.0118,16.2176,.01643,8.38013,0,.5427-.00095,.08508,.12192-.00018,.55662,.00016,16.23209,.01238,31.90756,.01249,47.58304,0c.45206-.00036,.58038,.0879,.57992,.56661-.01497,15.6749-.01498,31.34981,.00004,47.02471,.00046,.47996-.12992,.56686-.5811,.56651-15.67547-.01237-31.35095-.01233-47.02642,.00008-.43723,.00034-.55626-.08902-.55532-.5442,.01618-7.85286,.01164-15.70576,.01164-23.55865Zm16.20056,5.48557l-.00116,.09298c.06595,.21121-.7101,.54124,.09154,.64862l.10253,.17155c.22402,.28056,.66652,.28504,.91453,.00924l.0012-.00015c.18751-.05547,.45856,.15085,.55873-.17828,.17724-.04518,.35597-.08526,.5314-.13661,.34813-.10191,.62962-.26278,.57011-.69915,.15193-.59292-.05844-1.16412-.19645-1.71156-.07365-.29215-.15108-.55289-.13746-.86116,.01862-.42122,.01545-.9503-.23462-1.21279-.33162-.34808-.34915-.68233-.34739-1.07623,.00084-.18844,.76601-.81116,.91238-.71716,.27765,.17832,.56573,.08866,.84885,.1146,.21415,.125,.27385,.32645,.27551,.55663-.15566,.18512-.14292,.41811-.19797,.63527-.11291,.44536,.05894,.59674,.47776,.56717,.07199,.0418,.08739,.11101,.09024,.1863-.19982,.41104,.02424,.79874,.08435,1.19009,.03542,.23062-.01492,.53277,.2864,.66158,.10614,.06681,.08916,.17532,.09367,.27656-.04815,.3309-.12913,.66837,.18535,.92674l.00723,.26516c-.0033,.12288-.02814,.24979-.00609,.36793,.08579,.45957,.20937,.90829,.45763,1.31225l.00355,.18243c-.16322,.44683,.07198,1.23979,.46548,1.56979l.0001,.00354-.00472,.09554,.09767,.45954c-.09473,.2855-.09492,.54789,.18153,.74267l.00457,.17579c-.00908,.13626-.01799,.27242,.17286,.28921l.00457,.18294c-.29915,.2826-.22571,.64101,.18884,.92165l.0024,.00362c-.02717,.21406,.06935,.30159,.27933,.27311,.12804,.12124,.33877,.04791,.45629,.19391,.26966,.36645,.69882,.36361,1.01632-.00672,.15988-.08625,.34033-.14889,.47397-.26527,.13873-.12079,.40608-.19372,.33613-.44478-.17192-.61709,.08266-1.26829-.16778-1.8749,.15951-.25671,.0814-.43694-.1797-.55827-.00215-.08821-.00431-.17641-.00628-.26491-.07972-.29524-.09014-.59606-.08676-.90021,.00236-.21145,.00698-.4394-.27545-.50115-.00381-.02934-.00608-.0588-.00682-.08837,.13268-.20279,.08204-.37068-.02959-.58397-.3704-.70774-.25554-.89176,.50808-.90729l.5377-.00107c.43498,.00327,.85378-.05552,1.28664-.13963,.51692-.10043,.75936-.36231,.94878-.77578,.11356-.00735,.17769-.06462,.18303-.18125l.09484-.09883c.22983-.02384,.48576-.03279,.59444-.27277,.18182-.40147,.51186-.72821,.59748-1.174,.03238-.16858,.0809-.28759,.2733-.31207,.19453-.02476,.23868,.10677,.33705,.23254,.14491,.18526,.14111,.54879,.51502,.50169,.24242-.06147,.48483-.12295,.72739-.18433,.32001,.00102,.64346,.03144,.95903-.00548,.29489-.0345,.67776,.00506,.70917-.46031l.09148-.27247c.09631-.01064,.18668-.03191,.17239-.15825-.01108-.09795-.09331-.10595-.16908-.11743l-.0062-.18305c.184-.19563,.38022-.34913,.66623-.19344l.0885,.08875c-.01802,.25509-.0107,.40897,.33281,.51645,.30654,.0959,.64196,.06237,.91983,.22186,.24178,.13878,.44954,.09606,.62738-.07965,.22645-.22375,.49054-.26983,.79512-.28908,.33383-.02109,.66371-.09741,1.00334-.08698,.24629,.00757,.30632-.16007,.29411-.37155l.17033-.00576c.13842,.01418,.27693,.02853,.29487-.16833l.3709-.00747c.2879,.31904,.68438,.21006,1.01654-.27942,.20364-.00983,.3353-.22705,.55438-.19237,.25814,.21089,.30604-.09393,.40867-.19026,.17683-.16597,.23407-.43816,.50511-.64885-.08969,.48504-.21629,.94703,.18277,1.21767,.33103,.2245,.73625,.3411,1.0578,.60212,.03881,.03151,.14395-.00456,.2129-.02647,.63912-.20316,1.00114-.66293,1.06271-1.33219,.00961-.10443,.02701-.21685,.07501-.30745,.16711-.31539,.00584-.52919-.21687-.71099-.30365-.24789-.65432-.31918-1.03608-.21174l-.10765,.00832c-.03185-.07812-.07955-.12954-.17393-.1069-.32841,.07879-.65715,.14402-.96683-.02112-.05933,.10099-.02764,.15221,.00994,.20159,.08922,.11723,.17239,.29586,.03489,.3616-.17196,.08221-.25515-.10967-.30307-.25735-.08684-.26758-.19872-.54311-.40845-.71161-.21346-.17149-.21668-.33657-.15801-.55192,.00199-.02681,.00466-.05355,.00801-.08022,.33576,.01491,.57865-.07532,.5436-.48017l.00198-.70759c-.04588-.22433,.17008-.52082-.18209-.66074-.00095-.02688-.00224-.05375-.00389-.0806,.02793-.43401-.16104-.74362-.54119-.9436,.0515-.55208-.33137-.93257-.63919-1.26859-.2064-.22531-.66905-.19398-.93904-.48037-.27452-.2912-.64795-.32776-1.03016-.27481l-.08207-.00297c-.12269-.35587-.48148-.32208-.72155-.33636-.48364-.02876-1.01807-.11279-1.40377,.33322l-.26298,.00754c-.43998-.00639-.86341,.08889-1.18705,.38634-.62406,.57356-1.1385,1.24053-1.46468,2.03006-.06465,.15649-.2529,.34341-.04248,.53776l-.01027,.18064c-.20058,.12437-.40571,.21734-.64231,.0931l-.012-.35501c.04218-.45291-.12951-.93061-.02558-1.34402,.12735-.50659,.00217-.58535-.43349-.51483l-.0006-.00153c.00266-.47035-.0241-.92163-.15407-1.39375-.28164-1.02308-.39368-2.09086-.76853-3.09409-.07019-.18784-.15637-.40374-.08002-.5835,.25809-.60765-.07176-1.06211-.33826-1.54536-.08049-.14596-.0946-.33466-.32099-.33101-.00523-.02594-.00779-.05214-.0077-.07861-.03394-.50697-.28943-.7313-.80742-.66779-.23987,.02941-.48634,.00531-.72982,.00503-.14024-.00016-.28438-.00744-.30133,.18878l-.0001-.0006c-.33977-.01629-.66151-.00775-.64436,.46767-.00375,.07476-.02365,.141-.09495,.18015-.23074,.02515-.2097,.20889-.18288,.34716,.06704,.34565-.19983,.75137,.18216,1.03976l.0009,.18187c-.11169,.34549-.13585,.66208,.27567,.83481l.00221,.17937c-.13347,.78721,.22289,1.49279,.39143,2.22666,.05153,.22433,.02832,.54031,.33928,.65094l.00887,.27447c-.16578,.27077-.19173,.6181-.01874,.81749,.32698,.37689,.29338,.78775,.29169,1.21305-.00116,.29377,.05884,.54568,.37447,.65512l.0949,.45631c-.01462,.78932-.02057,.79824-.56069,.84017-.38181-.29456-.6628-.70999-1.11018-.92595-.00677-.134-.07966-.20484-.19682-.27383-.43373-.25541-.89697-.32916-1.38874-.27422-1.349,.00437-2.57486,.32114-3.50726,1.38234-.16816-.01906-.32428,.03133-.39452,.18042-.11357,.24106-.32853,.34699-.5341,.47281-.39731-.26443-.80287-.51016-1.29056-.56993-.36183-.39116-1.06713-.38962-1.29936,.00295l-.35633,.01433c-.59061-.06548-.97809,.20909-1.21936,.72838-.32036-.00386-.6606-.05904-.68612,.43149-.0091,.17485-.17305,.23306-.34195,.22912-.13307,.01253-.24574-.04228-.35525-.10757-.00755-.1262-.09063-.19827-.19792-.22372-.73185-.17352-1.47029-.22175-2.20905-.05634-.20386,.04564-.40389,.13838-.46458,.37963-.02689,.00433-.05396,.00665-.08119,.00695-.22691,.03296-.44532,.07681-.47117,.36752l-.18241,.18351c-.18365,.00244-.27874,.09303-.27786,.27914l-.00048,.00081c-.15369,.00451-.28328,.05846-.37786,.18421l-.18175-.00909c-.14231-.38368-.43222-.35664-.74444-.26752l-.18189-.00791c-.47304-.5133-1.58794-.35554-1.94597,.27536l-.17508,.01044c-.65823-.01315-1.1001,.25206-1.21635,.73019-.31448,.00724-.40027,.22693-.44787,.48209l-.01129,.16995c-.59309,.26727-.9947,1.33515-.71058,1.8831,.07843,.15128,.21027,.1559,.35182,.14556,.21663,.11888,.32573,.41761,.63583,.38018,.41248,.27363,.26251,.64972,.1845,1.0127-.22895,.16502-.21322,.49995-.45554,.65569-.22153,.02035-.27161,.19339-.27569,.36028-.01234,.50426-.03846,1.01238,.00873,1.51258,.0391,.4144,.10085,.86749,.63171,.99303,.52134,.63047,.65184,.66525,1.38837,.37006l.09313-.08727,.3694-.0053c.03932,.2354,.1964,.15541,.35198,.1529,.7007-.01132,1.30977-.37872,1.98435-.49358,.24125-.04107,.48246-.00172,.72654-.08466,.53098-.18041,1.05788-.36681,1.63066-.42829,.33284-.03573,.76664-.02069,.95591-.44051,.36065-.35733,.2282-.80847,.11885-1.17613-.24255-.81552-.56594-1.60678-.48905-2.48068,.03105-.35279-.11151-.52256-.46652-.51045,.02683-.35515-.28535-.64919-.1835-1.01786,.13189-.12734,.1323-.25201-.00757-.37385l.01587-.18024c.43417-.06411,.71572-.36647,1.0109-.64757l.18342,.00058c.30165,.14817,.45717,.51665,.83324,.55263l.09673,.27528c-.27827,.21511-.13406,.34722,.09106,.46343,.13498,.09659,.07468,.24348,.09517,.36955-.32284,.29015-.2624,.53731,.18161,.74272l.09893,.36593c-.13615,.15748-.17749,.29626,.0744,.37721l.01188,.27447c-.26016,.50434-.16675,.88206,.27504,1.11221l.18674,.18465-.0001,.09227Z"/><path class="f" d="M29.44055,11.50402c-.0001,.02647,.00247,.05267,.00772,.0786,.16978,.77093,.36062,1.53798,.50342,2.31387,.14612,.79386,.43002,1.55251,.5485,2.3539,.10675,.72204,.44426,1.39887,.4455,2.14609,.00014,.08688,.08459,.11931,.16443,.13385l.00066,.00147c.0038,.41989,.08917,.82787,.24784,1.21137,.08805,.21281-.12189,.52106,.21119,.64754l.01197,.35502c.09201,.4422,.23095,.88124,.26101,1.3276,.0234,.34758,.16348,.32052,.39186,.24665l.0949,.09162,.01001,.26856c-.03112,.27119-.06738,.54363,.18101,.7471l.0294,.17167c-.08382,.22358,.16688,.36307,.14366,.57142-.2463,.01819-.24571-.22042-.34046-.38592-.07564,.21415,.04321,.41442-.10259,.57148-.21244-.13387-.20245-.36843-.24968-.57196-.19724-.84996-.37964-1.70337-.57962-2.55266-.2774-1.17805-.6016-2.34638-.83823-3.53234-.19802-.99242-.4677-1.96602-.68086-2.95366-.17424-.80734-.38066-1.60809-.53914-2.41835-.09223-.4716-.27941-.83133-.74572-1.02225-.47656-.19512-.88923-.06496-1.2292,.26019-.3469,.33179-.43254,.74569-.27932,1.22786,.16237,.51095,.26965,1.04005,.38832,1.56409,.18591,.82101,.35363,1.64618,.54294,2.46638,.21346,.9248,.45147,1.84396,.66214,2.76937,.26544,1.16605,.48852,2.34228,.77752,3.50226,.25178,1.01058,.50864,2.01937,.7101,3.04111,.15017,.76161,.16969,.78674,.93802,.81934,.02966,.00125,.05868,.01755,.088,.02684l-.10509,.24035-.72732,.18448c-.53809-.84547-.42195-1.90518-.88692-2.78184-.02474,.85293-.0947,1.68161-.51407,2.43321-.2239,.4013-.33716,.89215-.82517,1.09704-.00586-.13873,.10158-.21372,.16843-.31484,.38583-.58365,.77176-1.16935,.77695-1.90866l.01362-.43187c.24036-.36047,.24003-.72142,.00216-1.08284l-.01283-.24463c.10683-.11375,.03135-.23025,.00558-.34626-.13356-.60121-.41237-1.14444-.67561-1.69391,.34424,.13833,.46966,.43684,.55264,.76306,.02717,.10686,.05103,.24554,.18271,.21027,.16054-.043,.1194-.22043,.06918-.30794-.09059-.15786-.23574-.30762-.23105-.48547,.01365-.51673-.3223-.97823-.21643-1.5072,.02239-.11188-.06958-.19627-.17013-.25081l-.09493-.45631c-.16734-.9069-.27744-1.8276-.64739-2.68567l-.00881-.27448c-.01186-.15056,.00362-.30968-.04031-.45022-.22358-.71538-.44503-1.43011-.51122-2.18195-.0104-.11823-.07887-.19328-.17924-.24541l-.00224-.17937c.0198-.31515-.08114-.59043-.27565-.83481l-.00093-.18188,.00075-1.38691c.0713-.03916,.0912-.1054,.09489-.18023,.18997-.19009,.52452-.18092,.64442-.4676l.00007,.00057c.66191-.03228,1.32817-.0813,1.8386,.47402Z"/><path class="e" d="M42.25407,23.57045c.38176-.10744,.73243-.03615,1.03608,.21174,.2227,.1818,.38398,.3956,.21687,.71099-.04801,.0906-.06541,.20302-.07501,.30745-.06156,.66927-.42359,1.12903-1.06271,1.33219-.06895,.02191-.17409,.05798-.2129,.02647-.32156-.26101-.72677-.37762-1.0578-.60212-.39906-.27064-.27246-.73264-.18277-1.21767-.27104,.21068-.32827,.48288-.50511,.64885-.10263,.09632-.15054,.40115-.40865,.19038,.10982-.18291,.22612-.36242,.32813-.5497,.24516-.45009,.14749-1.05937-.22435-1.4105-.10828-.10226-.21947-.24341-.3791-.06336-.26296-.03678-.52393-.10789-.79261-.04584-.4453-.1145-.50754,.34913-.7702,.51028-.24375-.14999,.06927-.27692,.01985-.42769-.28512-.12855-.59361,.16339-.87203-.04366l.10041-.27541,.07637-.05554c.0673,.01585,.13457,.03152,.20184,.04718,.6486,.15047,1.22317-.13328,1.81421-.31487,.02474-.00761,.02872-.08281,.04237-.12652l.17877-.02749c.12151,.17366,.29979,.08159,.45506,.09719-.05848,.21562-.05527,.3807,.1582,.55219,.20973,.1685,.32161,.44403,.40845,.71161,.04793,.14768,.13112,.33956,.30307,.25735,.1375-.06574,.05433-.24437-.03489-.3616-.03758-.04938-.06927-.10061-.00994-.20159,.30968,.16514,.63842,.09991,.96683,.02112,.09438-.02264,.14208,.02878,.17387,.10654-.2836,.19223-.66179,.21477-.86056,.57007-.26594,.47532-.15373,1.13618,.28979,1.38441,.68584,.38384,1.20223,.08171,1.50532-.45919,.25232-.45031-.02183-1.05902-.54843-1.27472-.12244-.05016-.20784-.12529-.27841-.22854Z"/><path class="e" d="M6.6757,28.61155c.07801-.36298,.22798-.73907-.18449-1.01272l.09478-.09249,.17629,.01312c.3201,.28093,.88797,.09144,.9924-.33113-.00219-.02237,.00244-.04323,.01389-.06258,.25825-.11054,.39845-.32133,.47209-.57873,.06147-.21484,.17703-.36703,.36994-.49323,.56009-.36643,1.11463-.27395,1.67797-.02834l.03435,.14593-.12447,.51453c-.01973,.01046-.04069,.01446-.06289,.01198-.16126-.05715-.29764,.01605-.43503,.08327-.55507,.27159-1.10684,.5503-1.66741,.81002-.13821,.06403-.24055,.12372-.24693,.28535l-.14253,.03894c-.1559-.04578-.22319,.01288-.2042,.17323l-.39067,.33981c-.16428-.02033-.23815,.14361-.3731,.18304Z"/><path class="e" d="M19.82655,23.98454c-.28312-.02593-.5712,.06372-.84885-.1146-.14637-.094-.91154,.52872-.91238,.71716-.00176,.3939,.01577,.72815,.34739,1.07623,.25007,.26249,.25324,.79156,.23462,1.21279-.01362,.30827,.06381,.56901,.13746,.86116,.13801,.54744,.34838,1.11864,.19653,1.71156-.21196-.20386,.06924-.64627-.36025-.74491l-.08919-.55342c.14369-.24772,.0344-.42008-.16822-.56462l-.01885-.17291c.06767-.35606,.08767-.69858-.26555-.93513-.01387,.00968-.02886,.01708-.04489,.02214l.04108-.28982c.15879-.36269-.05945-.63907-.21298-.93025l-.01429-.24231c.04477-.23834,.0452-.47653-.00244-.71456l.01059-.14754c.12476-.05215,.11895-.16349,.12264-.27053l.00397-.00329c.21039,.02922,.33942-.13056,.49292-.22266,.48316-.28988,1.03222-.17123,1.35068,.30553Z"/><path class="e" d="M31.11012,18.53033c-.07984-.01455-.16429-.04697-.16443-.13385-.00124-.74722-.33875-1.42405-.4455-2.14609-.11848-.80139-.40238-1.56004-.5485-2.3539-.14281-.77589-.33365-1.54294-.50342-2.31387,.22636-.00365,.24047,.18506,.32096,.33101,.2665,.48325,.59635,.93771,.33826,1.54536-.07635,.17976,.00983,.39565,.08002,.5835,.37485,1.00323,.48689,2.07102,.76853,3.09409,.12997,.47211,.15673,.9234,.15407,1.39375Z"/><path class="e" d="M28.15732,28.1554c.48801-.20491,.60126-.69577,.82516-1.09707,.41937-.7516,.48933-1.58028,.51407-2.43321,.46497,.87666,.34882,1.93637,.88692,2.78184-.37384,.04705-.37004-.31648-.51496-.50174-.09838-.12577-.14252-.2573-.33705-.23254-.19241,.02448-.24092,.14349-.2733,.31207-.08563,.44579-.41567,.77253-.59748,1.174-.10868,.23998-.36462,.24893-.59449,.27276l-.00446-.19033,.0956-.08579Z"/><path class="d" d="M42.25407,23.57045c.07057,.10325,.15598,.17838,.27841,.22854,.5266,.21569,.80076,.82441,.54843,1.27472-.30309,.5409-.81949,.84302-1.50532,.45919-.44352-.24823-.55574-.90909-.28979-1.38441,.19878-.35529,.57697-.37783,.86056-.57007,.03594-.00242,.07182-.00519,.10771-.00797Zm.62039,1.09808c-.00911-.35763-.40068-.76367-.73829-.76558-.35814-.00203-.75548,.42992-.742,.80665,.01307,.36558,.38883,.74834,.73675,.75051,.36384,.00225,.75321-.41227,.74354-.79158Z"/><path class="e" d="M14.08531,31.11652c-.18931,.41978-.62312,.40474-.95596,.44047-.57279,.06148-1.09969,.24787-1.63066,.42829-.24408,.08293-.48529,.04359-.72654,.08466-.67458,.11486-1.28365,.48226-1.98435,.49358-.15557,.00251-.31266,.0825-.35197-.1529,.23085-.15668,.62617,.05196,.75176-.3386l.17115-.02337c.3184,.14136,.59918,.15765,.75894-.22831l.1697-.05921,.46198,.00554c.34695,.11432,1.33518-.11477,1.55923-.36435,.01766-.01967,.01541-.0572,.02241-.08644,.02461-.01723,.04969-.03374,.07524-.04953l.28729,.03772c.14445,.14218,.30472,.08082,.46518,.03839,.30466-.08057,.61008-.15827,.91519-.23716l.01142,.01122Z"/><path class="f" d="M25.09175,33.43225c.25043,.60661-.00414,1.25781,.16778,1.8749,.06995,.25107-.19739,.32399-.33613,.44478-.13365,.11638-.31409,.17902-.47395,.26531-.33853,.03769-.67684,.11348-1.01634,.00668-.11752-.146-.32825-.07268-.45634-.19386-.06597-.11877-.15319-.21582-.27927-.27316l-.00242-.00358-.18882-.92169-.00451-.18295,.09342-.09365,.10249-.00056,.01283,.1753c-.05628,.21282,.06605,.38858,.12773,.57367,.20386,.61187,.7732,.92647,1.36851,.7686,.61098-.16202,.92941-.68454,.85587-1.3264-.0838-.73143-.38557-1.41152-.47147-2.14033l.31448,.20403,.00649,.26462c.00105,.20503,.05283,.39373,.17967,.55828Z"/><path class="f" d="M11.77497,23.34234l.18237-.18357c.212-.05204,.42523-.10249,.4712-.36746,.02723-.0003,.0543-.00262,.08119-.00697,.12711,.00856,.23206-.06424,.34528-.09313,.30893-.07881,.61307-.30046,.95174-.0933l-.0005,.09794-.17879,.00525c-.92039,.10423-1.60101,.56406-2.04314,1.37757-.02633,.01419-.05045,.03148-.07236,.05184-.50347-.12573-1.00238-.27578-1.51153-.37129-.70824-.13286-1.39309-.038-2.02621,.33098-.09496,.00207-.19245-.00364-.25949,.08434l-.37867,.10932c.04837-.317,.43903-.23603,.55358-.4761l.17508-.0104c.62461-.26165,1.2785-.31645,1.94596-.2754l.18191,.00785c.22846,.14395,.48522,.20915,.74442,.26758l.18177,.00904c.24155,.17576,.36759,.11461,.37784-.18416l.00043-.00086c.17519-.0108,.26339-.10826,.27791-.27909Z"/><path class="e" d="M13.24854,26.94922c.35501-.01211,.49757,.15766,.46652,.51045-.0769,.87391,.24649,1.66516,.48905,2.48068,.10935,.36766,.2418,.8188-.11882,1.17615l-.01128-.01109c-.01028-.42873,.0938-.8875-.31663-1.2118l-.04093-.35238c.13832-.24753,.05254-.42736-.17089-.5656l-.01826-.17373c.18663-.38325,.03226-.67805-.24418-.94117l-.028-.26302c.20371-.21825-.00004-.43237-.00658-.64849Z"/><path class="e" d="M37.59503,25.83195c.01221,.21147-.04782,.37912-.29411,.37155-.33963-.01044-.66951,.06589-1.00334,.08698-.30458,.01926-.56867,.06534-.79512,.28908-.17784,.17571-.3856,.21843-.62738,.07965-.27787-.15949-.61329-.12596-.91983-.22186-.34351-.10747-.35083-.26135-.33287-.51635,.05706,.01809,.13584,.01807,.16803,.0568,.45883,.55188,1.04182,.464,1.62669,.30702,.16483-.04424,.4273-.00845,.42496-.30653l.18501,.00306c.13691,.24528,.36005,.1544,.5152,.07812,.33769-.16602,.68979-.20867,1.05277-.22751Z"/><path class="f" d="M34.9286,17.51781l.26298-.00759c.10555,.01561,.21111,.03126,.3165,.04657-.13672,.22069-.43603,.1474-.5947,.32841-.1073-.00549-.19013,.04574-.26541,.11447-.40429,.03345-.64708,.29568-.85681,.60476l-.00237,.00202c-.27927,.09554-.46185,.28231-.53766,.56981l-.09051,.09749c-.09226,.0192-.11584,.08567-.11587,.16834-.01026,.02186-.01585,.04486-.01678,.06899-.47817,.46935-.61997,1.07376-.68612,1.70855l-.01489,.17679c-.03006-.00082-.06007-.00005-.09004,.00233-.2215-.24499-.02932-.49709-.01281-.74617l.01022-.18067c.05181-.054,.13374-.09977,.151-.16316,.25258-.92755,.83729-1.60189,1.576-2.18675,.30511-.24156,.67614-.35467,.96728-.60422Z"/><path class="f" d="M19.82655,23.98454c-.31846-.47676-.86752-.59541-1.35068-.30553-.15351,.0921-.28253,.25188-.493,.22262,.07066-.29411,.4141-.32182,.54453-.55757l.17401-.02856c.46554-.03184,.88227,.13421,1.29432,.31922l.08505,.09316,.09239,.09398c.10604,.091,.09419,.22438,.12335,.34303,.14135,.56078,.14127,1.15999,.45492,1.67394l.0153,.17426-.05412,.29756c-.19218-.05616-.04458-.32697-.24055-.38073-.00286-.07528-.01826-.1445-.09028-.18628,.02602-.42856-.10713-.8201-.27975-1.20246-.00166-.23018-.06136-.43163-.27551-.55663Z"/><path class="f" d="M21.85881,21.30281c.93243-1.06122,2.15829-1.37799,3.50742-1.38243,.00667,.08479,.0132,.16966,.01968,.25462-.4011,.07112-.82328-.08859-1.21254,.11115l-.17337,.01623c-.40871,.04907-.79796,.14041-1.06759,.49154-.02539,.00388-.04873,.01301-.07002,.02739-.10731,.00576-.16874,.06888-.20478,.16376-.02473,.0033-.04774,.01146-.06902,.02448-.16081,.01689-.25709,.10428-.28779,.26334l-.00662,.00865c-.30012,.07603-.39599,.41845-.67717,.51918-.08797-.24783,.18979-.31805,.24181-.4979Z"/><path class="f" d="M15.19762,25.55819l-.09672-.27528c.01415-.07425,.0283-.1485,.0422-.22256,.23403,.0728,.24698,.28919,.30088,.4743,.05828,.20015,.05493,.42286,.22588,.57868l.01493,.17497c-.06232,.37994,.12374,.69882,.25367,1.03148l.02616,.26278c-.05092,.22067-.02781,.41942,.16786,.56711l.02474,.17226c-.10424,.39925,.18832,.73873,.16947,1.12512l-.11424,.00136-.18671-.1847c.02314-.39914-.08568-.76563-.27506-1.11221l-.01178-.27448c-.06602-.11759,.19689-.30022-.07449-.3772l-.09894-.36593c.01252-.26543-.05631-.51098-.1816-.74272-.02049-.12608,.03981-.27296-.09519-.36954-.02734-.15506,.05852-.33237-.09104-.46345Z"/><path class="e" d="M32.25064,24.35591c.14575-.15707,.0269-.35734,.10254-.57149,.09475,.1655,.09416,.40411,.34044,.38592l.0392,.23885c.11646,.44232,.26158,.8633,.76049,1.02068l.03803,.02062,.00259,.38166c-.286-.1557-.48223-.00219-.66614,.19342-.27754-.17752-.27549-.46026-.2686-.73849,.00753-.3039-.03127-.58083-.32738-.74905l-.02117-.18212Z"/><path class="e" d="M34.9286,17.51781c-.29113,.24956-.66217,.36267-.96728,.60422-.73871,.58486-1.32342,1.2592-1.576,2.18675-.01726,.06339-.09919,.10916-.151,.16316-.21036-.19432-.02211-.38124,.04254-.53773,.32618-.78953,.84062-1.4565,1.46468-2.03006,.32365-.29745,.74707-.39273,1.18705-.38634Z"/><path class="f" d="M39.72674,23.15517c.15963-.18006,.27083-.03891,.3791,.06335,.37184,.35113,.46951,.96041,.22435,1.4105-.10201,.18728-.21831,.36678-.32813,.5497-.2191-.0348-.35077,.18242-.5544,.19229-.3788-.05228-.64262,.31389-1.01654,.27938l-.3709,.00742,.00591-.14792c-.01548-.01877-.02152-.0402-.01811-.06428,.22169,.04292,.4195,.01235,.56371-.18316l.26537-.01871c.37376-.01413,.73622-.06179,1.0196-.34389l.03581-.15049c.10746-.02557,.16956-.08885,.16949-.20383,.06565-.04756,.07839-.11597,.07516-.19068,.13657-.15218,.14304-.30556,.00427-.46029l-.02495-.16917c.03618-.19409-.06715-.27561-.24177-.29959-.01929-.01376-.04061-.02269-.06411-.02656-.0414-.08123-.08264-.16265-.12387-.24407Z"/><path class="f" d="M32.27191,24.53806c.29601,.16819,.33481,.44513,.32728,.74903-.00689,.27822-.00894,.56097,.2686,.73849l.00615,.18306-.00333,.27568-.09145,.27254c-.45933,.08214-.87323,.46998-1.38407,.20587,.19852-.23424,.49139-.22532,.75327-.27018,.36791-.06302,.46469-.21205,.38694-.59701-.10388-.51437-.32564-1.01416-.26339-1.55748Z"/><path class="e" d="M28.62253,20.55427c.10054,.05454,.19251,.13893,.17013,.25081-.10586,.52897,.23008,.99047,.21643,1.5072-.0047,.17785,.14046,.32761,.23105,.48547,.05022,.08752,.09135,.26494-.06918,.30794-.13168,.03527-.15554-.10341-.18271-.21027-.08298-.32622-.2084-.62474-.55265-.76304-.0127-.0201-.02026-.042-.02269-.06566,.02568-.14064-.03613-.20547-.17578-.20288-.01159-.02003-.02183-.04073-.03071-.06211,.08235-.1821-.10171-.26964-.14458-.4073,.54012-.04193,.54608-.05085,.56069-.84017Z"/><path class="e" d="M37.39871,17.51661c.38248-.05318,.75591-.01662,1.03044,.27458,.26999,.28639,.73264,.25506,.93904,.48037,.30782,.33602,.69069,.71651,.63919,1.26859l-.01007,.0081c-.20049-.06587-.18865-.40664-.47227-.36496-.01311-.01873-.02032-.03951-.02165-.06234,.0089-.31114-.16006-.45468-.45335-.48106l-.08741-.08794c-.30282-.39283-.67093-.68027-1.17219-.78575-.14724-.03098-.34924-.03064-.39174-.24959Z"/><path class="f" d="M18.62107,28.70388c.42949,.09869,.14829,.5411,.36025,.74496,.05943,.43637-.22206,.59724-.57019,.69915-.17543,.05135-.35416,.09144-.5314,.13658-.20192,.01032-.43445-.07524-.55873,.17832l-.00117,.00018-.91456-.00928-.1025-.17155c.01915-.12643-.03945-.27006,.0828-.37364,.14837,.09438,.11839,.43001,.34877,.35945,.4822-.14769,1.03441-.05486,1.45357-.41518l.15216-.01005c.34416,.06397,.49482-.05786,.41529-.41935-.0524-.23818-.09004-.47961-.13429-.71959Z"/><path class="f" d="M6.6757,28.61155c.13496-.03943,.20883-.20337,.37308-.18302l-.02245,.2534-.00485,.00645c-.27073,.09835-.36796,.32626-.43223,.57878l-.11532,.34798c-.17155,.04786-.1801,.16766-.13696,.31028-.03945,.32992-.04564,.65988-.00145,.98992-.05643,.24678,.21128,.41885,.15349,.66594-.19072,.01323-.25928-.08406-.28664-.26634-.10275-.68455-.10888-1.36611,.0179-2.04761,.24219-.15583,.22647-.49075,.45542-.65577Z"/><path class="f" d="M9.18762,32.07217c-.12562,.3904-.52094,.18176-.75179,.33844l-.3694,.00525-.09314,.08732c-.73652,.29519-.86703,.2604-1.38837-.37006,.01388-.13959-.12219-.25773-.05809-.40436,.2394,.07763,.27907,.34865,.46488,.47954,.23644,.16658,.46711,.36725,.73777,.05476l.51613-.04637c.26213,.02383,.50631-.00686,.68824-.22659l.14791-.00382,.10586,.08589Z"/><path class="e" d="M32.22411,20.65261c-.01651,.24908-.20869,.50117,.01278,.74613l-.0022,.9212c-.22843,.0739-.3685,.10097-.3919-.24661-.03006-.44637-.169-.8854-.26102-1.3276,.23664,.12423,.44177,.03125,.64234-.09311Z"/><path class="f" d="M28.06184,21.39444c.04286,.13765,.22692,.2252,.14481,.40713-.46855-.28864-.72354-.86249-1.31587-.98605l-.01114-.00881c-.34459-.40978-.87927-.41252-1.32-.61643,.21576-.19627,.44238-.06798,.63189,.02096,.24682,.11583,.49377,.2093,.76012,.25725,.44738,.21595,.72837,.63138,1.11018,.92595Z"/><path class="e" d="M6.52703,31.7286c-.0643,.1468,.07176,.26494,.05788,.40453-.53086-.12554-.59261-.57863-.63171-.99303-.04719-.50021-.02107-1.00832-.00873-1.51258,.00408-.16689,.05416-.33992,.27575-.36023-.12673,.68154-.12059,1.3631-.01784,2.04765,.02736,.18228,.09591,.27957,.28665,.2663l.038,.14736Z"/><path class="e" d="M27.14063,14.26022c.10037,.05213,.16884,.12718,.17924,.24541,.06619,.75184,.28764,1.46657,.51122,2.18195,.04393,.14055,.02845,.29966,.04031,.45022-.31102-.11062-.28781-.4266-.33934-.65093-.16854-.73386-.52491-1.43944-.39143-2.22666Z"/><path class="e" d="M13.80677,22.59792c-.33868-.20716-.64283,.01449-.95176,.0933-.11322,.02888-.21817,.10169-.34528,.09313,.06069-.24123,.26073-.33397,.46459-.37962,.73877-.1654,1.47721-.11717,2.20905,.05634,.10729,.02544,.19037,.09752,.1979,.22377-.31375,.01058-.59848-.2998-.93072-.08404l-.64378-.00288Z"/><path class="f" d="M6.58601,27.50636l-.0948,.09248c-.31012,.03745-.41921-.26127-.63595-.38009-.03785-.08207-.07371-.16515-.11364-.24622-.2378-.48278,.00048-1.24937,.46903-1.50633-.46318,1.11595-.40588,1.42738,.37536,2.04016Z"/><path class="e" d="M27.88021,17.41229c.36995,.85807,.48005,1.77877,.64739,2.68567-.31561-.10945-.37561-.36136-.37444-.65513,.00169-.4253,.03529-.83616-.29169-1.21305-.173-.1994-.14704-.54672,.01874-.81749Z"/><path class="f" d="M33.53393,25.83216l-.00264-.38154c.08528,.03945,.17061,.07877,.25593,.1181,.00628,.07942,.027,.14658,.12545,.14775,.09014,.10461,.17378,.21812,.32584,.23794,.0534,.15014,.13033,.26712,.31913,.22646l.33734-.00924c.22291,.06297,.38831-.01933,.51351-.20323l.43357,.00987c.00234,.2981-.26013,.26231-.42496,.30655-.58487,.15698-1.16786,.24486-1.62669-.30702-.03219-.03872-.11097-.0387-.16803-.0568l-.08844-.08884Z"/><path class="e" d="M31.5698,20.39071c-.33308-.12647-.12313-.43472-.21118-.64754-.15867-.3835-.24404-.79148-.24784-1.21137,.43561-.07046,.56079,.0083,.43344,.51489-.10393,.41341,.06776,.8911,.02558,1.34402Z"/><path class="e" d="M27.78845,28.71168c-.18951,.41338-.43196,.67526-.94887,.77569-.43286,.0841-.85166,.14289-1.28653,.13971l.01571-.23411,.26875-.04386,.37353,.01638c.50663-.02354,1.01712-.03869,1.28027-.59029l.09229-.0796,.19762,.00898,.00724,.00711Z"/><path class="e" d="M35.50826,17.55714l-.31667-.04691c.3857-.44597,.92014-.36194,1.40378-.33318,.24008,.01428,.59886-.01951,.72159,.33628-.13553,.01458-.27109,.02924-.40649,.04355-.10837-.00475-.21691-.00915-.32544-.01355-.28158-.1912-.56314-.19424-.84466,.0001l-.2321,.01371Z"/><path class="f" d="M13.24854,26.94922c.00654,.21612,.21029,.43024,.00655,.64848-.14594-.15153-.15936-.34905-.19464-.54145-.05907-.32219-.05742-.66371-.27911-.93788l-.04275-.61453,.28756-.25545,.04719,.12889-.01581,.18027c-.12247,.12711-.12676,.25184,.0075,.37382-.10184,.36867,.21034,.66271,.1835,1.01786Z"/><path class="e" d="M25.01524,29.62807c-.76362,.01554-.87848,.19955-.50808,.90729,.11162,.21329,.16227,.38118,.02966,.58395-.19659-.25453-.07214-.66763-.41898-.84805-.00759-.08971-.015-.17941-.02241-.26911,.15953-.17955-.02527-.50302,.26286-.62882l.19312-.03698,.45087,.06184,.01297,.22987Z"/><path class="e" d="M10.01068,23.52198c-.66746-.04105-1.32135,.01375-1.94596,.2754,.35801-.63093,1.47292-.7887,1.94596-.2754Z"/><path class="e" d="M6.21062,25.46619c-.46852,.25696-.7068,1.02355-.46901,1.50633,.03993,.08107,.07579,.16415,.11364,.24622-.14144,.01027-.27328,.00564-.35171-.14564-.28412-.54796,.11749-1.61583,.71058-1.8831l.04081,.12621c-.01494,.0499-.02963,.09993-.04432,.14997Z"/><path class="e" d="M20.47209,25.9299c.19597,.05376,.04837,.32458,.24075,.38074,.00705,.05875,.0139,.11749,.02075,.17623-.1261,.24866-.1364,.46019,.18169,.56637l.0167,.26395c-.19117,.12381,.04477,.32957-.08911,.46437-.30136-.1288-.25101-.43095-.28643-.66158-.06011-.39135-.28417-.77905-.08435-1.19009Z"/><path class="e" d="M21.5806,30.93022c-.24823-.40397-.37181-.85269-.4576-1.31226-.02205-.11814,.00279-.24505,.00597-.3678,.14281,.00121,.17946,.16174,.29813,.19903l.00488,.14811c.02454,.11891-.19556,.34822,.14621,.32397l.04256,.0054,.04154-.01072,.03655,.26454-.03519,.28436c-.13962,.13515-.05333,.31061-.08305,.46537Z"/><path class="f" d="M37.59503,25.83195c-.36298,.01885-.71508,.0615-1.05277,.22751-.15515,.07628-.37829,.16716-.51522-.07817-.00997-.01876-.01291-.03852-.00881-.05932,.13799,.02546,.25395,.00343,.31154-.14447l.42412-.0522c.26739,.04117,.52152,.04134,.68996-.22326l.34179,.0137-.02028,.31045-.17033,.00576Z"/><path class="e" d="M20.10206,24.54117c.17262,.38236,.30577,.7739,.27975,1.20246-.41878,.02955-.59063-.12183-.47773-.56719,.05505-.21716,.04232-.45015,.19797-.63527Z"/><path class="e" d="M29.44055,11.50402c-.51043-.55533-1.17668-.50631-1.8386-.47402,.01698-.19618,.16112-.1889,.30136-.18874,.24348,.00028,.48995,.02438,.72982-.00503,.518-.06351,.77349,.16082,.80742,.66779Z"/><path class="f" d="M36.91029,17.55723c.13556-.01466,.27113-.02932,.40666-.0439l.0819,.00316c.04237,.21906,.24437,.21872,.39161,.24971,.50126,.10548,.86937,.39292,1.17225,.78567-.21944,.03799-.32433-.22218-.53548-.20587l-.14988-.04074c-.10929-.28572-.39834-.31025-.62397-.42249-.24195-.12036-.54576-.10095-.74308-.32554Z"/><path class="e" d="M22.04976,32.6823c-.3936-.32988-.62879-1.12284-.4656-1.56965,.27297,.17254,.22133,.4731,.2691,.72591,.03533,.18695,.03378,.3661,.27758,.39102,.01637,.02503,.03191,.05059,.04662,.07665l-.03939,.19525c-.0736,.03871-.08564,.10747-.0883,.18082Z"/><path class="f" d="M14.45052,22.60082c.33227-.21577,.61701,.09461,.93076,.08403,.10952,.06523,.2222,.12004,.3554,.10741,.11471,.31772,.38904,.11885,.58282,.18007-.02496,.33501-.16654,.3754-.4452,.20726-.3835-.23138-.77677-.45445-1.24336-.47671l-.17766-.01022c.00046-.03066-.00045-.06128-.00276-.09185Z"/><path class="f" d="M19.63966,21.38608c.48769,.05977,.89326,.30551,1.29061,.56987l.00571,.18045c-.35322-.05654-.56047-.43865-.94562-.42387l-.25972-.03596c-.21794-.17977-.50182-.14501-.74886-.23012,.19201-.31752,.44876,.07062,.65788-.06036Z"/><path class="e" d="M16.31961,22.97234c-.19391-.06123-.46823,.13764-.58295-.18008,.16877,.00403,.33272-.05417,.34182-.22902,.02553-.49053,.36576-.43535,.68612-.43149l.01266,.01273,.01307,.19339-.00445,.00388c-.27078,.09419-.44303,.26708-.4542,.56862-.00005,.02143-.00408,.04209-.01207,.06197Z"/><path class="e" d="M31.39509,26.96274c.51084,.2641,.92474-.12374,1.38407-.20588-.03145,.4653-.41432,.42574-.70921,.46024-.31557,.03692-.63902,.0065-.95909,.00543l.10502-.24048,.17922-.01932Z"/><path class="e" d="M13.07334,25.37727l-.04696-.12873c.00462-.02262,.0113-.0447,.02027-.06611,.14108-.03958,.20692-.13144,.19343-.27841l.00161-.0018c.18181,.00234,.30294-.06616,.31113-.2665,.00723-.02518,.00714-.05034-.00028-.07546,.02572,.00433,.04939-.0008,.07101-.01537l.26963,.00845,.19107,.17641c-.2952,.28105-.57675,.58342-1.01092,.64752Z"/><path class="f" d="M22.13083,32.22962c-.24378-.02495-.24224-.20411-.27757-.39105-.04777-.25282,.00387-.55337-.2691-.72591l-.00354-.18244c.0297-.15475-.05658-.33021,.08308-.46534,.14009,.15356,.14697,.35863,.21463,.54068,.11426,.30744-.00314,.68203,.2753,.93967l-.0228,.2844Z"/><path class="e" d="M26.95165,20.4685c-.26635-.04795-.51329-.14142-.76012-.25725-.18952-.08894-.41614-.21723-.63186-.02095l-.17372-.01539c-.00653-.08487-.01306-.16974-.01973-.25452,.49163-.05486,.95488,.01889,1.38861,.2743,.11715,.06898,.19004,.13983,.19682,.27383Z"/><path class="f" d="M24.11801,30.27127c.34667,.18041,.22222,.59351,.41881,.84804,.00067,.0296,.00294,.05906,.00676,.08839-.04251,.24801,.223,.4897,.01517,.7411-.29498-.5203-.33257-1.10818-.44073-1.67753Z"/><path class="e" d="M19.63966,21.38608c-.20912,.13097-.46587-.25716-.65794,.06057-.15187,.00996-.30369,.0197-.45551,.02943-.04077-.07431-.11474-.07777-.18594-.08718,.23226-.39245,.93756-.39399,1.29939-.00283Z"/><path class="e" d="M7.88964,23.80778c-.11454,.24007-.50521,.1591-.55364,.47596-.02165,.00712-.04382,.01125-.06658,.01226-.26973-.08871-.34667,.26929-.58533,.25258l-.0109-.0107c.11634-.47804,.55821-.74324,1.21644-.73009Z"/><path class="e" d="M15.75067,28.15151c.18938,.34657,.29821,.71307,.27506,1.11221-.44181-.23015-.53523-.60787-.27506-1.11221Z"/><path class="e" d="M16.76461,22.13175c.24127-.51929,.62874-.79386,1.21922-.72849-.00744,.08215-.01475,.1644-.02205,.24666l.01876,.03991-.19405-.02786c-.40941-.09667-.58265,.17706-.74179,.47292-.02012,.01206-.0418,.01974-.06502,.02302l-.20229-.01332-.01277-.01284Z"/><path class="e" d="M24.5588,31.94881c.20777-.25141-.05774-.4931-.01522-.74111,.28242,.06176,.27779,.28971,.27544,.50116-.00338,.30415,.00703,.60497,.08666,.90035-.10492-.06786-.20974-.13587-.31462-.2039l-.03226-.45649Z"/><path class="f" d="M40.73455,21.22509c-.00066,.23587-.00132,.47172-.00185,.70777-.15557-.00039-.19858,.23364-.37862,.18228,.00745-.08598,.01479-.1721,.02213-.25822l.04573-.65152,.31261,.01969Z"/><path class="e" d="M40.00738,19.54015c.38015,.19998,.56912,.50959,.54133,.94343-.09073,.02206-.19219-.13691-.27536,.01571-.04054-.12042-.08114-.24063-.12174-.36084,.04506-.13929-.00453-.21482-.15144-.22478l-.03182-.14685,.02887-.21851,.01017-.00817Z"/><path class="e" d="M26.86257,11.67726l-.00075,1.38691c-.38196-.28838-.11509-.6941-.18213-1.03975-.02682-.13827-.04786-.32201,.18288-.34716Z"/><path class="e" d="M20.936,22.13643l-.00573-.18047c.20552-.12576,.42048-.23169,.53405-.47275,.07024-.14909,.22636-.19948,.39451-.18041-.05202,.17986-.32979,.25008-.24204,.49769-.00615,.02109-.01391,.0417-.0236,.0616-.23622,.02471-.3192,.3589-.59861,.29621-.02108-.00312-.04061-.01042-.05858-.02188Z"/><path class="e" d="M15.14334,25.06016l-.04245,.22275c-.37607-.03598-.53159-.40447-.83323-.55267l.00269-.1765,.28237-.03419c.02626,.01499,.0511,.03203,.07458,.05108,.04178,.28215,.23465,.38941,.49057,.42369,.01003,.02135,.01852,.0433,.02547,.06585Z"/><path class="e" d="M38.43113,25.65039c.37392,.03452,.63774-.33165,1.01654-.27938-.33216,.48943-.72864,.59842-1.01654,.27938Z"/><path class="f" d="M21.42724,29.44918c-.1188-.03727-.15545-.1978-.29826-.19901-.00229-.08852-.0047-.17691-.00714-.26529,.02472-.15521-.06249-.32983,.08056-.46451,.13389,.06343,.08466,.27288,.24894,.312l.01502,.15216c-.13001,.14504,.10464,.32077-.03912,.46465Z"/><path class="e" d="M15.38385,26.39117c.12529,.23174,.19412,.47729,.1816,.74272-.444-.20542-.50443-.45258-.1816-.74272Z"/><path class="e" d="M22.50625,34.63165l.18882,.92169c-.41454-.28067-.48797-.63909-.18882-.92169Z"/><path class="e" d="M21.20234,28.52034c-.143,.13471-.05578,.30933-.0805,.46454-.31445-.25838-.23347-.59585-.18535-.92674,.09921,.04712,.11974,.19748,.25647,.19544l.04093-.01943-.03155,.28619Z"/><path class="e" d="M23.43311,36.02393c.3395,.1068,.67781,.03101,1.01634-.00668-.31753,.3703-.74669,.37314-1.01634,.00668Z"/><path class="e" d="M26.86274,13.24604c.19451,.24439,.29546,.51967,.27565,.83481-.4115-.17273-.38734-.48932-.27565-.83481Z"/><path class="e" d="M16.3855,29.90856c-.12219,.10361-.06359,.24724-.08274,.37367-.80166-.10738-.02561-.43741-.09148-.64863l.11013-.01069c.02127,.09528,.04268,.19046,.06409,.28564Z"/><path class="f" d="M21.1929,28.25359c-.13668,.00203-.15722-.14833-.25642-.19545-.00448-.10124,.0125-.20976-.09363-.27657,.1339-.1348-.10205-.34056,.08913-.46434l.28189,.55696-.02097,.3794Z"/><path class="e" d="M22.32425,33.98372c-.27645-.19478-.27626-.45716-.18159-.74263l.22926,.10326c.0119,.12092,.02365,.24178,.03541,.36264-.10519,.06898-.07415,.17886-.08307,.27673Z"/><path class="e" d="M40.73455,21.22509l-.31259-.01968-.01072-.28124c.22775-.04903,.10981-.23374,.14122-.35982,.35217,.13993,.13621,.43641,.18209,.66074Z"/><path class="e" d="M16.40527,30.45378l.91456,.00928c-.24804,.27577-.69054,.27129-.91456-.00928Z"/><path class="f" d="M22.37176,33.34428l-.2291-.10319-.09762-.45958c.06193-.02887,.07482-.06015,.00472-.09554l-.00005-.0036c.00271-.07341,.01475-.14217,.08835-.18086,.11289,.27124,.24137,.53813,.2337,.84277Z"/><path class="f" d="M25.01524,29.62807l-.01298-.22995c.18826-.06478,.37711-.06524,.56649-.00506l-.0157,.23402c-.17934,.00028-.35857,.00063-.53781,.00099Z"/><path class="e" d="M27.60187,11.02943c-.11991,.28668-.45445,.27751-.64442,.4676-.01709-.47535,.30466-.48389,.64442-.4676Z"/><path class="e" d="M10.93701,23.79742c-.2592-.05843-.51596-.12363-.74442-.26758,.3122-.08906,.60211-.1161,.74442,.26758Z"/><path class="e" d="M40.35397,22.115c.18015,.0515,.22315-.18253,.37873-.18214,.03492,.40467-.20797,.4949-.54372,.47999,.01655-.07592,.03309-.15184,.04994-.22752,.03854-.02329,.0768-.04681,.11505-.07033Z"/><path class="f" d="M22.32425,33.98372c.00892-.09788-.02212-.20775,.08311-.27673l.24701,.2198,.00798,.14565-.09272,.10324-.24081-.01617-.00457-.17579Z"/><path class="f" d="M17.96178,21.64991c.00731-.08225,.01461-.1645,.02205-.24666,.11891-.00467,.23769-.00945,.35645-.01428,.07118,.00934,.14516,.01281,.18594,.08718-.07085,.16117-.29573,.0506-.36822,.20882l-.19622-.03506Z"/><path class="f" d="M40.23863,22.18509l-.04964,.22776c-.00336,.02667-.00603,.05341-.00811,.08009-.15537-.01574-.33365,.07633-.45516-.09724,.13769-.15115,.3278-.17479,.51292-.2106Z"/><path class="e" d="M6.22542,25.02006c.0476-.25517,.13339-.47485,.44783-.48214l.01076,.01056,.02032,.19781-.00798,.00672c-.15538-.02545-.20565,.0464-.17706,.19126-.00363,.02243-.01169,.04314-.02418,.06213l-.26969,.01366Z"/><path class="f" d="M40.55246,20.56435c-.03141,.12609,.08652,.31079-.14133,.35983-.01791,.01769-.03929,.0251-.06423,.02224l-.07364-.4469c.08324-.15284,.1847,.00613,.27543-.01593,.00151,.02702,.00281,.05388,.00376,.08076Z"/><path class="e" d="M12.42854,22.79131c-.04597,.26497-.2592,.31542-.4712,.36746,.02589-.29064,.2443-.33449,.4712-.36746Z"/><path class="e" d="M37.76536,25.82619l.02027-.31043,.28051-.00586-.00591,.14792c-.01793,.19691-.15645,.18255-.29487,.16837Z"/><path class="e" d="M25.09175,33.43225c-.12684-.16455-.17862-.35325-.17967-.55828,.26107,.12134,.33918,.30157,.17967,.55828Z"/><path class="e" d="M15.19762,25.55819c.14956,.13108,.0637,.30838,.09104,.46345-.2251-.11623-.36931-.24834-.09104-.46345Z"/><path class="e" d="M17.32099,30.46288c.12428-.25356,.35681-.168,.55873-.17832-.10017,.32917-.37122,.12285-.55873,.17832Z"/><path class="e" d="M11.49662,23.62229c-.01024,.29877-.13629,.35993-.37784,.18416,.09456-.1257,.22415-.17965,.37784-.18416Z"/><path class="f" d="M14.27038,24.55379l-.00271,.17645-.18342-.00052-.191-.17643c.12594-.13054,.25165-.14112,.37713,.0005Z"/><path class="e" d="M15.6644,27.49982c.27139,.07698,.00848,.25962,.07449,.3772-.25198-.08094-.21065-.21972-.07449-.3772Z"/><path class="f" d="M6.22542,25.02006l.26967-.01367c-.00167,.16391-.10796,.24685-.23989,.30997l-.04106-.12635,.01128-.16995Z"/><path class="e" d="M22.32882,34.15951l.24099,.01619c.00857,.0598,.01695,.11957,.02534,.17935l-.09341,.09365c-.19091-.01678-.182-.15293-.17292-.2892Z"/><path class="e" d="M13.06503,25.93136c-.13426-.12198-.12997-.24671-.0075-.37382,.1398,.12181,.1394,.24648,.0075,.37382Z"/><path class="e" d="M11.77496,23.34234c-.01453,.17084-.10272,.26829-.27791,.27909-.00082-.18606,.09426-.27665,.27791-.27909Z"/><path class="e" d="M22.69749,35.55692c.12608,.05734,.2133,.15439,.27927,.27316-.20992,.02843-.30645-.05911-.27927-.27316Z"/><path class="e" d="M32.8706,26.48432l.00334-.27568c.07574,.01149,.15797,.01949,.16905,.11743,.0143,.12634-.07608,.14761-.17239,.15825Z"/><path class="f" d="M28.06173,28.24116l.00445,.19036-.09481,.09875c-.04521-.01864-.09042-.03719-.1354-.05542,.05312-.09915,.10437-.20022,.22577-.23369Z"/><path class="e" d="M27.83575,28.47453l.13562,.05574c-.00532,.11672-.06945,.17398-.18296,.18137l-.00715-.00702-.0072-.19619c.02017-.01202,.04073-.02332,.0617-.0339Z"/><path class="e" d="M7.97329,32.50319l.09314-.08732-.09314,.08732Z"/><path class="e" d="M22.04976,32.68597c.0701,.03539,.05722,.06667-.00472,.09554l.00472-.09554Z"/><path class="f" d="M16.32155,29.62283l-.11026,.01078,.0011-.09291,.10725,.00993c.00487,.02388,.00555,.04798,.00191,.0722Z"/><path class="e" d="M16.31976,29.55071l-.10737-.01001c.00003-.03082,.00006-.06158,.00006-.0923l.11416-.00131-.00685,.10362Z"/><path class="c" d="M17.96178,21.64991l.19621,.03501c.52483,.11383,1.04915,.13091,1.57264-.00836,.08657,.01198,.17315,.02397,.25979,.03575,.27793,.4466,.70538,.67531,1.18898,.83155,.1332,.04303,.20049,.01522,.24173-.1089,.31003-.3701,.70937-.67259,.87305-1.15345l.0068-.00836c.21166,.03827,.29261-.06589,.28761-.26364,.02128-.01302,.04429-.02117,.06918-.02426,.15014,.04738,.21619-.00998,.20463-.16398,.02129-.01438,.04463-.02351,.07019-.02712,.38805-.09407,.83957-.0504,1.06742-.49181l.17338-.01624c.13628,.14373,.31666,.09128,.47527,.08885,.4726-.00724,.92933,.043,1.39268,.15947,.28925,.07271,.494,.39602,.83831,.27227l.01087,.00899c.0109,.056,.00228,.13362,.03619,.16441,.59329,.53869,1.20759,1.05116,1.56975,1.79929,.2215,.45756,.32006,.96695,.60919,1.39313,.00428,.08154,.00855,.16309,.01256,.24478-.06198,.3609-.06162,.72175-.00189,1.08269-.00454,.14395-.00907,.28791-.0137,.43185-.22384-.00576-.22346,.19057-.26201,.32119-.42319,1.43399-1.30866,2.41517-2.75774,2.85794-.11484,.03509-.2384,.08205-.24535,.23813l-.26875,.04386c-.18938-.06009-.37823-.05963-.56649,.00515l-.45087-.06172c-.08346-.36227-.37316-.26391-.59907-.2435-.28509,.02576-.24147,.2712-.24181,.4661-.00097,.55548,.22475,1.07278,.34606,1.59865,.25475,1.10429,.51122,2.21114,.7864,3.31214,.117,.46813-.21385,1.09565-.66073,1.25385-.43605,.15437-.90694-.13918-1.15385-.66972-.08385-.18017-.0753-.43476-.31792-.52412l-.01284-.1753c.12024-.11052,.10855-.20455-.03528-.28205-.00266-.04855-.00532-.0971-.00776-.14581,.08987-.552-.2462-1.01465-.32639-1.53145-.00568-.03656-.09846-.05961-.15075-.08894-.01471-.02606-.03024-.05162-.04662-.07665l.02273-.28435c.15812-.23918,.00487-.49174-.04111-.70026-.08021-.36376-.08896-.78525-.41361-1.06449l-.03652-.26456c.14842-.35546-.01639-.64499-.19597-.9314-.00501-.05072-.01002-.10144-.01482-.15228,.03716-.23936,.02765-.46167-.21764-.5981l-.04094,.01943,.02092-.37938c.19729-.18915,.02039-.3957-.02473-.55375-.1253-.43887-.11643-.92691-.42237-1.30737l-.01531-.17427c.14734-.40193-.11975-.73931-.17801-1.10917-.03291-.20894-.01173-.46235-.2769-.56476-.02916-.11864-.01731-.25202-.1232-.34317-.00147-.06033-.03254-.09139-.09254-.09383l-.08498-.09328c-.35811-.53963-.86039-.66339-1.2944-.3191l-.17401,.02854c-.03482-.06135-.08815-.08445-.15355-.06169-1.04208,.3626-1.09293,1.80631-.54159,2.37711l.01726,.18371c-.12194,.27056-.09154,.49827,.18472,.65685,.01613-.0051,.03112-.01249,.04494-.02215l-.03252,.28375c-.11838,.11319-.11243,.28459-.06138,.38633,.25373,.50565,.22935,1.07712,.40921,1.60286,.11589,.33875,.31028,.74821-.05445,1.09202l-.15229,.00987c-.39946-.13802-.73455,.17658-1.1215,.15808-.21465-.01026-.42317-.01416-.46183-.26574-.05339-.34746-.22535-.66986-.21018-1.02959,.0078-.18503-.0347-.33659-.23705-.3935l-.02479-.17224c.04573-.21911,.05117-.42631-.16781-.56713l-.02617-.26279c.04166-.37487,.05678-.7432-.25366-1.03147l-.01498-.17495c.03356-.48691-.10263-.92724-.37634-1.32536-.07113-.10347-.17718-.16662-.31515-.12138-.09085-.12771-.21522-.13278-.35105-.09593-.02343-.0191-.04828-.03614-.07453-.05107-.33755-.37576-.73132-.36507-.92916,.02528-.02162,.01458-.04529,.0197-.0711,.0153-.53458-.00155-.86905,.38632-.81388,.94364l.04277,.6145c-.23077,.486,.1137,.92715,.15778,1.38724,.08802,.91867,.39914,1.82051,.66463,2.7155,.11163,.37632-.03741,.55492-.32822,.68029-.16467,.07099-.35287,.0997-.53345,.11795-.17123,.01732-.29749,.06394-.33586,.24705-.02555,.01579-.05063,.0323-.07527,.04948l-.28267-.02769c-.27969-.13387-.56453-.09604-.84662-.01598-.16642,.04722-.34674,.23675-.48833,.00836-.10819-.17453,.05126-.32784,.16565-.43842,.65625-.6344,.5844-1.40063,.41071-2.18445-.06027-.272-.19495-.42698-.52691-.34087-.77832,.20189-1.42421,.67524-2.12179,1.03435-.24825,.1278-.41342,.49779-.52567,.7919-.22369,.58607,.26043,1.23516,.8928,1.24861,.3081,.00656,.61765,.01418,.92448-.00768,.2944-.02097,.39352,.10373,.35477,.37717l-.16974,.05907c-.11852-.00909-.23699-.01804-.35547-.02699-.24886-.01324-.53234-.14836-.6804,.19325-.04931,.00121-.09862,.00243-.14807,.00335-.27886-.07414-.51846-.02954-.6881,.22689-.17204,.01545-.34409,.03091-.51627,.04616-.46997,.01275-.72601-.26229-.95467-.63743-.14415-.2365-.15147-.56363-.43913-.71008-.04419-.33004-.038-.66,.00131-.98997,.17127-.04785,.16113-.17597,.13709-.31023l.1153-.348c.28079-.09081,.48739-.23704,.43225-.57875l.00501-.00626c.21131,.04783,.28795-.13956,.41665-.23703,.23962-.18147,.44924-.37883,.74992-.50272,.75763-.31217,1.48866-.69412,2.21174-1.08275,.3781-.20321,.38805-.47273,.19006-.85117-.33515-.6406-.915-.68623-1.50357-.61275-.55572,.06938-.97116,.38927-1.21706,.9255-.17411,.37967-.28765,.83838-.75405,.98497-.37165,.11682-.65981-.06811-.86707-.36855-.23399-.33919-.17546-.6975-.01806-1.04674,.27287-.60546,.72157-1.05062,1.28025-1.39827,.10643-.06623,.34189-.08328,.19943-.31804,.06704-.08798,.16453-.08227,.25949-.08438,.11896,.12596,.24756,.0552,.38205,.02948,.5932-.11346,1.17947-.31743,1.7971-.13785,.35988,.10465,.72973,.17799,1.0837,.29881,.18325,.06255,.25741,.03731,.27489-.15008,.02191-.02036,.04603-.03765,.07235-.05183,.14677,.01087,.28041-.0183,.35066-.16145,.20123-.41007,.58497-.57565,.94875-.80324,.2426-.15176,.66578,.00848,.74373-.41289l.17879-.00527c.21634,.13535,.43201,.13356,.64702-.00318l.1777,.01016c.02342,.05544,.03211,.14302,.07245,.16149,.42236,.19333,.84216,.39723,1.2793,.55096,.19378,.06815,.37914,.02627,.524-.22652,.27199-.47464,.65417-.87406,1.13136-1.16408,.14143-.08595,.31986-.12928,.34247-.33484l-.01876-.03991Zm9.4604,3.45107c-.10058-1.07649-.43113-2.11473-1.42033-2.7996-1.01779-.70467-1.98068-.43897-2.59708,.48819-.92546,1.39201-.46349,3.27599,.66677,4.3196,.89264,.8242,2.01626,.76682,2.75747-.13629,.42267-.51499,.55359-1.14908,.59317-1.87191Z"/><path class="c" d="M38.06614,25.5099l-.28051,.00586c-.11392-.00458-.22786-.00915-.34194-.01394-.26099-.02106-.51814-.03054-.68981,.22349-.14137,.0174-.28275,.0348-.42423,.05203-.14524-.04079-.28008-.05931-.31143,.14465-.0041,.0208-.00116,.04056,.00881,.05932l-.18499-.00301c-.14452-.00331-.28904-.00659-.43371-.01012-.22269-.06202-.40515-.0228-.51337,.20347-.11245,.00308-.22489,.00616-.3374,.00937-.03848-.171-.13082-.26625-.31906-.22659-.15206-.01983-.2357-.13333-.32594-.23779-.0122-.07428-.03977-.13563-.12535-.1479-.08533-.03932-.17065-.07865-.25593-.1181l-.03826-.02054c-.02797-.22588-.27509-.34368-.28569-.57818-.17855-.43894-.27421-.92136-.65736-1.25296l-.02946-.17163c.11923-.2925,.06805-.54377-.18096-.74714l-.01004-.26856c.13161-.33871,.13124-.6771-.00256-1.01515l.01479-.17683c.35114-.52033,.46892-1.13441,.68623-1.70851,.00093-.02413,.00651-.04713,.01689-.06895,.08696-.02294,.11445-.08668,.11575-.16839l.09048-.09751c.28289-.09211,.48718-.25838,.53768-.56979l.00243-.00193c.36266-.09247,.62644-.32497,.85674-.60485,.07528-.06874,.15811-.11997,.26541-.1145,.06742,.09002,.15427,.07253,.24812,.05289,.87498-.18308,1.73247-.23182,2.57319,.19041,.1531,.07689,.32109,.25337,.54266,.17678l.14989,.0407c.01093,.04402,.00696,.10494,.03496,.12965,.76475,.67491,1.41281,1.43377,1.76763,2.4098,.01109,.03049,.07682,.04111,.11708,.06099,.02494,.00287,.04632-.00454,.06423-.02224,.00368,.09374,.00727,.18749,.01083,.28124l-.04577,.65153c-.30665,.16571-.66351,.23349-.93023,.47704l-.33923,.0167c-.21844-.05126-.40026-.01262-.50834,.20705-.20563,.08346-.41904,.11214-.63955,.09078-.21664-.11077-.37603-.06183-.47035,.16861l-.07635,.05575-.28356-.02829c-.32692-.12724-.58127,.02836-.82831,.2125-.11435,.0097-.2287,.0194-.34319,.02895-.23356-.02174-.49738-.12457-.59313,.22173l-.16404,.06389-.1961-.04594c-.23013-.11021-.34298-.03165-.3499,.21739l-.00427,.24543c.05244,.39641,.69952,1.06202,1.08609,1.10861,.03074,.00371,.06844-.05015,.1029-.07727l.1773,.03643c.17366,.44349,.55588,.22242,.83848,.2329,.5944,.02206,1.20094-.41947,1.37868-.93217l.09632-.08235c.15903-.04646,.2104-.14916,.15947-.30529,.00281-.02363,.01057-.04551,.02326-.06564,.38734-.36018,.84666-.40413,1.33862-.3047,.02334,.00408,.04465,.013,.06393,.0268-.00975,.17279,.08372,.26225,.24179,.29955l.02497,.16917c-.12778,.15225-.12569,.30571-.0043,.46029,.00323,.07471-.00951,.14312-.07519,.19066-.14234-.00339-.20108,.06269-.16945,.20386l-.03573,.15058c-.34033,.11322-.76519-.02421-1.01968,.34381l-.26534,.01878c-.21976-.03709-.4369-.06608-.56375,.18308-.0034,.02408,.00264,.04551,.01811,.06428Zm-1.67711-6.23225c-1.22441,.04213-1.98473,.91921-2.19039,1.89124-.08851,.41834,.1077,.56833,.5326,.45992,.63825-.16283,1.28396-.29827,1.92055-.46003,.47231-.12002,.97451-.14568,1.41887-.37139,.12761-.06482,.33364-.10738,.18412-.32388-.47686-.69049-1.12203-1.10895-1.86574-1.19587Z"/><path class="c" d="M31.39509,26.96274l-.17922,.01932c-.02932-.00921-.05834-.0255-.088-.02676-.76834-.03261-.78785-.05773-.93802-.81934-.20146-1.02174-.45832-2.03053-.7101-3.04111-.289-1.15997-.51208-2.33621-.77752-3.50226-.21066-.92541-.44868-1.84457-.66214-2.76937-.18931-.8202-.35703-1.64536-.54294-2.46638-.11867-.52404-.22595-1.05314-.38832-1.56409-.15322-.48217-.06758-.89607,.27932-1.22786,.33998-.32516,.75264-.45531,1.2292-.26019,.46631,.19092,.65349,.55065,.74572,1.02225,.15848,.81026,.3649,1.61101,.53914,2.41835,.21316,.98764,.48284,1.96124,.68086,2.95366,.23663,1.18597,.56083,2.35429,.83823,3.53234,.19998,.84929,.38238,1.7027,.57962,2.55266,.04723,.20353,.03724,.43808,.24968,.57196l.02122,.18213c-.06216,.54335,.1596,1.04314,.26348,1.55751,.07775,.38496-.01903,.534-.38694,.59701-.26188,.04486-.55474,.03593-.75327,.27018Z"/><path class="d" d="M25.83751,29.3491c.00695-.15608,.13051-.20303,.24535-.23813,1.44908-.44277,2.33455-1.42395,2.75774-2.85794,.03855-.13061,.03817-.32695,.26201-.32119-.0051,.73933-.39103,1.32503-.77687,1.90868-.06685,.10112-.17428,.17611-.16843,.31484l-.09559,.08581c-.12139,.03344-.17263,.13451-.22576,.23366-.02118,.01027-.04174,.02157-.06184,.03367-.1105,.01448-.16952,.0814-.19054,.18707l-.09217,.0798c-.44163,.16447-.87589,.34498-1.28038,.5901l-.37353-.01638Z"/><path class="d" d="M29.10564,24.17253c-.28912-.42617-.38768-.93557-.60919-1.39313-.36216-.74813-.97646-1.2606-1.56975-1.79929-.03391-.03079-.02529-.1084-.03619-.16441,.5926,.12337,.84759,.69723,1.31614,.98587,.00865,.02154,.01888,.04225,.03053,.06224,.00854,.11095,.07439,.17228,.17571,.20292,.00244,.02366,.01,.04556,.02269,.06566,.26326,.54944,.54207,1.09268,.67562,1.69388,.02577,.11601,.10125,.23251-.00558,.34626Z"/><path class="d" d="M32.54997,23.59893c.38316,.3316,.47882,.81403,.65754,1.25285-.24527-.05407-.23444-.38305-.4747-.44258l-.0392-.23885c.02323-.20835-.22747-.34784-.14365-.57142Z"/><path class="d" d="M29.11631,25.5c-.05974-.36094-.06009-.72179,.00189-1.08269,.23814,.36128,.23847,.72222-.00189,1.08269Z"/><path class="d" d="M32.32697,21.39644c.1338,.33805,.13417,.67644,.00256,1.01515l-.09487-.09162,.00224-.92123c.03-.00234,.06001-.00312,.09007-.00229Z"/><path class="d" d="M32.33955,22.68016c.24902,.20337,.3002,.45464,.18096,.74714-.24833-.20351-.21207-.47595-.18096-.74714Z"/><path class="b" d="M37.31175,23.14825c.27843,.20705,.58692-.08489,.87203,.04366,.04942,.15077-.2636,.27769-.01996,.42766-.01435,.25197-.35679,.35696-.28931,.64556l-.08712,.09399c-.18364-.00944-.34104,.04867-.46918,.18213l-1.39535,.0062c-.13674,.00679-.25723-.13541-.40321-.04399-.02638-.005-.04993-.01605-.07064-.03313,.0178-.14147-.03839-.20758-.18499-.18164l-.00603-.00523c.0395-.11224-.02979-.19699-.07249-.28843-.00937-.38287,.49594-.25376,.56034-.56325,.52558-.07455,1.05408-.13302,1.5659-.28355Z"/><path class="f" d="M39.10673,22.35067l.33925-.01676,.10095,.08918c-.01365,.04371-.01763,.11891-.04237,.12652-.59104,.18158-1.16561,.46533-1.81422,.31493,.05504-.11478,.24486-.06217,.26849-.21604,.22051,.02136,.43391-.00732,.63961-.09054,.2221,.05994,.38687-.02059,.50828-.20728Z"/><path class="f" d="M37.31175,23.14825c-.51182,.15053-1.04032,.20899-1.5659,.28354l.00227-.11301,.20912-.23259,.34306-.0291c.31209,.06937,.58123-.02854,.82829-.21251l.28356,.02829-.1004,.27539Z"/><path class="f" d="M37.87451,24.26515c-.06748-.2886,.27496-.39359,.28931-.64556,.26277-.16113,.32501-.62476,.77012-.51056-.08111,.24027-.4717,.26145-.42179,.59472-.01269,.02013-.02045,.04201-.0231,.06577-.15138,.05033-.16666,.17191-.15963,.30517l-.09624,.08244c-.1195,.03607-.23908,.07205-.35867,.10803Z"/><path class="d" d="M38.51215,23.70375c-.04992-.33327,.34068-.35446,.42179-.59472,.26887-.06175,.52984,.00936,.7928,.04614,.04124,.08144,.08247,.16286,.12387,.24409-.4918-.09963-.95112-.05568-1.33846,.3045Z"/><path class="d" d="M39.54694,22.4231l-.10095-.08918c.2667-.24349,.62355-.31127,.9302-.47698-.00733,.08611-.01467,.17223-.02212,.25821-.03835,.02338-.07661,.0469-.11516,.07019-.1854,.03557-.37551,.05921-.5132,.21037l-.17877,.0274Z"/><path class="d" d="M37.95884,22.6485c-.02363,.15387-.21345,.10127-.26849,.21604-.06726-.01572-.13452-.03139-.20182-.04724,.09429-.23063,.25368-.27957,.47032-.1688Z"/><path class="d" d="M7.71474,24.17456c.14246,.23476-.093,.25181-.19943,.31804-.55868,.34766-1.00739,.79281-1.28025,1.39827-.15739,.34924-.21592,.70755,.01806,1.04674,.20726,.30045,.49541,.48537,.86707,.36855,.4664-.14659,.57994-.60529,.75405-.98497,.2459-.53623,.66135-.85612,1.21706-.9255,.58857-.07348,1.16842-.02785,1.50357,.61275,.19799,.37844,.18804,.64795-.19006,.85117-.72308,.38863-1.45411,.77058-2.21174,1.08275-.30069,.12389-.5103,.32126-.74992,.50272-.12871,.09747-.20534,.28486-.41665,.23703,.00732-.08465,.0148-.16911,.02229-.25359,.13024-.1133,.26047-.22657,.39057-.34001,.1018-.01787,.16655-.07951,.20432-.17305l.14256-.03895c.49976-.15383,.96908-.38331,1.42302-.63337,.31253-.17216,.7223-.18884,.92631-.54525,.02219,.00247,.04316-.00152,.06288-.01209,.4465-.07353,.31633-.28651,.12448-.51442l-.03437-.14595c-.11512-.37411-.45059-.43047-.7531-.45962-.88547-.08531-1.463,.44058-1.76689,1.55995-.01145,.01935-.01608,.04021-.01369,.06277-.29326,.22293-.62401,.33373-.9926,.33093l-.17629-.01312c-.78122-.61276-.83852-.92419-.37534-2.04015,.01466-.05004,.02935-.10008,.04429-.14998,.13218-.06298,.23848-.14592,.24015-.30983,.01251-.01898,.02057-.03969,.02404-.0623,.09813-.02743,.16878-.08035,.17721-.19108l.00776-.00686c.24376-.08044,.45721-.19912,.56532-.45016,.02275-.00101,.04492-.00514,.06658-.01226,.12629-.0363,.25251-.07273,.37874-.10917Z"/><path class="f" d="M7.76856,27.12576c.30389-1.11937,.88142-1.64526,1.76689-1.55995,.30251,.02915,.63798,.08551,.7531,.45962-.56333-.24558-1.11787-.33807-1.67796,.02837-.19291,.12621-.30847,.2784-.36994,.49323-.07364,.25739-.21384,.46819-.47209,.57873Z"/><path class="f" d="M10.13556,26.69789c-.20401,.35641-.61379,.37309-.92631,.54525-.45394,.25006-.92325,.47954-1.42302,.63337,.00635-.16162,.10868-.2213,.2469-.28533,.56057-.25972,1.11234-.53843,1.66741-.81002,.13739-.06722,.27377-.14042,.43503-.08327Z"/><path class="f" d="M6.76228,27.51946c.36859,.00279,.69934-.108,.9926-.33093-.10463,.42238-.6725,.61186-.9926,.33093Z"/><path class="f" d="M10.32292,26.17138c.19185,.22791,.32203,.4409-.12448,.51442l.12448-.51442Z"/><path class="f" d="M7.64367,27.91547c-.03777,.09354-.10252,.15519-.20432,.17305-.01887-.16017,.04841-.21884,.20432-.17305Z"/><path class="d" d="M18.34006,29.84281c.36473-.34381,.17034-.75327,.05445-1.09202-.17985-.52573-.15547-1.09721-.40921-1.60286-.05105-.10175-.05701-.27314,.06146-.38631,.22181,.16113,.13164,.46492,.29803,.65134l.01873,.17297c-.03528,.21547,.02482,.40247,.16833,.56457l.08919,.55342c.04426,.23993,.08189,.48136,.13429,.71955,.07953,.36149-.07113,.48331-.41529,.41935Z"/><path class="d" d="M17.83228,25.65945c-.55134-.57079-.50049-2.01451,.54159-2.37711,.0654-.02276,.11873,.00034,.15355,.06169-.13043,.23577-.47388,.26348-.54453,.55759l-.00394,.00327c-.13639,.04691-.21824,.11857-.1226,.2706l-.01041,.14769c-.23112,.23891-.22303,.47697,.00225,.71441l.01434,.24232c-.12011,.11774,.05338,.2589-.03024,.37954Z"/><path class="f" d="M18.3448,27.41296c-.16639-.18642-.07622-.49021-.29803-.65134,.01074-.0946,.02156-.18918,.03243-.28377,.35327,.23653,.33327,.57905,.2656,.93511Z"/><path class="f" d="M17.83228,25.65945c.08362-.12064-.08987-.2618,.03024-.37954,.15348,.29117,.37172,.56755,.21288,.93022-.15374-.07409-.0439-.3103-.22585-.36697l-.01726-.18371Z"/><path class="d" d="M17.84954,25.84316c.18195,.05667,.07212,.29288,.22585,.36697-.0136,.09662-.02726,.19322-.04102,.28985-.27637-.15855-.30677-.38626-.18483-.65682Z"/><path class="f" d="M17.84818,25.03759c-.22528-.23744-.23337-.4755-.00225-.71441,.04745,.23788,.04702,.47607,.00225,.71441Z"/><path class="f" d="M18.53187,28.1505c-.14352-.1621-.20361-.34909-.16833-.56457,.20274,.14449,.31203,.31685,.16833,.56457Z"/><path class="f" d="M17.85634,24.17549c-.09563-.15202-.01379-.22368,.1226-.2706-.00365,.1071,.00216,.21845-.1226,.2706Z"/><path class="c" d="M42.87446,24.66853c.00967,.37931-.3797,.79383-.74354,.79158-.34793-.00216-.72368-.38493-.73675-.75051-.01348-.37673,.38386-.80869,.742-.80665,.33761,.00192,.72918,.40796,.73829,.76558Z"/><path class="d" d="M10.28738,31.76113c.03875-.27344-.06037-.39814-.35477-.37717-.30682,.02187-.61637,.01424-.92448,.00768-.63237-.01345-1.11649-.66254-.8928-1.24861,.11225-.29411,.27742-.6641,.52567-.7919,.69758-.35912,1.34347-.83246,2.12179-1.03435,.33196-.08611,.46664,.06886,.52691,.34087,.17369,.78382,.24554,1.55005-.41071,2.18445-.11439,.11058-.27384,.26389-.16565,.43842,.14159,.22839,.32191,.03886,.48833-.00836,.28209-.08006,.56693-.11789,.8466,.01604-.12941,.15324-.3244,.14774-.49297,.20898-.26652,.09683-.59297,.01515-.80595,.26949l-.46198-.00554Zm-1.04031-.53558c1.10253-.03619,2.25213-.81159,1.82579-2.38213-.07971-.29364-.14674-.4057-.4532-.23741-.53514,.29384-1.09125,.54929-1.62926,.83816-.49461,.26557-.69617,.74029-.57587,1.22654,.11855,.47914,.4764,.54666,.83254,.55483Z"/><path class="d" d="M12.40624,31.26635c.03837-.18311,.16463-.22973,.33586-.24705,.18058-.01825,.36878-.04695,.53345-.11795,.29082-.12537,.43985-.30397,.32822-.68029-.26549-.89499-.57661-1.79682-.66463-2.7155-.04408-.46009-.38855-.90124-.15778-1.38724,.22167,.27421,.22002,.61572,.27909,.93792,.03528,.1924,.0487,.38993,.19464,.54145,.00936,.08768,.01869,.17536,.02785,.26309-.03861,.34491,.13885,.63366,.24436,.9411l.01816,.17379c-.03954,.21774-.00579,.41327,.17099,.56555,.01365,.11746,.02729,.23492,.04074,.35245-.0513,.17434,.01927,.34104,.07289,.49109,.14795,.41403,.00133,.59749-.41051,.67195-.2491,.04504-.5193,.06324-.72603,.24736l-.28729-.03772Z"/><path class="f" d="M12.69352,31.30407c.20673-.18412,.47693-.20231,.72603-.24735,.41184-.07446,.55846-.25792,.41051-.67195-.05362-.15005-.12418-.31675-.07289-.49109,.41062,.32424,.30654,.78301,.31682,1.21174-.30522,.07878-.61064,.15648-.9153,.23705-.16045,.04243-.32072,.10379-.46518-.03839Z"/><path class="f" d="M10.74936,31.76667c.21298-.25434,.53943-.17266,.80595-.26949,.16857-.06124,.36356-.05574,.49297-.20898l.28269,.02763c-.00697,.02928-.00472,.06682-.02237,.08649-.22406,.24958-1.21229,.47867-1.55923,.36435Z"/><path class="f" d="M9.76217,31.7932c.11848,.00895,.23696,.0179,.35547,.02699-.15973,.3861-.4405,.36981-.75886,.22841,.09534-.14698,.35006-.04216,.40339-.2554Z"/><path class="d" d="M9.76217,31.7932c-.05333,.21324-.30805,.10841-.40339,.2554l-.17119,.02341-.10583-.08574c.14808-.34144,.43155-.20632,.68041-.19308Z"/><path class="d" d="M22.71047,34.52979c.24263,.08937,.23408,.34395,.31792,.52412,.2469,.53054,.71779,.82409,1.15385,.66972,.44687-.1582,.77772-.78572,.66073-1.25385-.27518-1.101-.53165-2.20784-.7864-3.31214-.12131-.52588-.34703-1.04317-.34606-1.59865,.00034-.1949-.04328-.44034,.24181-.4661,.22591-.02041,.51562-.11877,.59907,.2435l-.19312,.03686c-.09843-.14329-.24621-.1431-.36862-.07603-.13225,.07249-.09126,.21795-.04323,.33141,.05233,.1236,.00742,.2865,.149,.3735,.00741,.0897,.01483,.1794,.02241,.26911,.10833,.56935,.14593,1.15723,.44091,1.67753l.03232,.45651c.08595,.72882,.38772,1.40892,.47152,2.14035,.07354,.64186-.24489,1.16438-.85587,1.3264-.59531,.15787-1.16465-.15673-1.36851-.7686-.06167-.18509-.18401-.36085-.12773-.57367Z"/><path class="d" d="M22.66235,34.07244c.14383,.0775,.15553,.17153,.03528,.28205l-.10247,.00057c-.0084-.05978-.01679-.11956-.02535-.17935l.09254-.10326Z"/><path class="d" d="M11.51196,24.13053c-.01748,.18739-.09163,.21263-.27489,.15008-.35397-.12082-.72381-.19416-1.0837-.29881-.61763-.17958-1.2039,.02439-1.7971,.13785-.13449,.02572-.26309,.09648-.38205-.02948,.63312-.36893,1.31797-.46379,2.02621-.33093,.50914,.0955,1.00805,.24556,1.51153,.37129Z"/><path class="d" d="M13.62746,22.70112c-.07795,.42137-.50113,.26113-.74373,.41289-.36379,.22758-.74753,.39317-.94875,.80324-.07025,.14315-.20388,.17232-.35066,.16145,.44214-.81352,1.12275-1.27335,2.04315-1.37758Z"/><path class="d" d="M14.45327,22.69267c-.21501,.13674-.43067,.13853-.64702,.00318l.00049-.09792,.6438,.00288c.00227,.03058,.00319,.0612,.00272,.09186Z"/><path class="f" d="M13.5273,28.80189c-.10552-.30744-.28298-.59619-.24436-.9411,.27662,.26306,.43099,.55785,.24436,.9411Z"/><path class="f" d="M13.71645,29.54123c-.17678-.15227-.21053-.34781-.17099-.56555,.22352,.13819,.30931,.31801,.17099,.56555Z"/><path class="d" d="M38.27735,18.30526c-.22157,.07659-.38956-.09989-.54266-.17678-.84071-.42223-1.69821-.37349-2.57319-.19041-.09385,.01964-.1807,.03714-.24812-.05289,.15867-.18099,.45798-.10769,.5947-.32838,.07754-.00423,.15491-.0088,.2323-.01353,.28154,.0878,.56308,.08233,.84464,.00005,.10854,.0044,.21707,.0088,.32544,.01355,.19716,.22494,.50096,.20554,.74291,.32589,.22564,.11224,.51468,.13677,.62397,.42249Z"/><path class="d" d="M33.02798,19.5111c-.21731,.5741-.33509,1.18818-.68623,1.70851,.06626-.63476,.20806-1.23917,.68623-1.70851Z"/><path class="d" d="M34.64796,17.99968c-.23031,.27989-.49409,.51238-.85674,.60485,.20966-.30917,.45246-.5714,.85674-.60485Z"/><path class="d" d="M33.78879,18.60646c-.0505,.31141-.25479,.47769-.53768,.56979,.07583-.28748,.25841-.47426,.53768-.56979Z"/><path class="d" d="M33.16062,19.27377c-.00131,.08171-.02879,.14545-.11575,.16839-.00008-.08272,.02349-.14919,.11575-.16839Z"/><path class="d" d="M20.76677,26.01308c.30594,.38046,.29707,.86849,.42237,1.30737,.04513,.15805,.22202,.3646,.02473,.55375l-.28188-.55697-.01663-.26405c.01765-.21392-.01954-.41018-.18176-.5663-.00685-.05874-.0137-.11748-.02075-.17623,.01784-.09919,.03589-.19838,.05393-.29756Z"/><path class="d" d="M20.29654,24.16488c.26517,.10241,.24399,.35582,.2769,.56476,.05826,.36986,.32535,.70723,.17801,1.10917-.31364-.51394-.31356-1.11315-.45491-1.67393Z"/><path class="d" d="M18.70143,23.31549c.43401-.3443,.93629-.22053,1.2944,.3191-.41213-.18488-.82886-.35094-1.2944-.3191Z"/><path class="d" d="M20.0808,23.72787c.05999,.00244,.09106,.0335,.09254,.09383l-.09254-.09383Z"/><path class="d" d="M26.87965,20.80672c-.34431,.12375-.54907-.19956-.83831-.27227-.46335-.11647-.92008-.16671-1.39268-.15947-.15861,.00243-.33899,.05488-.47527-.08885,.38925-.19972,.81143-.04001,1.21252-.11114l.17377,.0153c.44069,.2039,.97538,.20664,1.31997,.61642Z"/><path class="d" d="M22.29418,21.28153c-.16368,.48086-.56302,.78336-.87305,1.15345-.01232-.01101-.02427-.02241-.03585-.03419l.20799-.53867c.0096-.01992,.01736-.04054,.02351-.06163,.2814-.10052,.37728-.44293,.6774-.51896Z"/><path class="d" d="M24.00001,20.30236c-.22785,.44141-.67937,.39775-1.06742,.49181,.26945-.35141,.65871-.44274,1.06742-.49181Z"/><path class="d" d="M22.58859,21.00953c.00499,.19775-.07596,.30191-.28761,.26364,.03052-.15935,.1268-.24675,.28761-.26364Z"/><path class="d" d="M22.86239,20.8213c.01156,.15399-.05449,.21135-.20463,.16398,.03589-.0951,.09732-.15822,.20463-.16398Z"/><path class="d" d="M16.15721,28.32193c.20236,.05691,.24485,.20848,.23705,.3935-.01517,.35972,.15679,.68212,.21018,1.02959,.03866,.25157,.24718,.25548,.46183,.26574,.38695,.0185,.72204-.2961,1.1215-.15808-.41902,.3605-.97124,.26767-1.45344,.41536-.23037,.07056-.2004-.26507-.34877-.35945-.02147-.09522-.04288-.1904-.06415-.28568,.00378-.02431,.0031-.0484-.00177-.07229l.00697-.10354c.01892-.38642-.27364-.7259-.1694-1.12515Z"/><path class="d" d="M14.97831,24.6666c.13797-.04524,.24401,.01792,.31515,.12138,.27371,.39811,.40991,.83845,.37634,1.32536-.17089-.15585-.16754-.37855-.22582-.5787-.05391-.18512-.06685-.4015-.30088-.4743-.0067-.02273-.01519-.04468-.02532-.06597-.04656-.10921-.09301-.21849-.13946-.32777Z"/><path class="d" d="M15.68478,26.2883c.31044,.28828,.29532,.6566,.25366,1.03147-.12992-.33266-.31598-.65153-.25366-1.03147Z"/><path class="d" d="M15.96461,27.58256c.21898,.14082,.21354,.34803,.16781,.56713-.19562-.14771-.21873-.34647-.16781-.56713Z"/><path class="f" d="M32.73282,24.4092c.24025,.05953,.22943,.3885,.4747,.44258,.01042,.23462,.25755,.35241,.28552,.57829-.49864-.15757-.64375-.57855-.76021-1.02087Z"/><path class="d" d="M38.87711,25.24376c.25449-.36802,.67936-.23058,1.01968-.34381-.28346,.28202-.64592,.32967-1.01968,.34381Z"/><path class="d" d="M38.04802,25.44562c.12684-.24916,.34398-.22017,.56375-.18308-.14425,.19543-.34206,.226-.56375,.18308Z"/><path class="d" d="M40.17717,24.35486c-.12139-.15458-.12348-.30805,.0043-.46029,.13874,.15473,.13227,.30812-.0043,.46029Z"/><path class="d" d="M40.15649,23.7254c-.15807-.0373-.25154-.12676-.24179-.29955,.17464,.02395,.27797,.10547,.24179,.29955Z"/><path class="d" d="M39.93252,24.74937c-.03162-.14117,.02711-.20725,.16945-.20386,.00011,.115-.06199,.17829-.16945,.20386Z"/><path class="f" d="M28.4129,22.06673c-.10133-.03064-.16718-.09197-.17571-.20292,.13958-.00255,.2014,.06228,.17571,.20292Z"/><path class="d" d="M40.34691,20.94641c-.04026-.01988-.10599-.0305-.11708-.06099-.35482-.97603-1.00288-1.7349-1.76763-2.4098-.028-.02471-.02403-.08563-.03496-.12965,.21114-.01628,.31602,.24389,.53547,.20591l.08747,.08794c.07349,.23346,.23931,.37994,.45323,.48114,.00132,.02283,.00854,.04361,.02177,.06227,.08403,.2429,.19237,.46731,.44317,.58362l.03185,.14686c-.00981,.11555,.04503,.18752,.15142,.22477,.0406,.12021,.08121,.24041,.12174,.36084,.02448,.14918,.04902,.29815,.07357,.44711Z"/><path class="f" d="M39.96834,19.76683c-.2508-.11631-.35915-.34072-.44317-.58362,.28349-.0416,.27166,.29917,.47215,.36504l-.02897,.21858Z"/><path class="f" d="M39.5034,19.12095c-.21392-.1012-.37974-.24768-.45323-.48114,.29317,.02645,.46213,.16999,.45323,.48114Z"/><path class="d" d="M6.33553,30.91534c.28766,.14645,.29499,.47358,.43913,.71008,.22866,.37515,.4847,.65018,.95467,.63743-.27051,.3127-.50118,.11203-.73763-.05455-.1858-.13089-.22547-.40191-.46488-.47954-.01246-.0493-.02513-.09843-.0378-.14753,.05778-.24706-.20993-.41913-.1535-.6659Z"/><path class="d" d="M7.02148,28.68838c.05513,.34171-.15146,.48794-.43225,.57875,.06429-.25249,.16152-.4804,.43225-.57875Z"/><path class="d" d="M6.47393,29.61514c.02404,.13426,.03418,.26238-.13709,.31023-.04301-.14257-.03446-.26237,.13709-.31023Z"/><path class="d" d="M8.2456,32.21669c.16964-.25643,.40924-.30102,.6881-.22689-.18179,.22002-.42597,.25071-.6881,.22689Z"/><path class="d" d="M34.89497,26.17163c.10822-.22627,.29068-.26548,.51337-.20347-.12505,.18414-.29046,.26644-.51337,.20347Z"/><path class="d" d="M34.23851,25.95441c.18824-.03966,.28057,.0556,.31906,.22659-.18873,.04052-.26566-.07646-.31906-.22659Z"/><path class="d" d="M33.78722,25.56871c.08558,.01228,.11315,.07363,.12535,.1479-.09834-.00132-.11906-.06849-.12535-.1479Z"/><path class="f" d="M26.21104,29.36548c.4045-.24511,.83876-.42563,1.28038-.5901-.26326,.5514-.77376,.56655-1.28038,.5901Z"/><path class="f" d="M27.58359,28.69559c.02101-.10567,.08004-.17259,.19054-.18707l.00713,.1961-.19767-.00903Z"/><path class="f" d="M36.58502,17.54333c-.28156,.08228-.5631,.08774-.84464-.00005,.28151-.19419,.56306-.19114,.84464,.00005Z"/><path class="d" d="M12.73859,25.50383c-.05517-.55732,.2793-.94519,.81388-.94364,.00751,.0252,.0076,.05035,.00027,.07548-.14315,.04287-.28286,.08967-.31103,.26656l-.00156,.00183c-.16628,.02202-.18853,.14419-.19348,.27838-.00897,.0214-.01565,.04349-.02027,.06611-.09609,.08498-.19194,.17014-.28779,.25528Z"/><path class="f" d="M24.09542,30.00215c-.14158-.08701-.09667-.24991-.149-.3735-.04803-.11346-.08902-.25893,.04323-.33141,.12241-.06707,.27019-.06726,.36862,.07603-.28813,.12587-.10333,.44934-.26285,.62889Z"/><path class="f" d="M20.73359,26.48688c.16222,.15611,.19941,.35238,.18176,.5663-.31816-.10611-.30786-.31763-.18176-.5663Z"/><path class="d" d="M21.69885,30.18049c.32465,.27924,.3334,.70073,.41361,1.06449,.04598,.20852,.19923,.46108,.04111,.70026-.27838-.25766-.16097-.63225-.27523-.93969-.06766-.18205-.07454-.38712-.21463-.54068l.03515-.28438Z"/><path class="d" d="M21.46635,28.98453c.17958,.28642,.34439,.57595,.19597,.9314l-.04156,.01074-.04252-.00546c.01906-.13862-.00092-.25958-.14625-.32391l-.00488-.14811c.14389-.14389-.09076-.31962,.03925-.46466Z"/><path class="f" d="M21.43199,29.5973c.14533,.06433,.16531,.18529,.14625,.32391-.34181,.02431-.12171-.205-.14625-.32391Z"/><path class="d" d="M36.75388,25.7253c.17167-.25403,.42882-.24455,.68981-.22349-.1683,.26482-.42242,.26465-.68981,.22349Z"/><path class="d" d="M36.01823,25.92198c.03135-.20396,.16619-.18544,.31143-.14465-.05748,.14808-.17344,.17011-.31143,.14465Z"/><path class="d" d="M22.17745,32.30624c.05228,.02933,.14507,.05238,.15075,.08894,.0802,.5168,.41627,.97945,.32639,1.53145-.08255-.07311-.16488-.14638-.24724-.21964-.01179-.12086-.02354-.24172-.03544-.36265,.00751-.3047-.12096-.57159-.23386-.84283l.03939-.19527Z"/><path class="d" d="M17.98054,21.68983c-.02261,.20557-.20104,.24889-.34247,.33484-.4772,.29002-.85937,.68944-1.13136,1.16408-.14486,.25279-.33022,.29467-.524,.22652-.43713-.15373-.85694-.35764-1.2793-.55096-.04033-.01846-.04903-.10605-.07245-.16149,.46655,.02232,.85982,.24539,1.24332,.47677,.27866,.16813,.42024,.12774,.4452-.20726,.00812-.01988,.01215-.04053,.01207-.06215,.25596-.10596,.37828-.3187,.45433-.56844l.00427-.00401c.10946-.01105,.16133-.08294,.18952-.17983,.02323-.00329,.0449-.01096,.06504-.02302,.28384-.10028,.52713-.26414,.74178-.47292l.19405,.02786Z"/><path class="d" d="M19.73063,21.67657c-.52349,.13928-1.04781,.12219-1.57264,.00836,.07249-.15818,.29738-.0476,.36823-.20877,.1518-.0098,.30362-.01954,.4555-.0295,.2471,.0849,.53097,.05014,.74892,.22991Z"/><path class="d" d="M21.42113,22.43498c-.04123,.12412-.10853,.15193-.24173,.1089-.4836-.15625-.91105-.38495-1.18898-.83155,.38509-.01457,.59233,.36754,.94555,.42408,.01799,.01148,.03752,.01878,.05878,.02179,.0509,.20848,.20099,.25725,.39053,.24259,.01158,.01178,.02353,.02318,.03585,.03419Z"/><path class="f" d="M16.78589,22.34174c-.07605,.24975-.19836,.46249-.45433,.56844,.0113-.30136,.18355-.47426,.45433-.56844Z"/><path class="f" d="M16.97968,22.15791c-.02819,.09689-.08006,.16878-.18952,.17983l-.01289-.19326,.20241,.01343Z"/><path class="d" d="M13.62356,24.54489c.19784-.39035,.59161-.40104,.92916-.02528l-.28238,.03413c-.12545-.14156-.25116-.13098-.3771-.00044l-.26969-.0084Z"/><path class="f" d="M13.2417,24.90223c.02817-.17689,.16788-.22369,.31103-.26656-.00809,.2004-.12922,.2689-.31103,.26656Z"/><path class="f" d="M13.04665,25.18243c.00496-.13419,.0272-.25635,.19348-.27838,.01343,.14693-.05241,.23879-.19348,.27838Z"/><path class="f" d="M7.26942,24.29599c-.10811,.25104-.32156,.36972-.56532,.45016-.00658-.06582-.01339-.13179-.0201-.19767,.23875,.0168,.31569-.34121,.58542-.25249Z"/><path class="f" d="M17.78649,21.66197c-.21465,.20878-.45794,.37264-.74178,.47292,.15913-.29585,.33237-.56959,.74178-.47292Z"/><path class="f" d="M40.1516,20.13846c-.10639-.03725-.16124-.10921-.15142-.22477,.14689,.00994,.19647,.08547,.15142,.22477Z"/><path class="f" d="M21.38528,22.40078c-.18954,.01466-.33963-.0341-.39053-.24259,.27923,.0628,.36221-.27139,.59843-.2961-.06924,.17958-.13857,.35913-.2079,.53869Z"/><path class="f" d="M14.97831,24.6666c.04645,.10928,.0929,.21856,.13946,.32777-.25581-.03435-.44868-.14161-.49046-.42376,.13578-.03679,.26015-.03173,.351,.09598Z"/><path class="d" d="M21.23389,28.23416c.2453,.13642,.25481,.35873,.21765,.5981-.16449-.039-.11526-.24845-.24915-.31188l.0315-.28621Z"/><path class="f" d="M6.69634,24.75301c-.00844,.11073-.07909,.16365-.17721,.19108-.02844-.14467,.02183-.21653,.17721-.19108Z"/><path class="e" d="M27.42218,25.10098c-.03957,.72283-.17049,1.35692-.59317,1.87191-.74122,.90311-1.86483,.96049-2.75747,.13629-1.13027-1.04361-1.59224-2.92759-.66677-4.3196,.6164-.92715,1.57929-1.19286,2.59708-.48819,.98921,.68487,1.31976,1.7231,1.42033,2.7996Z"/><path class="f" d="M36.38903,19.27765c.74371,.08692,1.38888,.50539,1.86574,1.19587,.14952,.2165-.05651,.25906-.18412,.32388-.44435,.2257-.94656,.25136-1.41887,.37139-.63659,.16176-1.28231,.29719-1.92055,.46003-.4249,.10841-.62111-.04159-.5326-.45992,.20566-.97203,.96598-1.84911,2.19039-1.89124Zm-.10451,.35102c-.73957-.00097-1.38688,.50688-1.51064,1.09774-.07085,.33825,.07435,.50005,.40399,.44896,.76998-.11932,1.52259-.31618,2.27703-.50582,.13629-.03426,.28432-.03699,.31659-.21027,.03054-.16403-.09584-.25194-.19743-.34007-.40095-.34779-.89992-.42364-1.28954-.49055Z"/><path class="d" d="M37.87451,24.26515c.11958-.03597,.23917-.07195,.35867-.10803-.17782,.51261-.78436,.95414-1.37876,.93208-.2826-.01049-.66481,.21059-.83849-.23305,.09426-.01032,.18853-.02049,.28281-.03067,.24889,.14411,.49696,.14789,.74414-.00428l.19996-.06564c.24348-.04704,.50346-.07141,.54457-.39641l.08709-.094Z"/><path class="d" d="M35.44902,24.47035c.02071,.01709,.04426,.02813,.07079,.03277,.07504,.12144,.15607,.23459,.32193,.22847,.01076,.02984,.00972,.05926-.00309,.08828-.03446,.02711-.07215,.08097-.1029,.07726-.38657-.0466-1.03366-.71221-1.08618-1.10857,.11163,.07124,.22336,.14242,.33508,.21361l.00467,.0056c.02525,.15448,.11274,.24839,.2685,.27583l.00632,.00496c.01385,.10908,.07783,.16729,.18487,.18179Z"/><path class="e" d="M35.83865,24.81986c.01281-.02901,.01385-.05843,.00303-.08831,.07647-.03956,.08333-.10984,.08119-.18409l1.39536-.00619-.07539,.21428-.19997,.06563c-.24886-.13774-.49695-.14649-.74413,.00429-.09428,.01018-.18855,.02035-.28281,.03067l-.17729-.03629Z"/><path class="e" d="M35.74812,23.31878l-.00227,.11301c-.0644,.3095-.56971,.18039-.56029,.56316l-.19624,.01282-.00452-.00571c-.1125-.27307,.06101-.44843,.21512-.63042l.16407-.0638c.12806,.0037,.25609,.00732,.38412,.01094Z"/><path class="f" d="M35.19992,23.37164c-.15411,.18199-.32762,.35735-.21512,.63042-.11188-.07108-.2236-.14226-.33523-.2135,.00151-.08185,.00294-.16366,.00422-.24559,.13386-.04464,.26403-.09534,.35004-.21726l.1961,.04594Z"/><path class="d" d="M37.12859,22.84457c-.24706,.18397-.5162,.28188-.82829,.21251,.24702-.18416,.50137-.33975,.82829-.21251Z"/><path class="d" d="M35.74812,23.31878c-.12803-.00362-.25606-.00724-.38412-.01094,.09572-.34639,.35954-.24356,.59309-.22181-.06956,.07769-.13926,.15522-.20897,.23275Z"/><path class="d" d="M39.10673,22.35067c-.12141,.1867-.28618,.26723-.50828,.20729,.10801-.2199,.28983-.25854,.50828-.20729Z"/><path class="d" d="M35.00382,23.3257c-.086,.12192-.21618,.17263-.35004,.21726,.00706-.24891,.11991-.32747,.35004-.21726Z"/><path class="d" d="M38.32942,24.07468c-.00703-.13326,.00825-.25484,.15963-.30517,.05076,.15601-.0006,.25871-.15963,.30517Z"/><path class="f" d="M37.24284,24.75555l.07539-.21428c.12813-.13347,.28552-.19158,.46916-.18213-.04109,.325-.30107,.34938-.54455,.39641Z"/><path class="f" d="M35.92287,24.54747c.00214,.07425-.00472,.14453-.08119,.18409-.16579,.00615-.24683-.107-.32187-.22844,.14582-.09106,.26631,.05114,.40306,.04435Z"/><path class="f" d="M34.98932,24.00778l.19624-.01282c.04265,.09154,.11193,.17628,.07244,.28852-.15593-.02732-.24342-.12122-.26867-.2757Z"/><path class="f" d="M35.44902,24.47035c-.10703-.0145-.17102-.07271-.18487-.18179,.14647-.02579,.20267,.04032,.18487,.18179Z"/><path class="e" d="M9.24707,31.22555c-.35614-.00818-.71399-.07569-.83254-.55483-.12031-.48625,.08125-.96097,.57587-1.22654,.53801-.28887,1.09412-.54432,1.62926-.83816,.30646-.1683,.37349-.05623,.4532,.23741,.42634,1.57054-.72326,2.34594-1.82579,2.38213Z"/><path class="e" d="M36.28451,19.62867c.38962,.06691,.88859,.14276,1.28954,.49055,.10159,.08813,.22797,.17604,.19743,.34007-.03227,.17328-.1803,.17601-.31659,.21027-.75444,.18964-1.50705,.3865-2.27703,.50582-.32965,.05109-.47484-.11071-.40399-.44896,.12376-.59086,.77107-1.09871,1.51064-1.09774Z"/><path class="f" d="M36.29874,24.82548c.24718-.15078,.49528-.14204,.74413-.00429-.24717,.15219-.49525,.14841-.74413,.00429Z"/></svg>