<?xml version="1.0" encoding="UTF-8"?><svg id="a" xmlns="http://www.w3.org/2000/svg" viewBox="0 0 29.49 37.98"><defs><style>.b{fill:#6a51a1;}.c{fill:#664e9b;}.d{fill:#8066ba;}.e{fill:#7d64b6;}.f{fill:#7d6ca9;}.g{fill:#856bbf;}.h{fill:#8a7bac;}.i{fill:#a99cc8;}.j{fill:#aca2c5;}.k{fill:#7159a7;}.l{fill:#7159a8;}.m{fill:#6d55a4;}.n{fill:#765dae;}.o{fill:#775faf;}.p{fill:#7a60b2;}</style></defs><path class="i" d="M7.77,31.13c.18,.02,.32,.11,.44,.23,1.31,1.29,2.87,2.21,4.52,2.97,.79,.36,1.63,.68,2.51,.81,.36,.06,.67,.29,1.06,.28,.14,0,.2,.16,.15,.29-.23,.61-.45,1.23-.73,1.81-.19,.41-.73,.58-1.14,.35-.37-.22-.78-.24-1.17-.37-1.62-.52-3.12-1.25-4.55-2.18-1.62-1.05-3.05-2.28-4.29-3.75-.69-.81-1.28-1.7-1.83-2.62-.49-.82-.87-1.69-1.25-2.56-.38-.85-.6-1.74-.88-2.62-.23-.71-.23-1.48-.39-2.2-.28-1.27-.22-2.56-.12-3.82,.06-.75,.22-1.53,.36-2.3,.19-1.02,.51-2,.82-2.98,.29-.91,.75-1.79,1.23-2.63,.99-1.74,2.18-3.34,3.66-4.69,1.17-1.06,2.43-1.99,3.82-2.75,.73-.4,1.48-.77,2.25-1.08,.62-.25,1.28-.46,1.94-.65,1.01-.29,2.05-.43,3.07-.61,.62-.11,1.26,0,1.89-.05,1.17-.08,2.34,.06,3.48,.25,.81,.14,1.61,.4,2.41,.63,1.09,.31,2.07,.84,3.11,1.27,.36,.15,.69,.39,1.04,.57,.54,.28,.2,.71,.08,.98-.19,.42-.3,.86-.47,1.27-.2,.46-.36,.52-.78,.27-1.16-.7-2.36-1.34-3.66-1.72-.91-.26-1.86-.44-2.8-.62-1.35-.27-2.71-.23-4.04-.09-.97,.11-1.97,.32-2.94,.61-1.72,.5-3.29,1.27-4.74,2.27-1.02,.7-1.94,1.53-2.78,2.48-.53,.6-1.04,1.21-1.48,1.86-.62,.9-1.14,1.88-1.57,2.89-.42,.97-.68,1.99-.9,3-.16,.76-.24,1.57-.27,2.37-.05,1.36,.03,2.71,.24,4.04,.11,.72,.34,1.44,.59,2.14,.19,.51,.35,1.03,.58,1.53,.26,.56,.58,1.09,.9,1.63,.3,.5,.6,1,.97,1.45,.08,.09,.07,.2,.04,.31h0c-.11-.05-.21-.09-.32-.14h0c-.08-.25-.22-.44-.46-.56-.06-.1-.16-.1-.25-.1-.02-.09,0-.2-.1-.27-.09-.14-.13-.3-.29-.39-.03-.17-.14-.3-.23-.44-.46-.79-.83-1.61-1.08-2.49-.01-.15-.07-.27-.18-.37-.1-.57-.2-1.14-.46-1.66,.11-.19,.17-.36-.1-.47h0c-.29-1.53-.31-3.06-.28-4.61,0-.48,.07-.94,.19-1.4,.07-.04,.08-.11,.08-.19v-.91c.2-.03,.18-.19,.21-.32,.13-.51,.19-1.06,.41-1.54,.53-1.16,.95-2.38,1.73-3.42,.46-.6,.95-1.18,1.4-1.79,.51-.68,1.1-1.26,1.72-1.83,.53-.49,1.16-.85,1.73-1.29,.76-.59,1.6-1.03,2.48-1.4,.8-.34,1.63-.62,2.44-.92,.63-.03,1.22-.32,1.85-.28,.19-.05,.46,.13,.57-.18h4.04c.05,.23,.23,.17,.39,.17,.16,0,.3,.19,.47,.02h.26c.05,.22,.24,.16,.39,.17,.34-.08,.6,.2,.93,.18,.34,.21,.71,.31,1.11,.28,.11,.07,.22,.12,.35,.11,.07,.34,.34,.25,.57,.27,.03,0,.06,0,.08,0,.01,.12,.08,.18,.19,.18,.38,.1,.73,.23,1.01,.53,.24,.25,.66,.21,.94,.5,.13,.14,.49-.04,.63-.39,.48-1.25,.48-1.33-.69-1.92-.57-.29-1.11-.63-1.77-.67-.56-.41-1.22-.56-1.87-.73l-.37-.1c-.66-.22-1.35-.34-2.04-.46h-.37c-.06-.1-.13-.1-.19-.01h-.26c-.18-.34-.5-.11-.75-.17h-.46c-.52,0-1.03,0-1.55,0-.16,0-.35-.06-.41,.18h-.36c-.65,.03-1.29,.14-1.94,.25-.85,.14-1.67,.37-2.48,.64-1.59,.54-3.06,1.36-4.45,2.31-1.53,1.04-2.8,2.35-3.99,3.75-1.12,1.32-1.91,2.81-2.64,4.36-.32,.67-.5,1.37-.74,2.05-.3,.84-.41,1.71-.61,2.56l-.1,1.2c-.18,.36-.05,.74-.09,1.11,.01,.69-.03,1.38,.08,2.07,.13,.78,.19,1.58,.29,2.36,.02,.18,.02,.41,.26,.49v.36c-.01,.24,.11,.4,.28,.55v.38c0,.14,.02,.27,.19,.3,0,.12-.03,.26,.09,.36,0,.14,.01,.27,.19,.29-.05,.61,.39,1.03,.6,1.54,.13,.31,.14,.75,.59,.86,.03,.12-.03,.27,.1,.36,.19,.6,.66,1.03,.94,1.58,.22,.27,.42,.56,.65,.82,.57,.67,1.19,1.29,1.85,1.87l.08,.08c.05,.21,.17,.34,.39,.37h.07c.35,.55,.85,.91,1.41,1.2h.07c.03,.17,.12,.27,.3,.28,.65,.27,1.12,.86,1.83,1.02,.02,.11,.09,.18,.21,.18h.25c.1,.42,.58,.19,.76,.47,.02,.04,.02,.11,.05,.12,.97,.43,1.94,.84,3,.97,.31,.04,.51-.16,.61-.41,.17-.42,.34-.84,.54-1.25,.12-.25,.08-.45-.26-.48-.18-.02-.37-.04-.54-.09-1.52-.44-3-.96-4.37-1.78-.23-.14-.44-.41-.78-.34h0c-.15-.21-.26-.45-.56-.45-.51-.42-.98-.89-1.57-1.21-.02-.23-.31-.28-.34-.5l.04-.04Z"/><path class="j" d="M19.48,19.94c.68,0,1.36,0,2.04,0,.29,0,.42-.03,.27-.4-.38-.91-.69-1.85-1.03-2.77,0-.01,0-.03-.01-.04-.33-.85-.33-.91,.57-1,.6-.06,1.22-.13,1.82,.08,.35,.12,.51,.39,.62,.69,.31,.89,.66,1.76,1.01,2.63,.35,.87,.75,1.73,1.07,2.61,.28,.75,.6,1.48,.86,2.24,.21,.62,.47,1.24,.78,1.83,.16,.29,.18,.62,.27,.92,.07,.23-.04,.38-.32,.38-.76,0-1.51,.02-2.27,0-.55-.01-.6-.53-.74-.88-.45-1.08-.85-2.17-1.25-3.27-.1-.26-.29-.19-.45-.19-1.93,0-3.86,0-5.78,0-1.21,0-1.16,.02-1.62,1.14-.39,.96-.68,1.95-1.17,2.87-.14,.26-.32,.34-.59,.34-.62,0-1.23,0-1.85,0-.54-.01-.65-.25-.46-.75,.52-1.37,1.08-2.72,1.61-4.09,.34-.88,.72-1.76,1.09-2.63,.44-1.06,.83-2.14,1.28-3.2,.39-.91,.74-1.83,1.11-2.74,.34-.85,.72-1.7,1.02-2.58,.1-.3,.26-.58,.35-.89,.06-.23,.25-.47,.55-.5,.67-.07,1.35-.1,2.02,.02,.42,.07,.43,.37,.32,.66-.36,.9-.8,1.77-1.1,2.68-.31,.92-.67,1.82-1.02,2.73-.29,.75-.55,1.51-.9,2.23-.21,.43-.34,.91-.52,1.36-.15,.38,0,.54,.4,.54,.68,0,1.36,0,2.04,0Zm-7.06,4.41h0c-.17,.07-.2,.21-.19,.37l-.1,.37c-.1,.07-.08,.17-.09,.27-.13,.13-.08,.29-.1,.45-.16,.04-.18,.16-.18,.3-.1,.48,.12,.63,.58,.58,.29-.03,.58-.02,.87,0,.42,.03,.66-.19,.8-.55,.3-.77,.56-1.56,.91-2.3,.62-1.32,.27-1.55,2.13-1.51h3.61c.55,0,1.1,.03,1.65,0,.41-.02,.75,.06,1.03,.37,.18,.27,.11,.66,.44,.85v.16c.01,.13,.02,.26,.18,.3l.02,.16c.1,.19,0,.46,.26,.57,0,.03,0,.05,0,.08,.03,.17-.08,.39,.18,.48l.2,.63c.24,.8,.28,.84,.93,.83h1.39c.26,0,.46-.05,.31-.38-.02-.13-.03-.27-.2-.31l-.1-.43c0-.12-.07-.19-.18-.22,.12-.34-.27-.5-.28-.8,0-.14-.02-.27-.18-.31v-.25c0-.2-.06-.35-.28-.4,0-.17-.01-.35-.02-.52,0-.12-.05-.18-.16-.21,0-.16-.02-.31-.11-.44,0-.12-.06-.18-.17-.21v-.26c-.13-.36-.17-.75-.47-1.03,0-.03,0-.05,0-.08-.03-.22-.02-.46-.27-.57v-.17c0-.26-.18-.44-.28-.65l-.19-.46c-.09-.34-.12-.72-.45-.95l-.02-.35c-.02-.17-.07-.33-.26-.39v-.17c-.04-.17,.08-.4-.19-.47,0-.21-.1-.35-.28-.46-.02-.04-.03-.11-.06-.12-.66-.22-1.33-.17-2-.04-.14,.03-.23,.17-.17,.28,.26,.54,.28,1.19,.72,1.66,0,.03,0,.05,0,.08,0,.15-.05,.33,.17,.39v.16c0,.21,.03,.4,.19,.56l.09,.19v.54l-.08,.09-.36,.02c-.16,0-.33-.07-.47,.07l-.83,.03c-1.07,0-2.14-.01-3.21-.02-.21,0-.43,.01-.58-.19-.11-.31,.22-.53,.17-.83l.02-.18c.14-.12,.2-.28,.18-.46,.04-.27,.33-.44,.28-.74,.13-.09,.17-.22,.19-.36,.27-.1,.17-.38,.27-.56,0-.06,0-.12,.01-.18,.12-.02,.17-.08,.16-.2,.09-.63,.47-1.16,.65-1.76,.08-.04,.09-.11,.09-.18l.02-.17c.17-.03,.17-.16,.16-.29l.19-.55c.11-.07,.09-.17,.09-.28l.02-.26c.17-.03,.17-.16,.17-.29,.23-.71,.59-1.38,.76-2.12,.25-.13,.26-.26,0-.39h0c-.02-.17-.14-.18-.27-.18-.38,0-.77,0-1.15,0-.15,0-.27,.04-.34,.18-.14,.08-.26,.19-.28,.37-.28,.1-.17,.38-.27,.57l-.02,.26c-.18,.02-.18,.16-.18,.29-.55,1.21-1.05,2.45-1.47,3.71v.26c-.16,.04-.23,.13-.29,.27-.27,.69-.58,1.36-.85,2.05-.4,1.02-.78,2.04-1.17,3.07v.18l-.03,.18s-.05,0-.08,0c-.2-.05-.16,.09-.17,.2v.27c-.41,.6-.63,1.27-.84,1.95v.27c-.13,.06-.2,.15-.19,.29Z"/><path class="i" d="M6.16,29.4c.53,.29,.91,.71,1.14,1.27l-.04,.04c-.2-.03-.26-.26-.43-.33-.13-.39-.56-.58-.67-.98h0Z"/><path class="i" d="M7.3,30.67c.26,.05,.41,.21,.46,.46l-.04,.04c-.19-.11-.35-.27-.46-.46l.04-.04Z"/><path class="g" d="M.65,16.49c.2-.86,.31-1.73,.61-2.56,.24-.69,.43-1.38,.74-2.05,.73-1.55,1.52-3.04,2.64-4.36,1.19-1.41,2.46-2.72,3.99-3.75,1.39-.94,2.86-1.77,4.45-2.31,.8-.27,1.62-.51,2.48-.64,.65-.1,1.29-.22,1.94-.24-.03,.24,.11,.38,.32,.43,.2,.05,.23,.13,.15,.32-.21,.52-.73,.9-1.35,.91-.38,0-.77,0-1.15,0-.52,0-.62,.11-.66,.65-.82,.31-1.64,.58-2.44,.92-.87,.37-1.72,.81-2.48,1.4-.57,.44-1.2,.8-1.73,1.29-.62,.57-1.21,1.16-1.72,1.83-.45,.61-.94,1.18-1.4,1.79-.78,1.03-1.2,2.26-1.73,3.42-.22,.48-.28,1.02-.41,1.54-.03,.13,0,.29-.2,.32,0-.14,0-.28-.01-.42,0-.12,0-.29-.16-.28-.18,0-.13,.2-.1,.29,.1,.26,.08,.42-.26,.4-.19-.01-.28,.11-.17,.26,.24,.34,.28,.57-.24,.61-.09,0-.06,.16-.09,.24-.16,.46-.01,.95-.18,1.41-.04,.12,.06,.33-.16,.31-.18-.01-.21-.21-.21-.36,0-.35-.05-.7-.08-1.05-.03-.29-.16-.33-.39-.31Z"/><path class="e" d="M.65,16.49c.23-.02,.36,.02,.39,.31,.03,.35,.09,.7,.08,1.05,0,.15,.03,.35,.21,.36,.22,.02,.12-.2,.16-.31,.16-.46,.01-.95,.18-1.41,.03-.08,0-.23,.09-.24,.53-.03,.48-.26,.24-.61-.11-.15-.01-.27,.17-.26,.34,.02,.35-.14,.26-.4-.03-.09-.08-.28,.1-.29,.15,0,.16,.16,.16,.28,0,.14,0,.28,.01,.42,0,.3,0,.61,0,.91-.12,.02-.24,.05-.08,.19-.12,.46-.19,.92-.19,1.4-.02,1.54,0,3.08,.28,4.61-.3,0-.57,0-.39,.44,.04,.09,.03,.28-.06,.29-.36,.05-.51,.58-.96,.4-.07-.03-.14,.04-.19,.1-.24-.08-.24-.31-.26-.49-.11-.79-.17-1.58-.29-2.36-.11-.69-.07-1.38-.08-2.07,.36-.35,.19-.73,.09-1.11l.1-1.2Z"/><path class="p" d="M23.89,1.02l.37,.1c0,.17,.22,.25,.19,.45-.06,.41,.21,.45,.53,.49,.42,.05,.75-.25,1.15-.21,.66,.04,1.21,.39,1.77,.67,1.17,.59,1.17,.67,.69,1.92-.14,.36-.49,.53-.63,.39-.28-.29-.7-.24-.94-.5-.29-.3-.63-.44-1.01-.53,0-.13-.06-.19-.19-.18-.03,0-.06,0-.08,0-.09-.3-.37-.19-.57-.27-.13,.01-.25-.04-.35-.11-.46-.57-.59-.6-1.11-.28-.32,.01-.59-.26-.93-.18-.04-.26-.23-.17-.39-.18-.09,0-.17,0-.26,0-.13-.31,0-.42,.3-.5,.31-.08,.6-.07,.9,0,.13,.03,.33,.06,.36-.17,.02-.18,.04-.38-.2-.46-.18-.05-.36-.08-.53-.15-.22-.09-.55,0-.65-.32,.29,.02,.58-.03,.87,.05,.23,.06,.48,.12,.7-.06Z"/><path class="d" d="M22.32,1.03c.11,.33,.43,.23,.65,.32,.17,.07,.35,.1,.53,.15,.24,.07,.22,.27,.2,.46-.03,.23-.22,.2-.36,.17-.31-.08-.59-.08-.9,0-.31,.07-.43,.19-.3,.5-.16,.17-.31-.03-.47-.02-.04-.25-.23-.16-.39-.17-1.35,0-2.7,0-4.04,0-.19,.05-.47-.16-.57,.18-.64-.03-1.23,.25-1.85,.28,.04-.54,.14-.65,.66-.65,.38,0,.77,0,1.15,0,.61-.01,1.14-.39,1.35-.91,.08-.2,.05-.27-.15-.32-.21-.06-.35-.19-.32-.43,.12,0,.24,0,.36,0,.61,.25,1.22-.02,1.84,0,.08,0,.11-.09,.12-.17h.46c.18,.37,.5,.11,.75,.18h.26c.06,.1,.13,.1,.19,0h.37c-.17,.49,.12,.51,.46,.47Z"/><path class="n" d="M1.1,23.72c.05-.07,.12-.13,.19-.1,.45,.18,.61-.34,.96-.4,.09-.01,.09-.2,.06-.29-.18-.44,.09-.45,.39-.44h0c0,.16-.08,.35,.1,.47,.26,.52,.35,1.09,.46,1.66-.18,.24-.13,.37,.18,.37,.25,.88,.62,1.71,1.08,2.49,.09,.14,.2,.27,.23,.44-.15,.23-.29,.47-.45,.69-.39,.57-.34,.89,.22,1.2,.06,.03,.11,.06,.11,.13,0,.11-.08,.12-.16,.09-.22-.07-.29,.11-.38,.24-.28-.55-.75-.97-.94-1.58,.33,0,.27,.53,.53,.48,.31-.06,.06-.47,.25-.69,.19-.22-.04-.49-.21-.63-.2-.17-.23,.16-.36,.23-.12,.07-.21,.17-.32,.25-.45-.11-.46-.55-.59-.86-.21-.51-.65-.93-.6-1.54,.02-.15,.03-.29-.19-.29-.12-.09-.08-.23-.09-.36,.02-.15,.03-.29-.18-.3,0-.13,0-.25,0-.38,.14-.08,.25,.28,.36,.06,.08-.15,.09-.4-.15-.5-.15-.06-.32-.08-.48-.11v-.36Z"/><path class="k" d="M4.07,30.29c.09-.14,.16-.31,.38-.24,.08,.03,.16,.02,.16-.09,0-.07-.05-.1-.11-.13-.56-.31-.61-.63-.22-1.2,.16-.23,.3-.46,.45-.69,.15,.09,.2,.26,.29,.39-.09,.01-.2,.03-.19,.15,.02,.18,.17,.12,.29,.12,.1,0,.2,0,.25,.1-.01,.32,.17,.49,.46,.56h0c.17,.52,.49,.91,.99,1.13,.17,.07,.23,.29,.43,.33,.11,.19,.27,.35,.46,.46,.03,.22,.31,.27,.34,.5l.19,.46c-.2,0-.32,.16-.48,.25-.33,.17-.57,.56-1.05,.34-.14-.06-.13,.16-.15,.27-.66-.58-1.28-1.2-1.85-1.87-.22-.27-.43-.55-.65-.82Z"/><path class="c" d="M11.94,36.59c-.18-.28-.66-.05-.76-.46,.2-.04,.25-.13,.14-.32-.13-.24-.41-.57-.33-.71,.3-.57-.18-.51-.43-.63-.1-.05-.29,.05-.31-.11-.02-.19,.18-.17,.3-.19,.16-.03,.18-.2,.3-.27l1.47,.74c0,.13,.07,.19,.19,.18,.09,0,.2-.03,.27,0,.92,.44,1.9,.67,2.88,.94,.14,.04,.2,.16,.15,.29-.15,.36-.28,.75-.49,1.07-.24,.37-.94,.35-1.51,.09-.6-.27-1.2-.56-1.87-.63Z"/><path class="b" d="M10.85,33.89c-.12,.07-.14,.24-.3,.27-.13,.03-.32,0-.3,.19,.02,.16,.21,.06,.31,.11,.26,.12,.73,.06,.43,.63-.07,.14,.2,.48,.33,.71,.11,.19,.06,.28-.14,.32-.08,0-.16,0-.25,0,0-.13-.07-.2-.21-.18-.71-.17-1.18-.76-1.83-1.02,0-.19-.1-.29-.3-.27h-.07s0-.11-.03-.13c-.3-.26-.6-.51,.05-.71,.08-.02,.18-.15,.12-.22-.14-.15-.31-.29-.49-.4-.08-.05-.18,.05-.2,.14-.15,.46-.37,.53-.7,.14-.03-.03-.11-.02-.17-.03h-.07c-.02-.24-.14-.37-.39-.37l-.08-.08c.02-.11,.02-.33,.15-.27,.48,.22,.72-.17,1.05-.34,.16-.08,.28-.24,.48-.25,.42,.17,.68,.58,1.1,.74,0,.18,.1,.28,.29,.27,.03,0,.06,0,.09,0,0,.19,.14,.19,.28,.19h.19c.09,.32,.42,.38,.65,.55Z"/><path class="h" d="M10.85,33.89c-.23-.17-.55-.23-.65-.56,.33-.07,.55,.2,.78,.34,1.37,.82,2.85,1.34,4.37,1.78,.18,.05,.36,.08,.54,.09,.34,.03,.38,.23,.26,.48-.2,.41-.37,.83-.54,1.25-.1,.25-.3,.44-.61,.41-1.06-.13-2.04-.54-3-.97-.03-.01-.04-.08-.05-.12,.67,.06,1.27,.36,1.87,.63,.57,.26,1.27,.28,1.51-.09,.21-.33,.34-.71,.49-1.07,.06-.13-.01-.25-.15-.29-.97-.27-1.96-.51-2.88-.94-.08-.04-.18,0-.27,0-.01-.12-.07-.18-.19-.18l-1.47-.74Z"/><path class="d" d="M26.13,1.85c-.4-.05-.73,.26-1.15,.21-.32-.04-.59-.07-.53-.49,.03-.2-.18-.28-.19-.45,.65,.17,1.31,.32,1.87,.73Z"/><path class="k" d="M7.11,33.44c.06,0,.14,0,.17,.03,.33,.38,.55,.32,.7-.14,.03-.09,.12-.19,.2-.14,.18,.11,.35,.24,.49,.4,.06,.07-.04,.19-.12,.22-.65,.19-.36,.44-.05,.71,.03,.02,.02,.09,.03,.13-.56-.29-1.06-.66-1.41-1.2Z"/><path class="k" d="M3.03,28.35c.11-.09,.2-.19,.32-.25,.13-.07,.16-.4,.36-.23,.16,.14,.39,.41,.21,.63-.19,.23,.06,.63-.25,.69-.26,.05-.2-.47-.53-.48-.13-.1-.07-.24-.1-.36Z"/><path class="e" d="M22.32,1.03c-.35,.04-.64,.02-.46-.46,.69,.12,1.37,.24,2.04,.46-.22,.18-.47,.12-.7,.06-.29-.08-.58-.03-.87-.05Z"/><path class="h" d="M9.36,32.87c-.43-.16-.69-.57-1.1-.74-.06-.15-.13-.31-.19-.46,.59,.32,1.06,.79,1.57,1.21h-.27Z"/><path class="g" d="M19.82,.38c-.01,.08-.04,.17-.12,.17-.61-.01-1.22,.26-1.84,0,.06-.24,.25-.18,.41-.18,.52,0,1.03,0,1.55,0Z"/><path class="d" d="M23.71,2.97c.52-.32,.65-.29,1.11,.28-.4,.04-.77-.07-1.11-.28Z"/><path class="h" d="M6.84,30.38c-.51-.22-.82-.61-.99-1.13,.11,.05,.21,.09,.32,.14,.11,.4,.54,.59,.67,.98Z"/><path class="e" d="M1.11,24.08c.16,.04,.33,.06,.48,.11,.24,.09,.23,.34,.15,.5-.11,.22-.22-.14-.36-.06-.17-.15-.29-.31-.27-.55Z"/><path class="g" d="M.55,17.69c.11,.38,.27,.77-.09,1.11,.04-.37-.09-.75,.09-1.11Z"/><path class="g" d="M21.03,.56c-.25-.07-.58,.19-.75-.18,.25,.07,.57-.17,.75,.18Z"/><path class="h" d="M5.84,29.26c-.3-.07-.47-.23-.46-.56,.24,.11,.38,.31,.46,.56Z"/><path class="h" d="M10.2,33.33h-.19c-.05-.11-.15-.18-.28-.18-.03,0-.06,0-.09,0l-.02-.26h.01c.31-.01,.42,.24,.56,.44Z"/><path class="g" d="M25.17,3.35c.19,.08,.48-.03,.57,.27-.22-.02-.5,.07-.57-.27Z"/><path class="g" d="M16.67,2.6c.1-.34,.38-.13,.57-.18-.11,.31-.37,.13-.57,.18Z"/><path class="g" d="M2.8,22.97c-.18-.13-.09-.31-.1-.47,.27,.11,.2,.29,.1,.47Z"/><path class="k" d="M6.65,33.07c.24,0,.36,.14,.39,.37-.22-.03-.34-.16-.39-.37Z"/><path class="e" d="M3.44,25c-.32,0-.36-.13-.18-.37,.11,.1,.17,.23,.18,.37Z"/><path class="n" d="M5.13,28.6c-.11,0-.26,.06-.29-.12-.02-.12,.1-.13,.19-.15,.1,.07,.08,.17,.1,.27Z"/><path class="d" d="M22.39,2.61c.15,0,.35-.08,.39,.18-.15,0-.34,.06-.39-.18Z"/><path class="g" d="M21.28,2.43c.15,0,.34-.08,.39,.17-.15,0-.33,.06-.39-.17Z"/><path class="k" d="M8.59,34.64c.2-.02,.29,.08,.3,.27-.18,0-.27-.11-.3-.27Z"/><path class="e" d="M1.66,25.66c.21,0,.2,.15,.19,.29-.17-.03-.18-.16-.19-.29Z"/><path class="e" d="M1.39,25.01c.21,0,.2,.15,.18,.3-.17-.03-.19-.16-.18-.3Z"/><path class="g" d="M25.82,3.63c.13,0,.19,.05,.19,.18-.11,0-.18-.07-.19-.18Z"/><path class="g" d="M21.49,.56c-.07,.1-.13,.1-.19,0,.07-.09,.13-.09,.19,0Z"/><path class="g" d="M2.61,16.49c-.16-.14-.04-.17,.08-.19,0,.08-.01,.14-.08,.19Z"/><path class="k" d="M10.72,35.94c.13-.01,.2,.05,.21,.18-.12,0-.19-.07-.21-.18Z"/><path class="l" d="M16.58,20c.15,.2,.37,.19,.58,.19,1.07,0,2.14,.01,3.21,.02q-.39,.65-1.06,.22c-.1-.06-.21-.07-.31-.03-.15,.06-.11,.2-.1,.32,.1,.61,.04,.67-.61,.67-.32,0-.64,0-.95,.08-.3,.08-.49,.28-.61,.52-.1,.21,.32,.07,.3,.29,0,.02,0,.03,0,.05-1.86-.05-1.51,.19-2.13,1.51-.35,.74-.61,1.53-.91,2.3-.14,.36-.38,.58-.8,.55-.29-.02-.59-.03-.87,0-.46,.05-.67-.1-.58-.58,.21,0,.2-.15,.18-.3,.02-.15-.04-.32,.1-.45,.22-.03,.26-.11,.09-.27l.1-.37c.25-.03,.17-.22,.19-.37h0c.19-.01,.19-.15,.18-.29v-.27c.22-.03,.38-.15,.36-.36-.02-.3,.15-.53,.27-.76,.14-.27,.22-.53,.2-.83v-.27c.13-.01,.19-.08,.19-.2,.03,0,.05,0,.08,0,.07,0,.16,0,.15-.1,0-.03-.09-.05-.14-.08v-.18c.16,0,.35-.02,.34-.18-.04-.59,.54-.96,.51-1.54,0-.11,.04-.28,.19-.27,.15,0,.3,.09,.34,.26,.02,.1,0,.21,.01,.32,0,.13-.02,.32,.2,.27,.16-.04,.21-.2,.15-.34-.13-.28-.29-.54-.43-.81-.06-.12-.18-.28-.05-.38,.34-.28,.44-.73,.75-1.01,.26-.24,.52-.39,.15-.73-.07-.06,0-.18,.04-.26,.14-.22,.12-.47,.1-.72v-.26c.59-.16,.54-.15,.6,.41,.03,.3-.14,.48-.18,.72-.02,.11-.03,.21,.06,.29,.07,.05,.18,.05,.2-.02,.14-.57,.5-.41,.87-.28,.04,.01,.09,0,.14,0v.37c-.24,0-.18,.25-.28,.37-.35,.09-.35,.3-.18,.56,.04,.3-.24,.47-.28,.74-.3,.06-.35,.22-.18,.46l-.02,.18c-.43,.23-.5,.54-.17,.83Z"/><path class="m" d="M17.04,22.33s0-.03,0-.05c.01-.23-.4-.08-.3-.29,.11-.24,.31-.44,.61-.52,.32-.08,.63-.08,.95-.08,.66,0,.71-.07,.61-.67-.02-.12-.05-.26,.1-.32,.1-.04,.21-.04,.31,.03q.67,.44,1.06-.22c.28,0,.56-.02,.83-.03,.13,.17,.31,.07,.46,.1,.25,.19,.32,.03,.37-.19l.09-.09c.28-.19,.31-.37-.01-.54l-.09-.19c.11-.24,.08-.44-.18-.56,0-.05,0-.11-.01-.16,0-.16,.1-.36-.17-.39,0-.03,0-.05,0-.08-.02-.43-.15-.83-.31-1.23-.16-.43-.06-.54,.4-.55,.47,0,.94,0,1.41,0,.17,.11,.28,.25,.28,.46,.03,.17-.13,.41,.18,.47v.17c-.03,.21,.02,.37,.27,.39,0,.12,.01,.23,.02,.35,.11,.34,.01,.77,.45,.95,.06,.15,.13,.31,.19,.46-.09,.29-.04,.52,.27,.65v.17c0,.24-.04,.49,.28,.57,0,.03,0,.05,0,.08-.12,.32,.24,.54,.18,.85-.37,.11-.68,.16-.48-.41,.03-.08,.01-.22-.11-.2-.16,.02-.35,.04-.42,.22-.06,.14-.22,.22-.11,.44,.21,.42,0,.84-.46,1.05-.08-.15-.18-.28-.38-.27-.28-.31-.62-.39-1.03-.37-.55,.03-1.1,0-1.65,0,0-.09-.02-.18-.14-.18-.11,0-.13,.09-.14,.18-.83,0-1.67,0-2.5,0-.02-.05-.04-.14-.07-.15-.11-.02-.1,.08-.11,.15h-.65Z"/><path class="o" d="M17.69,16.49s-.1,.01-.14,0c-.36-.13-.73-.29-.87,.28-.02,.07-.13,.08-.2,.02-.1-.08-.08-.17-.06-.29,.05-.24,.21-.42,.18-.72-.06-.56,0-.56-.58-.41,.43-1.26,.92-2.49,1.47-3.71,.2,0,.19-.14,.18-.29l.02-.26c.37-.06,.25-.34,.27-.57,.02-.18,.14-.28,.28-.37,.59,0,1.18,0,1.77,0h0v.39c-.16,.74-.52,1.4-.75,2.12-.2,.02-.19,.15-.17,.29l-.02,.26c-.2,.04-.23,.13-.09,.28-.06,.18-.13,.37-.19,.55-.19,.02-.18,.16-.16,.29l-.02,.17c-.11,.02-.22,.04-.09,.18-.18,.6-.56,1.12-.65,1.76h-.17Z"/><path class="c" d="M23.71,22.97c.46-.21,.67-.63,.46-1.05-.11-.22,.05-.3,.11-.44,.08-.18,.27-.2,.42-.22,.12-.02,.14,.12,.11,.2-.2,.56,.11,.51,.48,.41v.18c-.22,.03-.19,.18-.16,.34,.09,.38,.38,.55,.71,.68,.04,.07,.11,.09,.18,.09,0,.17,.01,.35,.02,.52-.04,.22,0,.39,.27,.4,0,.08,0,.16,0,.25-.02,.15-.04,.3,.18,.31,.01,.29,.41,.46,.28,.8-.02,.14,.03,.22,.18,.22,.03,.14,.07,.29,.1,.43,0,.11,0,.21-.01,.31-.06,.11-.11,.23-.1,.36-.46,0-.93,0-1.39,0-.3-.28-.59-.55-.89-.83,0,0-.03,0-.04,0-.07-.21-.13-.42-.2-.63-.02-.17,.15-.42-.18-.48,0-.03-.01-.05,0-.08,0-.23,.04-.48-.26-.57,0-.05-.01-.11-.02-.16,0-.07,.02-.14,.03-.21-.06-.19,.15-.46-.19-.56l-.09-.28Z"/><path class="o" d="M16.01,15.63c.02,.25,.04,.49-.1,.72-.05,.08-.11,.19-.04,.26,.36,.34,.11,.5-.15,.73-.31,.28-.4,.74-.75,1.01-.13,.1-.01,.26,.05,.38,.14,.27,.3,.53,.43,.81,.06,.13,.02,.3-.15,.34-.22,.05-.19-.13-.2-.27,0-.11,0-.22-.01-.32-.03-.18-.18-.26-.34-.26-.15,0-.2,.16-.19,.27,.03,.58-.55,.95-.51,1.54,.01,.16-.18,.18-.33,.18,.39-1.02,.77-2.05,1.17-3.07,.27-.69,.58-1.36,.85-2.05,.06-.15,.13-.24,.27-.27Z"/><path class="f" d="M23.16,16.29c-.47,0-.94,0-1.41,0-.46,0-.56,.12-.4,.55,.15,.4,.28,.8,.31,1.23-.44-.47-.45-1.12-.72-1.66-.06-.11,.03-.26,.17-.28,.67-.13,1.34-.18,2,.04,.03,0,.04,.08,.06,.12Z"/><path class="m" d="M25.83,23.06c-.32-.14-.62-.3-.71-.68-.04-.16-.07-.31,.16-.34h.28c0,.09,0,.17,.01,.26-.02,.14,.04,.2,.17,.2,.08,.14,.1,.29,.11,.44l-.02,.12Z"/><path class="f" d="M13.43,21.85c.02,.3-.06,.56-.2,.83-.12,.24-.29,.46-.27,.76,.01,.2-.14,.33-.35,.36,.2-.68,.42-1.35,.82-1.95Z"/><path class="h" d="M20.01,10.18c-.59,0-1.18,0-1.77,0,.07-.15,.19-.18,.34-.18,.38,0,.77,0,1.15,0,.13,0,.25,.01,.27,.18Z"/><path class="f" d="M24.62,25.94s.04,0,.04,0c.3,.27,.59,.55,.89,.83-.65,0-.69-.03-.93-.83Z"/><path class="f" d="M25.56,22.04h-.28v-.18c.06-.31-.3-.53-.18-.85,.3,.28,.33,.67,.45,1.03Z"/><path class="f" d="M24.36,19.08c-.44-.18-.34-.61-.45-.95,.33,.23,.36,.6,.45,.95Z"/><path class="o" d="M16.58,20c-.33-.29-.27-.61,.17-.83,.05,.3-.28,.52-.17,.83Z"/><path class="f" d="M23.71,22.97l.09,.28-.02,.3c-.33-.19-.26-.59-.44-.85,.19,0,.29,.13,.38,.27Z"/><path class="p" d="M17.23,17.78c-.16-.26-.17-.47,.18-.56v.2c-.01,.14-.06,.27-.18,.36Z"/><path class="f" d="M26.94,26.76c-.01-.13,.03-.25,.1-.36h.21c.15,.32-.05,.37-.31,.36Z"/><path class="f" d="M24.82,20.19c-.31-.12-.36-.36-.27-.65,.11,.21,.28,.39,.27,.65Z"/><path class="f" d="M25.1,20.93c-.32-.08-.28-.33-.27-.57,.25,.12,.24,.35,.27,.57Z"/><path class="h" d="M17.96,10.55c-.01,.22,.1,.51-.27,.57,.09-.19-.02-.47,.27-.57Z"/><path class="o" d="M16.76,18.99c-.17-.25-.11-.4,.18-.46,.02,.18-.04,.34-.18,.46Z"/><path class="f" d="M21.85,18.71c.26,.12,.29,.31,.18,.56-.17-.15-.18-.35-.18-.56Z"/><path class="f" d="M22.12,19.46c.32,.18,.3,.36,.01,.54v-.54Z"/><path class="f" d="M23.98,24.18c.3,.09,.26,.34,.26,.57-.26-.11-.17-.39-.26-.57Z"/><path class="h" d="M17.42,17.42v-.2c.09-.11,.03-.36,.27-.37-.1,.18,0,.46-.27,.56Z"/><path class="o" d="M22.04,20.1c-.05,.21-.12,.38-.37,.19v-.17l.37-.02Z"/><path class="m" d="M23.77,23.55l.02-.3c.34,.09,.12,.37,.19,.56l-.19-.09v-.16Z"/><path class="m" d="M26.31,24.08c-.27-.01-.31-.18-.27-.4,.22,.05,.28,.2,.27,.4Z"/><path class="h" d="M21.68,20.11v.17c-.16-.03-.35,.07-.47-.1,.14-.14,.31-.07,.47-.07Z"/><path class="f" d="M23.62,17.22c-.32-.06-.15-.3-.18-.47,.27,.08,.15,.3,.18,.47Z"/><path class="f" d="M24.25,24.83c.33,.06,.16,.3,.18,.48-.26-.08-.14-.31-.18-.48Z"/><path class="f" d="M23.89,17.78c-.25-.02-.3-.18-.26-.39,.2,.06,.24,.22,.26,.39Z"/><path class="h" d="M20.02,10.58v-.39c.26,.13,.25,.26,0,.39Z"/><path class="f" d="M21.66,18.16c.27,.04,.17,.24,.17,.39-.22-.06-.16-.24-.17-.39Z"/><path class="f" d="M12.41,24.36c-.02,.15,.06,.34-.19,.37,0-.16,.02-.3,.19-.37Z"/><path class="f" d="M12.12,25.09c.17,.16,.12,.25-.09,.27,0-.1,0-.21,.09-.27Z"/><path class="f" d="M11.93,25.81c.02,.15,.03,.29-.18,.3,0-.14,.01-.26,.18-.3Z"/><path class="m" d="M27.25,26.39h-.21v-.31c.18,.03,.19,.17,.21,.31Z"/><path class="m" d="M26.5,24.63c-.22,0-.2-.16-.18-.31,.17,.04,.19,.17,.18,.31Z"/><path class="h" d="M18.63,14.37c-.01-.13-.02-.27,.16-.29,.01,.13,.01,.26-.16,.29Z"/><path class="l" d="M20.37,22.33c0-.09,.02-.18,.14-.18,.11,0,.13,.09,.14,.18-.09,0-.18,0-.28,0Z"/><path class="h" d="M17.68,11.38c.01,.14,.02,.28-.18,.29,0-.13,0-.26,.18-.29Z"/><path class="h" d="M19.09,12.99c-.02-.14-.03-.28,.17-.29,0,.13,0,.26-.17,.29Z"/><path class="h" d="M18.98,13.52c-.14-.15-.1-.24,.09-.28,0,.1,.02,.21-.09,.28Z"/><path class="f" d="M12.59,24.07c0,.14,.01,.27-.18,.29,0-.14,.06-.23,.18-.29Z"/><path class="f" d="M23.79,23.71l.19,.09c0,.07-.02,.14-.03,.21-.16-.04-.17-.17-.17-.3Z"/><path class="h" d="M13.61,21.38c0,.12-.05,.19-.17,.2,.01-.11-.02-.25,.17-.2Z"/><path class="m" d="M26.96,25.65c-.15,0-.2-.08-.18-.22,.11,.03,.18,.1,.18,.22Z"/><path class="f" d="M25.83,23.06l.02-.12c.11,.03,.17,.09,.16,.21-.08,0-.14-.02-.18-.09Z"/><path class="f" d="M25.75,22.5c-.13,0-.2-.07-.17-.2,.11,.02,.17,.09,.17,.2Z"/><path class="l" d="M17.69,22.33c.01-.07,0-.17,.11-.15,.03,0,.05,.1,.07,.15-.06,0-.12,0-.18,0Z"/><path class="h" d="M18.52,14.73c-.13-.14-.02-.16,.09-.18,0,.08-.01,.15-.09,.18Z"/><path class="o" d="M13.71,21.21s.13,.05,.14,.08c.01,.11-.08,.09-.15,.1l.02-.18Z"/><path class="h" d="M17.69,16.49h.17c0,.11-.05,.18-.16,.19v-.19Z"/><path class="m" d="M12.32,34.63c.12,0,.18,.06,.19,.18-.13,0-.19-.05-.19-.18Z"/><path class="k" d="M9.62,32.89l.02,.26c-.19,0-.28-.09-.29-.27l.26,.02Z"/><path class="k" d="M9.73,33.15c.13,0,.23,.07,.28,.19-.14,0-.27,0-.28-.19Z"/></svg>