<?xml version="1.0" encoding="UTF-8"?><svg id="a" xmlns="http://www.w3.org/2000/svg" viewBox="0 0 46.84 24.25"><defs><style>.b{fill:#f2f9fb;}.c{fill:#f4fafc;}.d{fill:#fafcfd;}.e{fill:#89cfec;}.f{fill:#bae3f3;}.g{fill:#c2e6f5;}.h{fill:#c8e9f7;}.i{fill:#d1ecf7;}.j{fill:#afdef2;}.k{fill:#41b4e2;}.l{fill:#3fb3e2;}.m{fill:#43b4e3;}.n{fill:#6bc4e8;}.o{fill:#4db9e4;}.p{fill:#7acaea;}</style></defs><path class="l" d="M0,23.95C0,16.19,0,8.43,0,.67,0-.12-.04,0,.67,0c15.13,0,30.26,0,45.4,0,.85,0,.77-.15,.77,.75,0,7.73,0,15.46,0,23.18-.2,.01-.4,.03-.6,.03-15.23,0-30.46,0-45.69,0-.18,0-.37-.02-.55-.03Zm29.53-5.28c0-.1-.04-.18-.15-.2l-.03-.27c-.03-.14,.06-.35-.2-.34h0c-.2-.6-.71-.38-1.09-.36-.4,.03-.67,.38-.81,.73-.12,.31,.03,.61,.25,.88,.23,.28,.6,.2,.83,.42l-.26,.03c-.31-.04-.5,.08-.48,.41,.02,.21,.12,.34,.36,.2h.28c.46,.1,1.09-.43,1.15-.97l.04-.15c.06-.12,.32-.19,.1-.38Zm-12.96-1.02c-.22,.02-.27,.16-.27,.35,0,.6,0,1.2,0,1.8,0,.19,.06,.33,.28,.34,.17,.03,.32,0,.46-.09,.13-.01,.18-.09,.18-.21,0-.67,0-1.34,0-2.01,0-.22-.13-.37-.39-.34-.12,0-.2,.05-.26,.15Zm14.82,.18c-.07-.34-.29-.41-.59-.34h-.4c-.36-.12-.55,.13-.71,.36-.15,.21,.07,.34,.19,.45,.21,.18,.58,.24,.44,.67-.02,.06,.16,.21,.26,.29,.11,.08,.25,.13,.24,.3-.19,.05-.36-.05-.55-.07,0-.19-.11-.28-.29-.27-.24,.02-.33,.2-.41,.39-.06,.16-.04,.29,.11,.41,.38,.32,1.27,.41,1.7,.15,.49-.29,.58-.95,.18-1.22h0c-.01-.42,.17-.62,.6-.51,.21,.45,.04,.92,.1,1.38-.05,.23-.03,.4,.27,.38h.22c.31,.03,.3-.19,.3-.39,0-.6,0-1.2,0-1.8,0-.21,0-.41-.22-.51-.2-.09-.36,0-.55,.11-.27,.14-.5,.54-.89,.22h0Zm-16.1,1.69c-.24-.04-.48,0-.71-.16-.25-.17-.47,0-.62,.22-.16,.22,.04,.34,.16,.46,.33,.32,1.24,.38,1.6,.11,.61-.47,.54-1.12-.18-1.64,.23-.12,.52-.24,.46-.55-.05-.26-.33-.4-.57-.48-.18-.06-.4,0-.6-.03-.37-.05-.81,.51-.9,.82-.08,.28,.33,.76,.7,.85,.26,.06,.47,.21,.67,.39h0Zm4.21,.7c.33,.08,.4-.11,.4-.38,0-.62,0-1.23,0-1.85,0-.26-.06-.46-.35-.51-.29-.06-.4,.18-.54,.35-.1,.13,.07,.41-.15,.42-.18,.01-.22-.26-.34-.4-.05-.06-.09-.12-.14-.19-.16-.22-.39-.24-.62-.17-.22,.07-.27,.27-.26,.49,0,.62,0,1.23,0,1.85,0,.28,.07,.46,.4,.39h.12c.33,.03,.41-.15,.41-.44,0-.17-.1-.41,.2-.47,.01,.02,.02,.05,.02,.07,.16,.35,.2,.82,.74,.84h.12Zm11.87-11.76c0-.99,0-1.97,0-2.96,0-.48-.13-.65-.6-.59-.69,.08-1.38,.05-2.08,.08-.23,0-.52,.02-.51,.33,0,.3,.23,.38,.52,.39,.85,.02,.85,.03,.85,.89,.02,2.76-.05,5.52,.03,8.28,0,.31-.19,.43-.46,.47-.14,.02-.28,0-.42,.01-.21,0-.3,.13-.29,.33,0,.21,.06,.37,.31,.37,1.03,0,2.07,0,3.1,0,.2,0,.42-.07,.44-.32,.03-.29-.22-.35-.43-.38-.18-.02-.36-.04-.4-.24-.12-.67-.17-1.35,.03-2,.11-.36,.37-.37,.6-.06,.45,.6,.88,1.2,1.3,1.82,.12,.18,.18,.42-.17,.49-.2,.04-.36,.11-.32,.36,.04,.24,.19,.34,.42,.34,1.03,0,2.07,0,3.1,0,.23,0,.4-.09,.42-.33,.02-.28-.17-.37-.42-.38-.38,0-.69-.19-.9-.47-.76-1.02-1.51-2.05-2.26-3.07-.11-.15-.19-.32-.04-.46,.79-.71,1.39-1.67,2.55-1.87,.13-.02,.26-.09,.39-.15,.32-.14,.27-.32,.05-.52-.13-.12-.27-.12-.43-.12-.91,0-1.82,0-2.73,0-.29,0-.64,.06-.66,.36-.03,.31,.31,.4,.6,.43,.02,0,.03,0,.05,0,.17,.02,.36,.03,.42,.22,.06,.19-.09,.31-.21,.43-.49,.49-.97,.99-1.46,1.48-.08,.08-.12,.25-.28,.17-.14-.07-.1-.21-.1-.33,0-1,0-2,0-3.01Zm-10.29,3.56c0-.94,0-1.88,0-2.82,0-.25-.05-.5-.34-.5-.77-.01-1.54-.07-2.3,.1-.16,.03-.36,.08-.36,.3,0,.19,.17,.29,.32,.36,.08,.04,.18,.03,.27,.04,.42,.02,.62,.19,.61,.66-.03,1.03-.05,2.07,0,3.1,.03,.64-.29,1.06-.71,1.42-.26,.23-.64,.32-.99,.25-.53-.1-.74-.39-.74-1.05-.01-1.48,0-2.96,0-4.44,0-.61-.13-.75-.72-.75-.6,0-1.2-.01-1.8,.08-.25,.04-.5,.06-.5,.35,0,.32,.26,.36,.53,.37,.58,.02,.67,.12,.67,.69,0,1.31,0,2.62,0,3.93,0,1.05,.63,1.84,1.61,2.01,.88,.15,1.64-.13,2.3-.71,.2-.18,.34-.26,.35,.11,.01,.38,.23,.55,.6,.54,.63,0,1.26,0,1.9,0,.14,0,.29,.03,.39-.1,.08-.11,.17-.23,.11-.38-.08-.21-.27-.22-.46-.23-.66-.04-.71-.1-.71-.74,0-.86,0-1.73,0-2.59Zm-9.76-1.75c.48-.2,.77-.44,1.03-.72,1.15-1.19,.75-2.86-.53-3.68-.9-.58-1.91-.64-2.91-.69-1.35-.06-2.71-.02-4.07-.01-.33,0-.81-.03-.82,.39-.01,.43,.44,.41,.79,.41,.74,.01,1.01,.31,1.01,1.06,0,2.18,0,4.35,0,6.53,0,1.45,.08,1.47-1.37,1.76-.23,.05-.5,.08-.45,.4,.04,.3,.28,.35,.56,.35,1.7-.01,3.39,0,5.09,0,.56,0,1.11-.17,1.61-.36,.9-.34,1.66-.91,2.01-1.88,.2-.56,.25-1.94-.37-2.57-.43-.43-.92-.75-1.6-.98Zm29.17,1.9c.6,0,1.2-.02,1.8,0,.45,.02,.54-.26,.53-.58-.06-1.31-.65-2.36-1.95-2.82-1.25-.44-2.32-.13-3.24,.67-1.03,.89-1.34,2.07-1.27,3.44,.09,1.59,1.41,3.06,2.93,3.23,1.68,.19,2.76-.59,3.6-1.96,.08-.13,.12-.34-.05-.46-.16-.11-.35-.13-.5,.04-.18,.2-.37,.41-.55,.62-.78,.89-1.94,.96-2.81,.16-.61-.56-.73-1.32-.75-2.09,0-.25,.21-.26,.41-.26,.62,0,1.23,0,1.85,0Zm-14.82-2.83c-.12-.3,.02-.72-.47-.76-.73-.05-1.44,.09-2.16,.11-.22,0-.52,.14-.52,.43,0,.32,.27,.41,.54,.46,.04,0,.09,0,.14,0,.42-.05,.52,.15,.52,.54-.02,1.47-.01,2.93,0,4.4,0,.69,.02,.7-.64,.8-.23,.04-.46,.08-.45,.35,.01,.28,.21,.41,.51,.4,.74-.02,1.48,0,2.22,0,.4,0,.8,0,1.2,0,.24,0,.44-.08,.46-.35,.02-.25-.16-.33-.37-.41-.17-.06-.33-.06-.5-.07-.34-.02-.52-.17-.52-.56,.02-1.14,0-2.28,0-3.42,0-.41,.2-.73,.49-1,.19-.18,.35-.21,.46,.12,.13,.38,.72,.7,1.09,.58,.67-.22,.97-.39,.92-1.26-.04-.59-.53-1.06-1.08-1.13-.77-.1-1.3,.32-1.85,.77Zm-2.13,8.91c.16-.1,.34-.05,.51-.05,.22,0,.49,0,.5-.28,.01-.27-.21-.41-.47-.42-.35-.02-.71-.02-1.06,0-.26,.01-.43,.14-.43,.44,0,.62,0,1.23,0,1.85,0,.23,.1,.41,.34,.42,.45,.02,.89,.02,1.34,0,.19,0,.3-.14,.31-.34,0-.2-.14-.28-.29-.31-.2-.03-.4-.02-.6-.03-.14,0-.29,0-.3-.2,0-.19,.13-.22,.28-.22,.16,0,.33-.02,.34-.22,.01-.21-.05-.4-.29-.47-.08-.02-.2,0-.21-.17Zm-2.15,1.98s.17,0,.29-.02c.34-.07,.63-.44,.51-.69-.17-.35-.41-.18-.65-.05-.28,.16-.45-.03-.6-.25-.19-.3-.17-.56,.08-.83,.19-.2,.35-.28,.58-.06,.18,.16,.42,.2,.55-.02,.12-.21,.08-.42-.17-.59-.51-.34-.85-.34-1.38,.05-.43,.32-.62,1.01-.43,1.59,.19,.58,.56,.86,1.21,.86Zm5.63-1.35h0c0-.31,0-.61,0-.92,0-.17,0-.36-.23-.38-.32-.03-.54,.18-.74,.39-.11,.12-.14,.33,.06,.43,.23,.12,.22,.31,.21,.51,0,.18-.02,.37,0,.55,.03,.29-.14,.75,.36,.74,.48-.01,.31-.47,.34-.76,.02-.18,0-.37,0-.55Z"/><path class="h" d="M0,23.95c.18,0,.37,.03,.55,.03,15.23,0,30.46,0,45.69,0,.2,0,.4-.02,.6-.03,.02,.16-.03,.28-.22,.28-.11,0-.22,0-.32,0-15.25,0-30.5,0-45.75,0-.2,0-.54,.18-.55-.26Z"/><path class="f" d="M31.38,8.46c0,1,0,2,0,3.01,0,.12-.05,.26,.1,.33,.16,.07,.2-.09,.28-.17,.49-.49,.97-.99,1.46-1.48,.12-.12,.27-.24,.21-.43-.06-.2-.25-.2-.42-.22-.02,0-.03,0-.05,0-.28-.04-.62-.13-.6-.43,.03-.3,.37-.36,.66-.36,.91,0,1.82,0,2.73,0,.16,0,.3,0,.43,.12,.22,.2,.27,.38-.05,.52-.13,.06-.25,.13-.39,.15-1.16,.2-1.76,1.16-2.55,1.87-.15,.14-.07,.31,.04,.46,.75,1.02,1.5,2.06,2.26,3.07,.22,.29,.52,.47,.9,.47,.25,0,.44,.1,.42,.38-.02,.24-.19,.33-.42,.33-1.03,0-2.07,0-3.1,0-.23,0-.38-.1-.42-.34-.04-.25,.12-.32,.32-.36,.34-.06,.29-.3,.17-.49-.42-.62-.85-1.22-1.3-1.82-.23-.31-.49-.3-.6,.06-.19,.65-.15,1.34-.03,2,.04,.2,.22,.22,.4,.24,.21,.03,.46,.08,.43,.38-.02,.25-.24,.32-.44,.32-1.03,.01-2.07,0-3.1,0-.25,0-.3-.16-.31-.37,0-.2,.08-.32,.29-.33,.14,0,.28,0,.42-.01,.27-.04,.47-.15,.46-.47-.08-2.76-.01-5.52-.03-8.28,0-.86,0-.87-.85-.89-.29,0-.52-.09-.52-.39,0-.31,.29-.32,.51-.33,.69-.03,1.38,0,2.08-.08,.46-.06,.6,.11,.6,.59,0,.99,0,1.97,0,2.96Zm1.32,.6c.3,.16,.57-.01,.77,.2,.36,.37,.35,.69-.07,1.13-.56,.6-1.19,1.12-1.7,1.76-.14,.18-.34,.14-.51,.1-.19-.05-.17-.23-.17-.38,0-.66,0-1.33,0-1.99,0-1.4,0-2.81,0-4.21,0-.19,.06-.43-.27-.43-.68,0-1.37,0-2.05,0,1.12,.25,1.2,.48,1.19,1.54,0,2.56,0,5.12,0,7.68,0,.49,.01,.98-.58,1.2h2.2c-.22-.18-.43-.3-.42-.62,.02-.59,0-1.17,0-1.76,0-.34,.41-.81,.72-.88,.15-.03,.21,.05,.28,.17,.37,.68,.84,1.29,1.35,1.87,.15,.17,.36,.33,.37,.59,.02,.36-.22,.52-.54,.62h2.86c-.62-.13-.92-.61-1.24-1.05-.61-.85-1.27-1.66-1.83-2.55-.37-.59-.42-.66,.1-1.11,.08-.07,.16-.14,.24-.21,.79-.67,1.42-1.58,2.6-1.67h-3.32Z"/><path class="f" d="M21.09,12.02c0,.86,0,1.73,0,2.59,0,.64,.05,.7,.71,.74,.19,.01,.38,.02,.46,.23,.06,.15-.02,.27-.11,.38-.1,.13-.25,.1-.39,.1-.63,0-1.26,0-1.9,0-.37,0-.58-.16-.6-.54-.01-.37-.14-.29-.35-.11-.65,.58-1.42,.86-2.3,.71-.97-.16-1.6-.95-1.61-2.01-.01-1.31,0-2.62,0-3.93,0-.57-.08-.66-.67-.69-.27-.01-.53-.05-.53-.37,0-.29,.25-.32,.5-.35,.6-.09,1.2-.08,1.8-.08,.58,0,.72,.14,.72,.75,0,1.48,0,2.96,0,4.44,0,.66,.21,.95,.74,1.05,.36,.07,.73-.02,.99-.25,.42-.36,.73-.79,.71-1.42-.05-1.03-.03-2.07,0-3.1,.01-.47-.19-.64-.61-.66-.09,0-.19,0-.27-.04-.15-.08-.32-.18-.32-.36,0-.21,.2-.26,.36-.3,.76-.17,1.53-.11,2.3-.1,.3,0,.35,.25,.34,.5,0,.94,0,1.88,0,2.82Zm-2.28,2.93c-.09,.02-.19,0-.23,.05-.4,.42-.93,.32-1.32,.15-.48-.19-.79-.63-.77-1.24,.03-1.48,.01-2.96,0-4.44,0-.16,.09-.39-.19-.44-.14-.03-1.93,.02-2.11,.06,.99,.12,1.09,.24,1.09,1.29,0,1.12,0,2.25,0,3.37,0,.47,.17,.9,.36,1.32,.29,.66,1,.81,1.54,.76,.57-.05,1.29-.17,1.64-.89Zm-.28-5.92v.09c.06,0,.11,.01,.17,.01,.6,.04,.92,.37,.93,.95,0,.72,0,1.45,0,2.17,0,.78,.14,1.6-.5,2.25-.1,.1-.06,.27,.11,.26,.41-.03,.4,.22,.39,.5,0,.17-.02,.4,.19,.41,.57,.03,1.14,.01,1.7,.01-1-.37-.87-.6-.87-1.35,0-1.63,0-3.27,0-4.9,0-.28-.06-.43-.38-.41-.58,.02-1.17,0-1.75,0Z"/><path class="j" d="M11.33,10.27c.68,.22,1.17,.54,1.6,.98,.62,.63,.57,2.01,.37,2.57-.35,.98-1.11,1.54-2.01,1.88-.5,.19-1.05,.36-1.61,.36-1.7,0-3.39,0-5.09,0-.28,0-.51-.04-.56-.35-.05-.32,.22-.35,.45-.4,1.45-.29,1.37-.31,1.37-1.76,0-2.18,0-4.35,0-6.53,0-.75-.27-1.04-1.01-1.06-.35,0-.8,.01-.79-.41,0-.42,.49-.39,.82-.39,1.36-.01,2.72-.05,4.07,.01,1,.05,2.01,.11,2.91,.69,1.28,.82,1.68,2.49,.53,3.68-.27,.27-.56,.52-1.03,.72ZM4.36,5.52v.1c.17,0,.33,0,.5,0,.74,.01,1.16,.43,1.16,1.16,0,2.54,0,5.09,0,7.63,0,.8-.3,1.09-1.11,1.11-.2,0-.41-.05-.61,.06,.08,.17,.2,.13,.3,.13,1.67,0,3.33,.03,5-.01,.8-.02,1.59-.15,2.3-.62,.78-.51,1.11-1.26,1.33-2.08,.07-.25-.03-.51-.14-.78-.3-.74-.75-1.23-1.51-1.52-.19-.07-.66-.06-.61-.43,.04-.3,.43-.34,.68-.49,1.23-.73,1.42-2.4,.44-3.34-.6-.58-1.39-.84-2.14-.88-1.86-.11-3.72-.04-5.59-.04Z"/><path class="g" d="M40.49,12.17c-.62,0-1.23,0-1.85,0-.19,0-.41,.01-.41,.26,.02,.78,.14,1.53,.75,2.09,.86,.8,2.03,.72,2.81-.16,.18-.21,.36-.41,.55-.62,.15-.17,.34-.15,.5-.04,.17,.12,.14,.32,.05,.46-.84,1.37-1.92,2.15-3.6,1.96-1.53-.17-2.85-1.64-2.93-3.23-.07-1.36,.24-2.54,1.27-3.44,.93-.8,2-1.11,3.24-.67,1.3,.46,1.89,1.51,1.95,2.82,.01,.32-.08,.6-.53,.58-.6-.03-1.2,0-1.8,0Zm2.07,1.78c-.63,.78-1.29,1.41-2.42,1.31-.83-.07-1.37-.4-1.76-1.14-.2-.38-.27-.78-.39-1.16-.26-.84,.01-1.14,.92-1.14,1.09,0,2.19,0,3.28,0,.29,0,.4-.08,.41-.39,0-.33-.14-.58-.25-.87-.32-.87-.88-1.41-1.82-1.6-.65-.13-1.31-.12-1.89,.12-1.2,.48-1.8,1.53-2.05,2.72-.22,1.06,.06,2.1,.76,2.96,1,1.24,3.04,1.58,4.42,.4,.38-.32,.73-.68,.79-1.22Z"/><path class="e" d="M25.68,9.35c.55-.46,1.08-.87,1.85-.77,.55,.07,1.04,.54,1.08,1.13,.05,.87-.25,1.04-.92,1.26-.37,.13-.97-.2-1.09-.58-.11-.33-.27-.3-.46-.12-.29,.26-.49,.59-.49,1,0,1.14,.01,2.28,0,3.42,0,.38,.18,.53,.52,.56,.17,.01,.33,.02,.5,.07,.21,.07,.39,.16,.37,.41-.02,.27-.22,.35-.46,.35-.4,0-.8,0-1.2,0-.74,0-1.48-.01-2.22,0-.3,0-.5-.12-.51-.4-.01-.27,.22-.32,.45-.35,.66-.11,.65-.12,.64-.8,0-1.47-.01-2.93,0-4.4,0-.39-.1-.6-.52-.54-.05,0-.09,0-.14,0-.27-.05-.55-.14-.54-.46,0-.29,.3-.42,.52-.43,.72-.01,1.44-.16,2.16-.11,.49,.04,.35,.46,.47,.76Zm-.22,3.64c0-.59,.03-1.18,0-1.76-.05-.63,.34-1,.73-1.36,.24-.22,.49-.1,.57,.22,.11,.46,.44,.67,.93,.61,.42-.05,.74-.39,.75-.81,.02-.7-.72-1.24-1.4-1.06-.44,.12-.78,.34-1.08,.67-.09,.1-.17,.3-.36,.23-.18-.07-.23-.24-.2-.43,.03-.3-.12-.37-.38-.36-.59,.01-1.17,0-1.76,.01-.13,0-.33-.02-.33,.16,0,.17,.19,.1,.3,.12,.6,.1,.86,.39,.86,.99,0,1.5,0,2.99,0,4.49,0,.63-.15,.78-.79,.81-.12,0-.34-.07-.35,.11-.02,.22,.21,.18,.35,.18,.93,0,1.85,0,2.78,0,.2,0,.54,.11,.54-.16,0-.24-.33-.11-.5-.12-.52-.03-.63-.13-.64-.63,0-.63,0-1.27,0-1.9Z"/><path class="h" d="M23.54,18.25c.01,.17,.13,.14,.21,.17,.23,.07,.3,.26,.29,.47-.01,.2-.18,.22-.34,.22-.15,0-.29,.03-.28,.22,0,.2,.16,.19,.3,.2,.2,0,.4,0,.6,.03,.15,.03,.29,.11,.29,.31,0,.2-.12,.33-.31,.34-.45,.02-.89,.02-1.34,0-.24,0-.34-.18-.34-.42,0-.62,0-1.23,0-1.85,0-.3,.17-.43,.43-.44,.35-.02,.71-.02,1.06,0,.25,.01,.48,.15,.47,.42-.02,.28-.28,.27-.5,.28-.17,0-.36-.05-.51,.05Z"/><path class="g" d="M21.39,20.23c-.66,0-1.03-.28-1.21-.86-.19-.58,0-1.26,.43-1.59,.53-.4,.87-.39,1.38-.05,.25,.17,.29,.38,.17,.59-.13,.23-.37,.19-.55,.02-.23-.21-.4-.13-.58,.06-.25,.26-.27,.53-.08,.83,.14,.22,.32,.4,.6,.25,.24-.13,.47-.3,.65,.05,.12,.25-.16,.62-.51,.69-.12,.02-.24,.01-.29,.02Z"/><path class="i" d="M18.64,19.38s0-.05-.02-.07c.02-.26-.19-.4-.36-.39-.23,.01-.1,.27-.11,.41-.02,.3,.03,.61-.13,.89h-.12c-.38-.63-.15-1.32-.2-1.99-.02-.22,0-.48,.25-.54,.2-.05,.35,.14,.47,.31,.22,.3,.33,.7,.71,.89,.21-.26,.1-.57,.13-.85,.02-.15-.01-.35,.2-.35,.16,0,.24,.18,.24,.3,0,.74,.18,1.51-.18,2.22h-.12c-.24-.29-.4-.64-.74-.84Z"/><path class="h" d="M30.4,17.49c.13,0,.27,0,.4,0,.14,.21,.36,.29,.59,.34h0c.07,.28,.14,.56,.04,.85-.05,.13-.04,.24,.13,.28h0c0,.21,.13,.38,.04,.62-.29,.73-1.33,.72-1.78,.28-.14-.14-.09-.26,.06-.32,.12-.05,.27-.03,.4-.04,.18,.02,.36,.12,.55,.07,.44-.21,.17-.35-.05-.47-.24-.13-.41-.25-.1-.48,.14-.1,.31-.21,.2-.4-.1-.17-.3-.11-.46-.08-.04,0-.09,.03-.13,.04-.15,.03-.28,0-.34-.15-.05-.14,.05-.22,.16-.29,.12-.07,.26-.11,.31-.25Z"/><path class="p" d="M15.3,19.51c-.2-.17-.4-.32-.67-.39-.37-.09-.79-.57-.7-.85,.09-.3,.53-.86,.9-.82,.2,.02,.42-.04,.6,.03,.24,.08,.51,.22,.57,.48,.06,.31-.22,.43-.46,.55,.72,.51,.79,1.17,.18,1.64-.36,.27-1.27,.21-1.6-.11-.13-.12-.32-.24-.16-.46,.16-.21,.37-.38,.62-.22,.23,.15,.47,.12,.71,.16-.21,.32-.47,.06-.7,.07-.12,0-.26-.05-.32,.11-.04,.1,.03,.18,.1,.24,.32,.27,.68,.29,1.04,.13,.32-.14,.56-.37,.52-.78-.04-.4-.33-.53-.66-.6-.26-.06-.56-.16-.5-.42,.06-.27,.38-.15,.6-.1,.04,0,.09,.02,.13,.03,.08,0,.15-.04,.18-.12,.04-.08,0-.14-.06-.2-.31-.38-1.2-.26-1.39,.2-.2,.47,0,.79,.6,.96,.23,.07,.62,.02,.45,.48Z"/><path class="i" d="M28.24,20.17c-.09,0-.19,0-.28,0-.15-.24-.09-.44,.12-.61,.09,0,.17-.02,.26-.03,.23,.07,.2-.07,.12-.18-.09-.11-.25-.1-.38-.14-.37-.11-.64-.34-.66-.74-.02-.36,.23-.57,.54-.73,.43-.21,.81-.05,1.19,.1h0c.04,.12,.08,.24,.11,.35-.26,.32-.48,.66-.47,1.1,0,.13,.07,.19,.19,.22-.08,.42-.55,.37-.75,.65Zm.12-1.41c.29,.01,.45-.06,.44-.33,0-.27-.17-.33-.4-.32-.22,.01-.45,.04-.45,.33,0,.3,.25,.29,.4,.32Z"/><path class="h" d="M27.02,18.88c0,.18,.01,.37,0,.55-.03,.29,.15,.75-.34,.76-.5,.01-.33-.44-.36-.74-.02-.18,0-.37,0-.55,0-.2,.02-.39-.21-.51-.2-.1-.17-.32-.06-.43,.19-.21,.41-.42,.74-.39,.23,.02,.23,.21,.23,.38,0,.31,0,.61,0,.92h0Z"/><path class="n" d="M19.5,20.22c.36-.71,.18-1.48,.18-2.22,0-.12-.07-.3-.24-.3-.21,0-.18,.2-.2,.35-.03,.28,.08,.58-.13,.85-.38-.19-.49-.59-.71-.89-.12-.17-.27-.36-.47-.31-.24,.06-.27,.32-.25,.54,.05,.66-.17,1.36,.2,1.99-.33,.07-.4-.11-.4-.39,0-.62,0-1.23,0-1.85,0-.22,.04-.41,.26-.49,.23-.07,.46-.05,.62,.17,.05,.06,.09,.13,.14,.19,.12,.14,.17,.41,.34,.4,.22-.01,.05-.3,.15-.42,.14-.17,.25-.41,.54-.35,.29,.06,.35,.25,.35,.51,0,.62,0,1.23,0,1.85,0,.28-.07,.46-.4,.38Z"/><path class="h" d="M32.74,20.22c-.07,0-.15,0-.22,0-.07-.14-.11-.3-.27-.38-.06-.46,.11-.93-.1-1.38-.04-.1-.11-.2-.11-.3,0-.34,.34-.35,.54-.48,.11-.07,.26,.04,.26,.17-.01,.79,.15,1.58-.11,2.36Z"/><path class="n" d="M32.74,20.22c.26-.78,.09-1.57,.11-2.36,0-.13-.15-.25-.26-.17-.2,.13-.54,.14-.54,.48,0,.1,.07,.2,.11,.3-.43-.11-.61,.08-.6,.5-.17-.04-.17-.15-.13-.28,.1-.29,.03-.57-.04-.85,.39,.32,.62-.08,.89-.22,.19-.1,.35-.2,.55-.11,.22,.1,.22,.31,.22,.51,0,.6,0,1.2,0,1.8,0,.2,.01,.43-.3,.39Z"/><path class="j" d="M17.03,20.06c-.14,.09-.29,.12-.46,.09-.13-.83-.15-1.66,0-2.5,.06-.1,.13-.16,.26-.15,.2,.26,.22,.55,.22,.86-.02,.57,0,1.13,0,1.7Zm-.33-.25h.09v-1.82h-.09v1.82Z"/><path class="n" d="M30.4,17.49c-.05,.15-.19,.19-.31,.25-.11,.07-.21,.14-.16,.29,.06,.16,.19,.18,.34,.15,.04,0,.09-.03,.13-.04,.16-.04,.36-.1,.46,.08,.11,.19-.06,.3-.2,.4-.31,.23-.14,.35,.1,.48,.22,.12,.49,.26,.05,.47,.01-.17-.13-.22-.24-.3-.11-.08-.29-.23-.26-.29,.14-.43-.23-.49-.44-.67-.13-.11-.34-.24-.19-.45,.16-.24,.36-.48,.71-.36Z"/><path class="n" d="M30.27,19.51c-.14,0-.28-.01-.4,.04-.15,.06-.2,.18-.06,.32,.45,.44,1.5,.45,1.78-.28,.09-.24-.04-.41-.04-.62,.41,.27,.31,.92-.18,1.22-.43,.26-1.32,.17-1.7-.15-.14-.12-.17-.25-.11-.41,.08-.19,.17-.37,.41-.39,.18-.01,.29,.08,.29,.27Z"/><path class="e" d="M29.15,17.85c-.39-.16-.77-.32-1.19-.1-.31,.15-.55,.37-.54,.73,.02,.4,.29,.63,.66,.74,.13,.04,.29,.03,.38,.14,.08,.11,.12,.25-.12,.18-.23-.22-.6-.14-.83-.42-.23-.28-.37-.57-.25-.88,.14-.35,.41-.71,.81-.73,.38-.03,.89-.24,1.09,.35Z"/><path class="n" d="M17.03,20.06c0-.57,0-1.13,0-1.7,0-.31-.02-.61-.22-.86,.26-.03,.38,.12,.39,.34,.02,.67,0,1.34,0,2.01,0,.12-.05,.2-.18,.21Z"/><path class="n" d="M16.57,17.65c-.15,.83-.13,1.67,0,2.5-.22,0-.28-.15-.28-.34,0-.6,0-1.2,0-1.8,0-.19,.05-.34,.27-.35Z"/><path class="n" d="M18.02,20.22c.17-.28,.12-.59,.13-.89,0-.15-.12-.4,.11-.41,.16-.01,.37,.14,.36,.39-.29,.06-.2,.3-.2,.47,0,.29-.08,.47-.41,.44Z"/><path class="c" d="M28.99,19.52c-.12-.02-.19-.08-.2-.22-.01-.44,.21-.78,.47-1.1h.09c0,.09,.02,.18,.03,.27,0,.07,0,.14,0,.22l-.06,.36c-.25,.05-.36,.21-.33,.47h0Z"/><path class="e" d="M28.24,20.17c.2-.28,.68-.23,.75-.65h0c.2-.03,.21-.28,.4-.32-.06,.54-.69,1.07-1.15,.97Z"/><path class="n" d="M18.64,19.38c.34,.2,.5,.55,.74,.84-.55-.02-.58-.49-.74-.84Z"/><path class="e" d="M28.08,19.56c-.21,.17-.27,.37-.12,.61-.24,.14-.34,.01-.36-.2-.03-.33,.17-.45,.48-.41Z"/><path class="n" d="M31.39,17.83c-.23-.05-.45-.12-.59-.34,.3-.07,.52,0,.59,.34Z"/><path class="i" d="M29.39,19.2c-.19,.04-.2,.29-.4,.31-.03-.26,.08-.41,.33-.47h.11l-.04,.16Z"/><path class="o" d="M29.43,19.05h-.11c.02-.13,.04-.25,.06-.37h.16c.22,.18-.04,.25-.1,.37Z"/><path class="n" d="M32.25,19.84c.16,.08,.2,.24,.27,.38-.3,.03-.32-.15-.27-.38Z"/><path class="e" d="M29.36,18.2h-.09c-.04-.11-.08-.23-.11-.34,.27,0,.18,.2,.2,.34Z"/><path class="e" d="M29.53,18.67h-.16v-.2c.11,.02,.15,.1,.16,.2Z"/><path class="d" d="M32.7,9.06h3.32c-1.17,.09-1.81,1-2.6,1.67-.08,.07-.16,.14-.24,.21-.52,.45-.47,.53-.1,1.11,.56,.89,1.22,1.7,1.83,2.55,.32,.45,.62,.92,1.24,1.05h-2.86c.32-.1,.56-.26,.54-.62-.01-.25-.22-.41-.37-.59-.51-.58-.98-1.19-1.35-1.87-.07-.12-.13-.2-.28-.17-.31,.07-.71,.54-.72,.88-.01,.59,0,1.17,0,1.76,0,.32,.2,.44,.42,.62h-2.2c.6-.22,.58-.71,.58-1.2,0-2.56,0-5.12,0-7.68,0-1.07-.08-1.29-1.19-1.54,.68,0,1.37,0,2.05,0,.32,0,.27,.23,.27,.43,0,1.4,0,2.81,0,4.21,0,.66,0,1.33,0,1.99,0,.16-.01,.33,.17,.38,.18,.05,.37,.08,.51-.1,.5-.65,1.14-1.17,1.7-1.76,.41-.44,.42-.76,.07-1.13-.2-.21-.48-.04-.77-.2Z"/><path class="d" d="M18.81,14.96c-.35,.71-1.06,.84-1.64,.89-.54,.05-1.25-.1-1.54-.76-.18-.42-.36-.84-.36-1.32,0-1.12,0-2.25,0-3.37,0-1.05-.1-1.16-1.09-1.29,.18-.05,1.97-.09,2.11-.06,.28,.05,.19,.28,.19,.44,0,1.48,.02,2.96,0,4.44-.01,.61,.29,1.05,.77,1.24,.4,.16,.93,.27,1.32-.15,.04-.04,.14-.03,.23-.05Z"/><path class="d" d="M18.53,9.04c.58,0,1.17,.01,1.75,0,.32-.01,.38,.13,.38,.41,0,1.63,0,3.27,0,4.9,0,.75-.13,.98,.87,1.35-.57,0-1.14,.02-1.7-.01-.21-.01-.2-.25-.19-.41,.01-.28,.02-.53-.39-.5-.17,.01-.21-.15-.11-.26,.64-.65,.49-1.47,.5-2.25,0-.72,0-1.45,0-2.17,0-.58-.33-.91-.93-.95-.06,0-.11,0-.17-.01v-.09Z"/><path class="d" d="M4.36,5.52c1.86,0,3.73-.07,5.59,.04,.74,.04,1.53,.3,2.14,.88,.98,.94,.79,2.61-.44,3.34-.24,.14-.63,.19-.68,.49-.05,.37,.41,.35,.61,.43,.75,.29,1.21,.78,1.51,1.52,.11,.27,.21,.53,.14,.78-.22,.83-.56,1.58-1.33,2.08-.72,.47-1.5,.6-2.3,.62-1.66,.04-3.33,.01-5,.01-.1,0-.22,.04-.3-.13,.2-.11,.42-.06,.61-.06,.8-.01,1.11-.31,1.11-1.11,0-2.54,0-5.09,0-7.63,0-.73-.42-1.15-1.16-1.16-.17,0-.33,0-.5,0v-.1Zm5.82,9.81c.55-.09,.97-.38,1.19-.89,.25-.58,.21-1.21,.22-1.84,0-.96-.88-2.03-1.86-2-.26-.34-1.64-.41-1.95-.09l-.28,.28c-.33,.18-.2,.41-.08,.64v.28s-.09,.1-.09,.15c0,.98-.02,1.96,0,2.94,0,.17-.04,.46,.26,.52,.13,.09,.28,.11,.44,.11,.62,0,1.25-.01,1.87-.02,.15,.16,.24,.11,.27-.09Zm-2.86-7.43c0,.54-.01,1.08,0,1.62,.02,.54,.2,.71,.74,.72,.4,0,.8,0,1.2,0,.67-.02,1.22-.26,1.64-.82,.17-.23,.17-.48,.26-.71,.32-.78,.1-2.03-.63-2.51-.68-.46-1.49-.57-2.31-.56-.59,0-.91,.32-.91,.9,0,.46,0,.92,0,1.39Z"/><path class="c" d="M42.56,13.95c-.06,.54-.41,.89-.79,1.22-1.38,1.19-3.42,.84-4.42-.4-.69-.86-.98-1.9-.76-2.96,.25-1.18,.85-2.23,2.05-2.72,.59-.24,1.24-.25,1.89-.12,.94,.19,1.49,.73,1.82,1.6,.11,.29,.26,.54,.25,.87,0,.31-.11,.39-.41,.39-1.09-.01-2.19,0-3.28,0-.91,0-1.19,.3-.92,1.14,.12,.38,.2,.78,.39,1.16,.39,.74,.93,1.07,1.76,1.14,1.14,.1,1.79-.53,2.42-1.31Zm-3-2.42c.35,0,.71,0,1.06,0,.27,0,.44-.15,.42-.38-.04-.36-.02-.74-.13-1.1-.2-.61-1.13-1.05-1.66-.75-.69,.39-.99,1.02-1.08,1.77-.04,.29,.08,.47,.42,.45,.32-.02,.65,0,.97,0Z"/><path class="b" d="M25.45,12.99c0,.63,0,1.27,0,1.9,0,.5,.12,.6,.64,.63,.18,.01,.51-.12,.5,.12,0,.27-.35,.16-.54,.16-.93,.01-1.85,0-2.78,0-.14,0-.37,.04-.35-.18,.01-.18,.22-.1,.35-.11,.64-.03,.79-.18,.79-.81,0-1.5,0-2.99,0-4.49,0-.59-.26-.89-.86-.99-.11-.02-.3,.05-.3-.12,0-.18,.2-.16,.33-.16,.59,0,1.17,0,1.76-.01,.26,0,.42,.06,.38,.36-.02,.18,.02,.36,.2,.43,.19,.07,.27-.12,.36-.23,.3-.33,.65-.55,1.08-.67,.68-.18,1.42,.37,1.4,1.06-.01,.42-.33,.76-.75,.81-.49,.05-.81-.16-.93-.61-.08-.32-.33-.44-.57-.22-.4,.36-.78,.73-.73,1.36,.04,.58,0,1.17,0,1.76Z"/><path class="i" d="M15.3,19.51c.17-.46-.22-.41-.45-.48-.59-.18-.8-.49-.6-.96,.19-.46,1.08-.58,1.39-.2,.05,.06,.1,.12,.06,.2-.04,.07-.1,.12-.18,.12-.05,0-.09-.02-.13-.03-.22-.05-.54-.17-.6,.1-.06,.26,.24,.37,.5,.42,.32,.07,.62,.2,.66,.6,.04,.41-.2,.64-.52,.78-.35,.15-.72,.14-1.04-.13-.07-.06-.14-.14-.1-.24,.06-.16,.2-.11,.32-.11,.23,0,.5,.26,.7-.07h0Z"/><path class="n" d="M28.36,18.76c-.15-.02-.4-.01-.4-.32,0-.3,.23-.32,.45-.33,.22-.01,.39,.05,.4,.32,0,.26-.15,.34-.44,.33Z"/><path class="b" d="M16.7,19.81v-1.82h.09v1.82h-.09Z"/><path class="g" d="M7.32,7.9c0-.46,0-.92,0-1.39,0-.58,.32-.89,.91-.9,.82,0,1.62,.11,2.31,.56,.73,.48,.95,1.74,.63,2.51-.1,.23-.09,.48-.26,.71-.42,.57-.97,.81-1.64,.82-.4,0-.8,0-1.2,0-.53,0-.72-.17-.74-.72-.02-.54,0-1.08,0-1.62Zm.37,.02c0,.51,0,1.02,0,1.53,0,.37,.14,.53,.52,.53,.57,0,1.13-.06,1.69-.17,.35-.07,.57-.28,.78-.57,.39-.55,.25-1.16,.25-1.74,0-.57-.31-.97-.81-1.24-.69-.38-1.44-.24-2.17-.25-.25,0-.27,.2-.27,.4,0,.51,0,1.02,0,1.53Z"/><path class="j" d="M9.72,10.61c.98-.03,1.87,1.04,1.86,2,0,.62,.03,1.25-.22,1.84-.22,.51-.64,.8-1.19,.89-.1,0-.21-.01-.27,.09-.62,0-1.25,0-1.87,.02-.16,0-.3-.02-.44-.11-.19-1.02-.05-2.05-.1-3.07,0-.18,.06-.37-.08-.53,0-.09,0-.19,0-.28,.15-.2,.05-.43,.08-.64l.28-.28c.65,.02,1.3-.05,1.95,.09Zm-1.96,2.31c0,.63,0,1.26,0,1.89,0,.26,.09,.36,.35,.35,.6-.01,1.2,0,1.8-.02,.71-.03,1.18-.47,1.32-1.17,.06-.3,.15-.6,.15-.9-.02-.93-.16-1.66-1.09-2.09-.72-.33-1.5-.27-2.26-.26-.26,0-.26,.21-.26,.4,0,.6,0,1.2,0,1.8Z"/><path class="i" d="M7.42,11.73c.14,.16,.07,.35,.08,.53,.05,1.02-.09,2.05,.1,3.07-.3-.06-.25-.35-.26-.52-.03-.98-.01-1.96,0-2.94,0-.05,.06-.1,.09-.15Z"/><path class="i" d="M9.72,10.61c-.64-.14-1.3-.07-1.95-.09,.3-.32,1.68-.25,1.95,.09Z"/><path class="i" d="M7.5,10.8c-.03,.21,.08,.45-.08,.64-.12-.23-.25-.47,.08-.64Z"/><path class="i" d="M9.91,15.42c.07-.1,.17-.09,.27-.09-.03,.2-.12,.25-.27,.09Z"/><path class="o" d="M39.56,11.54c-.32,0-.65-.01-.97,0-.34,.02-.46-.16-.42-.45,.09-.75,.39-1.38,1.08-1.77,.53-.3,1.46,.13,1.66,.75,.11,.36,.1,.73,.13,1.1,.02,.24-.15,.39-.42,.38-.35,0-.71,0-1.06,0Z"/><path class="m" d="M7.69,7.92c0-.51,0-1.02,0-1.53,0-.2,.01-.41,.27-.4,.73,.02,1.48-.13,2.17,.25,.49,.27,.81,.67,.81,1.24,0,.59,.14,1.19-.25,1.74-.21,.29-.43,.49-.78,.57-.56,.12-1.12,.18-1.69,.17-.38,0-.53-.16-.52-.53,.01-.51,0-1.02,0-1.53Z"/><path class="k" d="M7.76,12.92c0-.6,0-1.2,0-1.8,0-.19,0-.4,.26-.4,.76-.01,1.54-.07,2.26,.26,.93,.43,1.07,1.16,1.09,2.09,0,.3-.09,.6-.15,.9-.13,.71-.61,1.14-1.32,1.17-.6,.03-1.2,0-1.8,.02-.26,0-.36-.09-.35-.35,.01-.63,0-1.26,0-1.89Z"/></svg>