<?xml version="1.0" encoding="UTF-8"?><svg id="a" xmlns="http://www.w3.org/2000/svg" viewBox="0 0 99.77218 24.70244"><defs><style>.b{fill:#f27a31;}.c{fill:#f27428;}.d{fill:#f17022;}.e{fill:#cf3730;}.f{fill:#a3d8da;}</style></defs><path class="d" d="M0,.00091C.96215-.02737,1.64472,.6113,2.41614,1.00904,6.78366,3.26089,11.1338,5.5451,15.48976,7.81828c-2.82454,1.67178-6.05098,2.5955-9.06791,4.53972l9.11329,4.27416c-5.17838,2.69009-10.35676,5.38019-15.53514,8.07028V.00091Z"/><path class="c" d="M99.77218,18.35062c-2.00477,2.74517-6.39525,3.36815-8.80263,1.21272-.59642-.53401-1.49325-1.33525-.7853-2.03144,.62215-.61182,1.80926-.97406,2.65129,.14878,.62867,.83831,1.54342,1.0839,2.5549,.92729,.60458-.09361,1.19752-.32351,1.31255-1.01546,.11537-.69405-.33982-1.1079-.93286-1.32355-1.06359-.38674-2.15621-.69623-3.22473-1.07071-1.5285-.53568-2.65841-1.41565-2.49416-3.19998,.15781-1.71453,1.31557-2.53515,2.89753-2.92395,1.97115-.48446,3.83144-.28736,5.39156,1.06717,.52238,.45354,1.39595,1.1674,.63233,1.86453-.6021,.54968-1.67989,.76718-2.40754-.06792-.65261-.74899-1.41612-1.06403-2.37515-.89942-.53221,.09135-1.10129,.26359-1.17903,.9015-.06736,.5528,.38012,.86046,.81853,1.0398,.76982,.31491,1.56663,.57319,2.36592,.81068,1.46749,.43602,2.73108,1.14112,3.5768,2.44269v2.11727Z"/><path class="c" d="M88.53743,16.15487c0,.94083,.01441,1.88193-.00336,2.82244-.0273,1.44473-1.19034,2.21165-2.29351,1.32469-.66588-.53537-.94176-.41599-1.44691-.07669-.04948,.03324-.09774,.07006-.15146,.09516-1.82942,.85484-4.26581,.66439-5.41587-.48991-1.13843-1.14263-1.25726-2.50346-.59854-3.9115,.66952-1.43113,2.69276-2.2555,4.82742-2.04423,.05972,.00591,.12134,.02494,.17879,.01646,.6709-.099,1.56956,.90884,1.98229-.21446,.28655-.77989,.03775-1.67575-.72118-2.21645-.80374-.57262-1.7729-.63674-2.5044,.00527-.74286,.65197-1.34036,1.20229-2.47311,.93322-.96757-.22984-1.24943-.5128-.72329-1.4118,.92239-1.57609,3.47915-2.50728,5.74297-2.03435,2.15099,.44935,3.41995,1.76939,3.57443,3.85168,.08244,1.1113,.01462,2.23331,.01462,3.35048h.01111Zm-5.08498-.50333c-1.08902,.13049-2.16727,.25562-2.19944,1.48685-.03134,1.19943,.90598,1.55443,1.97131,1.53637,1.27859-.02168,2.38035-.56957,2.3726-1.885-.00819-1.39101-1.47817-.75671-2.14447-1.13822Z"/><path class="c" d="M55.80958,16.01129c-.00006,1.05655,.01262,2.11331-.00604,3.16954-.00793,.44895,.14128,1.02379-.43924,1.2244-.62055,.21444-1.61808,.38144-1.8463-.08371-.53166-1.08368-.94975-.3904-1.41781-.11326-1.14424,.67753-2.39688,.76259-3.65013,.54542-1.63449-.28323-2.74708-1.2223-2.89297-2.9103-.1399-1.61872,.566-2.86357,2.13881-3.50855,1.18203-.48472,2.41387-.61535,3.69389-.35797,.47623,.09576,1.12674,.50019,1.4474-.04068,.2859-.48224,.16003-1.14512-.0824-1.70371-.51901-1.19586-2.03065-1.55873-3.16945-.74052-.28371,.20384-.4484,.58136-.74422,.75157-.86661,.49863-1.86602,.33266-2.4824-.23885-.59175-.54866,.19203-1.17113,.58636-1.62105,1.28033-1.46086,4.06741-1.95884,6.17501-1.17049,1.80852,.67648,2.65517,2.03479,2.68767,4.33291,.01162,.8216,.00186,1.64349,.0018,2.46525Zm-5.32704,2.68481c1.25467-.09273,2.37985-.54974,2.37939-1.89401-.00048-1.41063-1.4186-.99418-2.22707-1.07864-.93607-.09779-2.02545,.11237-2.07707,1.39604-.05077,1.26253,.8951,1.50115,1.92474,1.57662Z"/><path class="e" d="M15.53514,16.63216L6.42185,12.358c3.01693-1.94422,6.24337-2.86793,9.06791-4.53972,.13003-.00564,.25996-.0113,.38937-.01713,2.7309,1.41789,5.46233,2.83595,8.19375,4.25402,.01231,.08865,.01349,.17744,.00371,.2661-2.73515,1.44708-5.47047,2.89445-8.20578,4.34181-.11169-.01236-.22358-.02267-.33567-.03092Z"/><path class="c" d="M29.46925,15.09278c.01741-4.76965,3.44777-7.31667,7.51534-5.88895,1.05057,.36875,1.92859,.98969,2.44482,1.96317,.29321,.5529,1.08345,1.32677,.13081,1.78318-.7258,.34773-1.81023,.99118-2.48264-.29939-.51542-.98925-1.32149-1.5319-2.48196-1.31647-1.23603,.22946-1.70833,1.15867-1.99454,2.2408-.29795,1.12652-.1811,2.22188,.25432,3.2773,.362,.87747,1.03266,1.41712,2.03875,1.49228,.9443,.07055,1.65498-.33305,2.07247-1.1174,.32246-.60582,.57125-1.07774,1.4294-1.03812,1.59007,.07339,1.94273,.56099,1.2576,1.97226-.92811,1.91177-3.17483,2.95447-5.60774,2.60253-2.39552-.34652-4.11054-2.01864-4.48387-4.40433-.08137-.52-.07822-1.0527-.09276-1.26687Z"/><path class="c" d="M75.60499,20.64662c-2.92545-.09346-3.94348-1.11053-3.97056-3.89619-.012-1.23455-.01002-2.46923-.0197-3.70382-.00534-.68107,.12887-1.29144-.90099-1.59125-.88343-.25719-.83746-2.0786,.01154-2.19238,1.07521-.14409,1.16081-.80651,1.40073-1.51833,.2285-.67794,.46921-1.37154,1.43082-1.29122,1.06888,.08928,1.00453,.87154,.93764,1.56648-.09213,.9571,.31692,1.25964,1.23554,1.1595,.79737-.08692,1.39221,.05503,1.41271,1.08359,.0204,1.02333-.43,1.42352-1.39635,1.30694-1.10897-.13378-1.29958,.42651-1.25061,1.34493,.06256,1.17295,.04757,2.35131,.02625,3.52665-.01736,.95696,.35801,1.69206,1.35688,1.74966,1.12597,.06493,1.70033,.42203,1.49971,1.59054-.19872,1.15742-1.15066,.75512-1.77362,.86491Z"/><path class="c" d="M44.25242,12.26767c-.00006,2.28385-.03964,4.56866,.0174,6.85114,.02669,1.06805-.36828,1.43684-1.45574,1.43639-1.05542-.00043-1.48527-.28876-1.47374-1.39277,.04832-4.62578,.03653-9.25243,.00676-13.87851-.00614-.95375,.29201-1.3899,1.33063-1.37172,.96868,.01695,1.61411,.15802,1.5894,1.32853-.04943,2.34141-.01467,4.68453-.01472,7.02694Z"/><path class="b" d="M60.10219,10.65379c.80145-.71195,1.25436-1.31342,1.98028-1.48528,.72639-.17198,1.73844-.91052,2.03073,.37929,.19119,.84365,.53826,2.01738-1.19294,2.14717-1.59551,.11961-2.38812,1.26709-2.46812,2.78437-.08346,1.58288-.09537,3.17263-.05608,4.75741,.02888,1.16446-.60525,1.31668-1.58825,1.32153-.98231,.00485-1.42867-.30451-1.41793-1.30746,.02957-2.76182-.01161-5.5244,.02086-8.28616,.00815-.69296-.32196-1.6322,.88156-1.79057,1.00998-.13291,1.80718,.05907,1.80991,1.4797Z"/><path class="c" d="M68.61822,14.77643c-.00039,1.52033-.03478,3.04166,.01122,4.56065,.0329,1.08676-.58538,1.20342-1.47851,1.2088-.91455,.00551-1.4955-.17488-1.48715-1.2274,.02368-2.982,.0203-5.96437,.00246-8.94645-.0063-1.05383,.59747-1.215,1.50473-1.22066,.9267-.00578,1.48913,.18428,1.45833,1.23978-.04263,1.46066-.01071,2.92341-.01109,4.38527Z"/><path class="f" d="M24.07289,12.05517c-2.73143-1.41806-5.46285-2.83613-8.19375-4.25402,2.3031-1.07799,4.61614-2.13541,6.90351-3.24371,1.03039-.49925,1.38776-.2334,1.36071,.86233-.05458,2.21106-.0504,4.42351-.07046,6.63539Z"/><path class="f" d="M15.87081,16.66308c2.73531-1.44736,5.47063-2.89473,8.20578-4.34181-.00016,2.62264-.00016,5.24499-.00016,8.22517l-8.20562-3.88335Z"/><path class="b" d="M68.85253,5.48599c-.02445,1.17946-.54323,1.84976-1.60335,1.88776-1.0449,.03746-1.68124-.55102-1.7346-1.60249-.05425-1.06899,.58295-1.69919,1.59278-1.75009,1.02483-.05166,1.64084,.56737,1.74517,1.46482Z"/></svg>